<?xml version="1.0" encoding="UTF-8" standalone="no"?>
<!DOCTYPE svg PUBLIC "-//W3C//DTD SVG 1.1//EN"
 "http://www.w3.org/Graphics/SVG/1.1/DTD/svg11.dtd">
<!-- Generated by graphviz version 2.43.0 (0)
 -->
<!-- Title: %3 Pages: 1 -->
<svg width="3364pt" height="692pt"
 viewBox="0.00 0.00 3364.14 692.00" xmlns="http://www.w3.org/2000/svg" xmlns:xlink="http://www.w3.org/1999/xlink">
<g id="graph0" class="graph" transform="scale(1 1) rotate(0) translate(4 688)">
<title>%3</title>
<polygon fill="white" stroke="transparent" points="-4,4 -4,-688 3360.14,-688 3360.14,4 -4,4"/>
<!-- [root] data.aws_subnet.public_subnet (expand) -->
<g id="node1" class="node">
<title>[root] data.aws_subnet.public_subnet (expand)</title>
<polygon fill="none" stroke="black" points="1406.5,-180 1167.5,-180 1167.5,-144 1406.5,-144 1406.5,-180"/>
<text text-anchor="middle" x="1287" y="-158.3" font-family="Times,serif" font-size="14.00">data.aws_subnet.public_subnet</text>
</g>
<!-- [root] provider[&quot;registry.terraform.io/hashicorp/aws&quot;] -->
<g id="node10" class="node">
<title>[root] provider[&quot;registry.terraform.io/hashicorp/aws&quot;]</title>
<polygon fill="none" stroke="black" points="1082,-108 756.74,-90 1082,-72 1407.26,-90 1082,-108"/>
<text text-anchor="middle" x="1082" y="-86.3" font-family="Times,serif" font-size="14.00">provider[&quot;registry.terraform.io/hashicorp/aws&quot;]</text>
</g>
<!-- [root] data.aws_subnet.public_subnet (expand)&#45;&gt;[root] provider[&quot;registry.terraform.io/hashicorp/aws&quot;] -->
<g id="edge1" class="edge">
<title>[root] data.aws_subnet.public_subnet (expand)&#45;&gt;[root] provider[&quot;registry.terraform.io/hashicorp/aws&quot;]</title>
<path fill="none" stroke="black" d="M1237.11,-143.97C1206.07,-133.37 1166.2,-119.75 1134.65,-108.98"/>
<polygon fill="black" stroke="black" points="1135.75,-105.65 1125.15,-105.73 1133.48,-112.28 1135.75,-105.65"/>
</g>
<!-- [root] var.servidores -->
<g id="node12" class="node">
<title>[root] var.servidores</title>
<polygon fill="none" stroke="black" points="1917,-108 1805,-108 1805,-72 1923,-72 1923,-102 1917,-108"/>
<polyline fill="none" stroke="black" points="1917,-108 1917,-102 "/>
<polyline fill="none" stroke="black" points="1923,-102 1917,-102 "/>
<text text-anchor="middle" x="1864" y="-86.3" font-family="Times,serif" font-size="14.00">var.servidores</text>
</g>
<!-- [root] data.aws_subnet.public_subnet (expand)&#45;&gt;[root] var.servidores -->
<g id="edge2" class="edge">
<title>[root] data.aws_subnet.public_subnet (expand)&#45;&gt;[root] var.servidores</title>
<path fill="none" stroke="black" d="M1406.56,-144.98C1409.4,-144.64 1412.22,-144.32 1415,-144 1580.78,-125.17 1626.62,-136.27 1794.84,-108.05"/>
<polygon fill="black" stroke="black" points="1795.5,-111.49 1804.77,-106.37 1794.33,-104.59 1795.5,-111.49"/>
</g>
<!-- [root] module.load_balancer.aws_lb.alb (expand) -->
<g id="node2" class="node">
<title>[root] module.load_balancer.aws_lb.alb (expand)</title>
<polygon fill="none" stroke="black" points="539.5,-468 290.5,-468 290.5,-432 539.5,-432 539.5,-468"/>
<text text-anchor="middle" x="415" y="-446.3" font-family="Times,serif" font-size="14.00">module.load_balancer.aws_lb.alb</text>
</g>
<!-- [root] module.load_balancer.aws_security_group.alb (expand) -->
<g id="node6" class="node">
<title>[root] module.load_balancer.aws_security_group.alb (expand)</title>
<polygon fill="none" stroke="black" points="517,-396 175,-396 175,-360 517,-360 517,-396"/>
<text text-anchor="middle" x="346" y="-374.3" font-family="Times,serif" font-size="14.00">module.load_balancer.aws_security_group.alb</text>
</g>
<!-- [root] module.load_balancer.aws_lb.alb (expand)&#45;&gt;[root] module.load_balancer.aws_security_group.alb (expand) -->
<g id="edge8" class="edge">
<title>[root] module.load_balancer.aws_lb.alb (expand)&#45;&gt;[root] module.load_balancer.aws_security_group.alb (expand)</title>
<path fill="none" stroke="black" d="M397.94,-431.7C389.5,-423.14 379.18,-412.66 369.96,-403.3"/>
<polygon fill="black" stroke="black" points="372.37,-400.77 362.86,-396.1 367.39,-405.68 372.37,-400.77"/>
</g>
<!-- [root] module.load_balancer.var.subnet_ids (expand) -->
<g id="node18" class="node">
<title>[root] module.load_balancer.var.subnet_ids (expand)</title>
<ellipse fill="none" stroke="black" cx="1747" cy="-306" rx="252.66" ry="18"/>
<text text-anchor="middle" x="1747" y="-302.3" font-family="Times,serif" font-size="14.00">[root] module.load_balancer.var.subnet_ids (expand)</text>
</g>
<!-- [root] module.load_balancer.aws_lb.alb (expand)&#45;&gt;[root] module.load_balancer.var.subnet_ids (expand) -->
<g id="edge9" class="edge">
<title>[root] module.load_balancer.aws_lb.alb (expand)&#45;&gt;[root] module.load_balancer.var.subnet_ids (expand)</title>
<path fill="none" stroke="black" d="M539.63,-439.46C662.81,-429.73 856.57,-413.58 1024,-396 1235.27,-373.81 1480.55,-342.42 1624.26,-323.46"/>
<polygon fill="black" stroke="black" points="1624.98,-326.9 1634.43,-322.12 1624.06,-319.96 1624.98,-326.9"/>
</g>
<!-- [root] module.load_balancer.aws_lb_listener.this (expand) -->
<g id="node3" class="node">
<title>[root] module.load_balancer.aws_lb_listener.this (expand)</title>
<polygon fill="none" stroke="black" points="995,-540 681,-540 681,-504 995,-504 995,-540"/>
<text text-anchor="middle" x="838" y="-518.3" font-family="Times,serif" font-size="14.00">module.load_balancer.aws_lb_listener.this</text>
</g>
<!-- [root] module.load_balancer.aws_lb_listener.this (expand)&#45;&gt;[root] module.load_balancer.aws_lb.alb (expand) -->
<g id="edge10" class="edge">
<title>[root] module.load_balancer.aws_lb_listener.this (expand)&#45;&gt;[root] module.load_balancer.aws_lb.alb (expand)</title>
<path fill="none" stroke="black" d="M735.06,-503.97C672.5,-493.61 592.56,-480.38 528.22,-469.74"/>
<polygon fill="black" stroke="black" points="528.47,-466.23 518.03,-468.05 527.33,-473.14 528.47,-466.23"/>
</g>
<!-- [root] module.load_balancer.aws_lb_target_group.this (expand) -->
<g id="node4" class="node">
<title>[root] module.load_balancer.aws_lb_target_group.this (expand)</title>
<polygon fill="none" stroke="black" points="1015,-396 661,-396 661,-360 1015,-360 1015,-396"/>
<text text-anchor="middle" x="838" y="-374.3" font-family="Times,serif" font-size="14.00">module.load_balancer.aws_lb_target_group.this</text>
</g>
<!-- [root] module.load_balancer.aws_lb_listener.this (expand)&#45;&gt;[root] module.load_balancer.aws_lb_target_group.this (expand) -->
<g id="edge11" class="edge">
<title>[root] module.load_balancer.aws_lb_listener.this (expand)&#45;&gt;[root] module.load_balancer.aws_lb_target_group.this (expand)</title>
<path fill="none" stroke="black" d="M838,-503.87C838,-479.67 838,-435.21 838,-406.39"/>
<polygon fill="black" stroke="black" points="841.5,-406.19 838,-396.19 834.5,-406.19 841.5,-406.19"/>
</g>
<!-- [root] module.load_balancer.data.aws_vpc.default (expand) -->
<g id="node7" class="node">
<title>[root] module.load_balancer.data.aws_vpc.default (expand)</title>
<polygon fill="none" stroke="black" points="1476.5,-324 1151.5,-324 1151.5,-288 1476.5,-288 1476.5,-324"/>
<text text-anchor="middle" x="1314" y="-302.3" font-family="Times,serif" font-size="14.00">module.load_balancer.data.aws_vpc.default</text>
</g>
<!-- [root] module.load_balancer.aws_lb_target_group.this (expand)&#45;&gt;[root] module.load_balancer.data.aws_vpc.default (expand) -->
<g id="edge12" class="edge">
<title>[root] module.load_balancer.aws_lb_target_group.this (expand)&#45;&gt;[root] module.load_balancer.data.aws_vpc.default (expand)</title>
<path fill="none" stroke="black" d="M953.83,-359.97C1024.67,-349.55 1115.31,-336.22 1187.93,-325.54"/>
<polygon fill="black" stroke="black" points="1188.68,-328.97 1198.06,-324.05 1187.66,-322.04 1188.68,-328.97"/>
</g>
<!-- [root] module.load_balancer.var.puerto_lb (expand) -->
<g id="node19" class="node">
<title>[root] module.load_balancer.var.puerto_lb (expand)</title>
<ellipse fill="none" stroke="black" cx="279" cy="-306" rx="246.96" ry="18"/>
<text text-anchor="middle" x="279" y="-302.3" font-family="Times,serif" font-size="14.00">[root] module.load_balancer.var.puerto_lb (expand)</text>
</g>
<!-- [root] module.load_balancer.aws_lb_target_group.this (expand)&#45;&gt;[root] module.load_balancer.var.puerto_lb (expand) -->
<g id="edge13" class="edge">
<title>[root] module.load_balancer.aws_lb_target_group.this (expand)&#45;&gt;[root] module.load_balancer.var.puerto_lb (expand)</title>
<path fill="none" stroke="black" d="M701.97,-359.97C612.35,-348.74 495.73,-334.14 407.65,-323.11"/>
<polygon fill="black" stroke="black" points="407.95,-319.62 397.59,-321.85 407.08,-326.57 407.95,-319.62"/>
</g>
<!-- [root] module.load_balancer.var.puerto_servidor (expand) -->
<g id="node20" class="node">
<title>[root] module.load_balancer.var.puerto_servidor (expand)</title>
<ellipse fill="none" stroke="black" cx="820" cy="-306" rx="276.45" ry="18"/>
<text text-anchor="middle" x="820" y="-302.3" font-family="Times,serif" font-size="14.00">[root] module.load_balancer.var.puerto_servidor (expand)</text>
</g>
<!-- [root] module.load_balancer.aws_lb_target_group.this (expand)&#45;&gt;[root] module.load_balancer.var.puerto_servidor (expand) -->
<g id="edge14" class="edge">
<title>[root] module.load_balancer.aws_lb_target_group.this (expand)&#45;&gt;[root] module.load_balancer.var.puerto_servidor (expand)</title>
<path fill="none" stroke="black" d="M833.55,-359.7C831.55,-351.9 829.13,-342.51 826.9,-333.83"/>
<polygon fill="black" stroke="black" points="830.28,-332.92 824.4,-324.1 823.5,-334.66 830.28,-332.92"/>
</g>
<!-- [root] module.load_balancer.aws_lb_target_group_attachment.servidor (expand) -->
<g id="node5" class="node">
<title>[root] module.load_balancer.aws_lb_target_group_attachment.servidor (expand)</title>
<polygon fill="none" stroke="black" points="1488.5,-540 1013.5,-540 1013.5,-504 1488.5,-504 1488.5,-540"/>
<text text-anchor="middle" x="1251" y="-518.3" font-family="Times,serif" font-size="14.00">module.load_balancer.aws_lb_target_group_attachment.servidor</text>
</g>
<!-- [root] module.load_balancer.aws_lb_target_group_attachment.servidor (expand)&#45;&gt;[root] module.load_balancer.aws_lb_target_group.this (expand) -->
<g id="edge15" class="edge">
<title>[root] module.load_balancer.aws_lb_target_group_attachment.servidor (expand)&#45;&gt;[root] module.load_balancer.aws_lb_target_group.this (expand)</title>
<path fill="none" stroke="black" d="M1111.19,-503.97C1067.86,-496.01 1020.59,-484.5 979,-468 937.55,-451.55 894.92,-422.67 867.55,-402.27"/>
<polygon fill="black" stroke="black" points="869.65,-399.47 859.56,-396.24 865.43,-405.06 869.65,-399.47"/>
</g>
<!-- [root] module.load_balancer.var.instancia_ids (expand) -->
<g id="node21" class="node">
<title>[root] module.load_balancer.var.instancia_ids (expand)</title>
<ellipse fill="none" stroke="black" cx="1251" cy="-450" rx="262.65" ry="18"/>
<text text-anchor="middle" x="1251" y="-446.3" font-family="Times,serif" font-size="14.00">[root] module.load_balancer.var.instancia_ids (expand)</text>
</g>
<!-- [root] module.load_balancer.aws_lb_target_group_attachment.servidor (expand)&#45;&gt;[root] module.load_balancer.var.instancia_ids (expand) -->
<g id="edge16" class="edge">
<title>[root] module.load_balancer.aws_lb_target_group_attachment.servidor (expand)&#45;&gt;[root] module.load_balancer.var.instancia_ids (expand)</title>
<path fill="none" stroke="black" d="M1251,-503.7C1251,-495.98 1251,-486.71 1251,-478.11"/>
<polygon fill="black" stroke="black" points="1254.5,-478.1 1251,-468.1 1247.5,-478.1 1254.5,-478.1"/>
</g>
<!-- [root] module.load_balancer.aws_security_group.alb (expand)&#45;&gt;[root] provider[&quot;registry.terraform.io/hashicorp/aws&quot;] -->
<g id="edge19" class="edge">
<title>[root] module.load_balancer.aws_security_group.alb (expand)&#45;&gt;[root] provider[&quot;registry.terraform.io/hashicorp/aws&quot;]</title>
<path fill="none" stroke="black" d="M174.81,-368.68C108.57,-361.55 43.69,-348.36 23,-324 12.64,-311.8 15.84,-302.31 23,-288 93.85,-146.3 534.78,-105.87 824.9,-94.74"/>
<polygon fill="black" stroke="black" points="825.29,-98.22 835.15,-94.35 825.03,-91.23 825.29,-98.22"/>
</g>
<!-- [root] module.load_balancer.aws_security_group.alb (expand)&#45;&gt;[root] module.load_balancer.var.puerto_lb (expand) -->
<g id="edge17" class="edge">
<title>[root] module.load_balancer.aws_security_group.alb (expand)&#45;&gt;[root] module.load_balancer.var.puerto_lb (expand)</title>
<path fill="none" stroke="black" d="M329.44,-359.7C321.32,-351.22 311.41,-340.86 302.53,-331.58"/>
<polygon fill="black" stroke="black" points="304.81,-328.91 295.37,-324.1 299.76,-333.75 304.81,-328.91"/>
</g>
<!-- [root] module.load_balancer.aws_security_group.alb (expand)&#45;&gt;[root] module.load_balancer.var.puerto_servidor (expand) -->
<g id="edge18" class="edge">
<title>[root] module.load_balancer.aws_security_group.alb (expand)&#45;&gt;[root] module.load_balancer.var.puerto_servidor (expand)</title>
<path fill="none" stroke="black" d="M461.35,-359.97C534.89,-349.1 629.88,-335.08 703.62,-324.19"/>
<polygon fill="black" stroke="black" points="704.5,-327.59 713.88,-322.67 703.48,-320.67 704.5,-327.59"/>
</g>
<!-- [root] module.load_balancer.data.aws_vpc.default (expand)&#45;&gt;[root] provider[&quot;registry.terraform.io/hashicorp/aws&quot;] -->
<g id="edge21" class="edge">
<title>[root] module.load_balancer.data.aws_vpc.default (expand)&#45;&gt;[root] provider[&quot;registry.terraform.io/hashicorp/aws&quot;]</title>
<path fill="none" stroke="black" d="M1302.05,-287.73C1287.32,-267.7 1260.47,-235 1230,-216 1184.2,-187.44 1153.01,-217.32 1114,-180 1097,-163.74 1089.01,-137.81 1085.26,-118.12"/>
<polygon fill="black" stroke="black" points="1088.71,-117.5 1083.63,-108.2 1081.8,-118.64 1088.71,-117.5"/>
</g>
<!-- [root] module.load_balancer (expand) -->
<g id="node22" class="node">
<title>[root] module.load_balancer (expand)</title>
<ellipse fill="none" stroke="black" cx="1037" cy="-234" rx="183.87" ry="18"/>
<text text-anchor="middle" x="1037" y="-230.3" font-family="Times,serif" font-size="14.00">[root] module.load_balancer (expand)</text>
</g>
<!-- [root] module.load_balancer.data.aws_vpc.default (expand)&#45;&gt;[root] module.load_balancer (expand) -->
<g id="edge20" class="edge">
<title>[root] module.load_balancer.data.aws_vpc.default (expand)&#45;&gt;[root] module.load_balancer (expand)</title>
<path fill="none" stroke="black" d="M1246.59,-287.97C1205.38,-277.55 1152.64,-264.22 1110.37,-253.54"/>
<polygon fill="black" stroke="black" points="1110.98,-250.08 1100.42,-251.03 1109.26,-256.87 1110.98,-250.08"/>
</g>
<!-- [root] module.servidores_ec2.aws_instance.servidor (expand) -->
<g id="node8" class="node">
<title>[root] module.servidores_ec2.aws_instance.servidor (expand)</title>
<polygon fill="none" stroke="black" points="2360.5,-324 2017.5,-324 2017.5,-288 2360.5,-288 2360.5,-324"/>
<text text-anchor="middle" x="2189" y="-302.3" font-family="Times,serif" font-size="14.00">module.servidores_ec2.aws_instance.servidor</text>
</g>
<!-- [root] module.servidores_ec2.aws_security_group.mi_grupo_de_seguridad (expand) -->
<g id="node9" class="node">
<title>[root] module.servidores_ec2.aws_security_group.mi_grupo_de_seguridad (expand)</title>
<polygon fill="none" stroke="black" points="1814.5,-252 1315.5,-252 1315.5,-216 1814.5,-216 1814.5,-252"/>
<text text-anchor="middle" x="1565" y="-230.3" font-family="Times,serif" font-size="14.00">module.servidores_ec2.aws_security_group.mi_grupo_de_seguridad</text>
</g>
<!-- [root] module.servidores_ec2.aws_instance.servidor (expand)&#45;&gt;[root] module.servidores_ec2.aws_security_group.mi_grupo_de_seguridad (expand) -->
<g id="edge34" class="edge">
<title>[root] module.servidores_ec2.aws_instance.servidor (expand)&#45;&gt;[root] module.servidores_ec2.aws_security_group.mi_grupo_de_seguridad (expand)</title>
<path fill="none" stroke="black" d="M2037.15,-287.97C1943.16,-277.42 1822.57,-263.89 1726.79,-253.15"/>
<polygon fill="black" stroke="black" points="1727.05,-249.66 1716.72,-252.02 1726.27,-256.61 1727.05,-249.66"/>
</g>
<!-- [root] module.servidores_ec2.var.ami_id (expand) -->
<g id="node29" class="node">
<title>[root] module.servidores_ec2.var.ami_id (expand)</title>
<ellipse fill="none" stroke="black" cx="2851" cy="-162" rx="239.36" ry="18"/>
<text text-anchor="middle" x="2851" y="-158.3" font-family="Times,serif" font-size="14.00">[root] module.servidores_ec2.var.ami_id (expand)</text>
</g>
<!-- [root] module.servidores_ec2.aws_instance.servidor (expand)&#45;&gt;[root] module.servidores_ec2.var.ami_id (expand) -->
<g id="edge35" class="edge">
<title>[root] module.servidores_ec2.aws_instance.servidor (expand)&#45;&gt;[root] module.servidores_ec2.var.ami_id (expand)</title>
<path fill="none" stroke="black" d="M2268.52,-287.94C2394.08,-261.01 2637.19,-208.86 2766.04,-181.22"/>
<polygon fill="black" stroke="black" points="2766.83,-184.63 2775.88,-179.11 2765.37,-177.79 2766.83,-184.63"/>
</g>
<!-- [root] module.servidores_ec2.var.servidores (expand) -->
<g id="node30" class="node">
<title>[root] module.servidores_ec2.var.servidores (expand)</title>
<ellipse fill="none" stroke="black" cx="2091" cy="-234" rx="258.05" ry="18"/>
<text text-anchor="middle" x="2091" y="-230.3" font-family="Times,serif" font-size="14.00">[root] module.servidores_ec2.var.servidores (expand)</text>
</g>
<!-- [root] module.servidores_ec2.aws_instance.servidor (expand)&#45;&gt;[root] module.servidores_ec2.var.servidores (expand) -->
<g id="edge36" class="edge">
<title>[root] module.servidores_ec2.aws_instance.servidor (expand)&#45;&gt;[root] module.servidores_ec2.var.servidores (expand)</title>
<path fill="none" stroke="black" d="M2165.03,-287.88C2152.36,-278.83 2136.63,-267.6 2122.94,-257.82"/>
<polygon fill="black" stroke="black" points="2124.9,-254.91 2114.73,-251.95 2120.83,-260.61 2124.9,-254.91"/>
</g>
<!-- [root] module.servidores_ec2.var.tipo_instancia (expand) -->
<g id="node31" class="node">
<title>[root] module.servidores_ec2.var.tipo_instancia (expand)</title>
<ellipse fill="none" stroke="black" cx="2320" cy="-162" rx="273.75" ry="18"/>
<text text-anchor="middle" x="2320" y="-158.3" font-family="Times,serif" font-size="14.00">[root] module.servidores_ec2.var.tipo_instancia (expand)</text>
</g>
<!-- [root] module.servidores_ec2.aws_instance.servidor (expand)&#45;&gt;[root] module.servidores_ec2.var.tipo_instancia (expand) -->
<g id="edge37" class="edge">
<title>[root] module.servidores_ec2.aws_instance.servidor (expand)&#45;&gt;[root] module.servidores_ec2.var.tipo_instancia (expand)</title>
<path fill="none" stroke="black" d="M2309.82,-287.96C2328.68,-279.98 2345.9,-268.48 2358,-252 2372.29,-232.54 2358.56,-206.87 2343.76,-188.11"/>
<polygon fill="black" stroke="black" points="2346.31,-185.7 2337.21,-180.27 2340.94,-190.19 2346.31,-185.7"/>
</g>
<!-- [root] module.servidores_ec2.aws_security_group.mi_grupo_de_seguridad (expand)&#45;&gt;[root] provider[&quot;registry.terraform.io/hashicorp/aws&quot;] -->
<g id="edge39" class="edge">
<title>[root] module.servidores_ec2.aws_security_group.mi_grupo_de_seguridad (expand)&#45;&gt;[root] provider[&quot;registry.terraform.io/hashicorp/aws&quot;]</title>
<path fill="none" stroke="black" d="M1323.1,-216C1253.5,-207.95 1188.23,-196.39 1158,-180 1131.08,-165.41 1109.52,-137.15 1096.33,-116.38"/>
<polygon fill="black" stroke="black" points="1099.24,-114.43 1091.04,-107.72 1093.27,-118.08 1099.24,-114.43"/>
</g>
<!-- [root] module.servidores_ec2.var.puerto_servidor (expand) -->
<g id="node32" class="node">
<title>[root] module.servidores_ec2.var.puerto_servidor (expand)</title>
<ellipse fill="none" stroke="black" cx="1707" cy="-162" rx="282.95" ry="18"/>
<text text-anchor="middle" x="1707" y="-158.3" font-family="Times,serif" font-size="14.00">[root] module.servidores_ec2.var.puerto_servidor (expand)</text>
</g>
<!-- [root] module.servidores_ec2.aws_security_group.mi_grupo_de_seguridad (expand)&#45;&gt;[root] module.servidores_ec2.var.puerto_servidor (expand) -->
<g id="edge38" class="edge">
<title>[root] module.servidores_ec2.aws_security_group.mi_grupo_de_seguridad (expand)&#45;&gt;[root] module.servidores_ec2.var.puerto_servidor (expand)</title>
<path fill="none" stroke="black" d="M1599.74,-215.88C1618.96,-206.4 1643.04,-194.53 1663.5,-184.44"/>
<polygon fill="black" stroke="black" points="1665.2,-187.51 1672.62,-179.95 1662.1,-181.23 1665.2,-187.51"/>
</g>
<!-- [root] local.region (expand) -->
<g id="node15" class="node">
<title>[root] local.region (expand)</title>
<ellipse fill="none" stroke="black" cx="2851" cy="-18" rx="137.28" ry="18"/>
<text text-anchor="middle" x="2851" y="-14.3" font-family="Times,serif" font-size="14.00">[root] local.region (expand)</text>
</g>
<!-- [root] provider[&quot;registry.terraform.io/hashicorp/aws&quot;]&#45;&gt;[root] local.region (expand) -->
<g id="edge56" class="edge">
<title>[root] provider[&quot;registry.terraform.io/hashicorp/aws&quot;]&#45;&gt;[root] local.region (expand)</title>
<path fill="none" stroke="black" d="M1237.88,-80.61C1294.02,-77.71 1357.85,-74.55 1416,-72 1889.74,-51.2 2451.7,-32.05 2709.25,-23.58"/>
<polygon fill="black" stroke="black" points="2709.53,-27.07 2719.41,-23.25 2709.3,-20.08 2709.53,-27.07"/>
</g>
<!-- [root] var.puerto_servidor -->
<g id="node11" class="node">
<title>[root] var.puerto_servidor</title>
<polygon fill="none" stroke="black" points="150,-612 0,-612 0,-576 156,-576 156,-606 150,-612"/>
<polyline fill="none" stroke="black" points="150,-612 150,-606 "/>
<polyline fill="none" stroke="black" points="156,-606 150,-606 "/>
<text text-anchor="middle" x="78" y="-590.3" font-family="Times,serif" font-size="14.00">var.puerto_servidor</text>
</g>
<!-- [root] var.ubuntu_ami -->
<g id="node13" class="node">
<title>[root] var.ubuntu_ami</title>
<polygon fill="none" stroke="black" points="3098.5,-108 2977.5,-108 2977.5,-72 3104.5,-72 3104.5,-102 3098.5,-108"/>
<polyline fill="none" stroke="black" points="3098.5,-108 3098.5,-102 "/>
<polyline fill="none" stroke="black" points="3104.5,-102 3098.5,-102 "/>
<text text-anchor="middle" x="3041" y="-86.3" font-family="Times,serif" font-size="14.00">var.ubuntu_ami</text>
</g>
<!-- [root] local.ami (expand) -->
<g id="node14" class="node">
<title>[root] local.ami (expand)</title>
<ellipse fill="none" stroke="black" cx="3232" cy="-162" rx="124.28" ry="18"/>
<text text-anchor="middle" x="3232" y="-158.3" font-family="Times,serif" font-size="14.00">[root] local.ami (expand)</text>
</g>
<!-- [root] local.ami (expand)&#45;&gt;[root] var.ubuntu_ami -->
<g id="edge4" class="edge">
<title>[root] local.ami (expand)&#45;&gt;[root] var.ubuntu_ami</title>
<path fill="none" stroke="black" d="M3188.66,-145.12C3161.56,-135.19 3126.39,-122.29 3097.17,-111.59"/>
<polygon fill="black" stroke="black" points="3098.1,-108.2 3087.51,-108.04 3095.69,-114.77 3098.1,-108.2"/>
</g>
<!-- [root] local.ami (expand)&#45;&gt;[root] local.region (expand) -->
<g id="edge3" class="edge">
<title>[root] local.ami (expand)&#45;&gt;[root] local.region (expand)</title>
<path fill="none" stroke="black" d="M3214.85,-144.03C3193.22,-123.66 3154.02,-89.99 3114,-72 3068.19,-51.4 3014.31,-38.76 2967.29,-31.01"/>
<polygon fill="black" stroke="black" points="2967.79,-27.55 2957.36,-29.43 2966.69,-34.46 2967.79,-27.55"/>
</g>
<!-- [root] module.load_balancer (close) -->
<g id="node16" class="node">
<title>[root] module.load_balancer (close)</title>
<ellipse fill="none" stroke="black" cx="768" cy="-594" rx="173.57" ry="18"/>
<text text-anchor="middle" x="768" y="-590.3" font-family="Times,serif" font-size="14.00">[root] module.load_balancer (close)</text>
</g>
<!-- [root] module.load_balancer (close)&#45;&gt;[root] module.load_balancer.aws_lb_listener.this (expand) -->
<g id="edge5" class="edge">
<title>[root] module.load_balancer (close)&#45;&gt;[root] module.load_balancer.aws_lb_listener.this (expand)</title>
<path fill="none" stroke="black" d="M784.95,-576.05C793.5,-567.5 804.04,-556.96 813.46,-547.54"/>
<polygon fill="black" stroke="black" points="816.13,-549.82 820.72,-540.28 811.18,-544.87 816.13,-549.82"/>
</g>
<!-- [root] module.load_balancer (close)&#45;&gt;[root] module.load_balancer.aws_lb_target_group_attachment.servidor (expand) -->
<g id="edge6" class="edge">
<title>[root] module.load_balancer (close)&#45;&gt;[root] module.load_balancer.aws_lb_target_group_attachment.servidor (expand)</title>
<path fill="none" stroke="black" d="M864.58,-579C938.9,-568.23 1042.27,-553.25 1123.4,-541.49"/>
<polygon fill="black" stroke="black" points="1124.29,-544.9 1133.68,-540 1123.28,-537.97 1124.29,-544.9"/>
</g>
<!-- [root] module.load_balancer.output.dns_load_balancer (expand) -->
<g id="node17" class="node">
<title>[root] module.load_balancer.output.dns_load_balancer (expand)</title>
<ellipse fill="none" stroke="black" cx="359" cy="-522" rx="304.35" ry="18"/>
<text text-anchor="middle" x="359" y="-518.3" font-family="Times,serif" font-size="14.00">[root] module.load_balancer.output.dns_load_balancer (expand)</text>
</g>
<!-- [root] module.load_balancer (close)&#45;&gt;[root] module.load_balancer.output.dns_load_balancer (expand) -->
<g id="edge7" class="edge">
<title>[root] module.load_balancer (close)&#45;&gt;[root] module.load_balancer.output.dns_load_balancer (expand)</title>
<path fill="none" stroke="black" d="M682.26,-578.33C618.41,-567.4 530.91,-552.42 463.05,-540.81"/>
<polygon fill="black" stroke="black" points="463.64,-537.36 453.19,-539.12 462.46,-544.26 463.64,-537.36"/>
</g>
<!-- [root] module.load_balancer.output.dns_load_balancer (expand)&#45;&gt;[root] module.load_balancer.aws_lb.alb (expand) -->
<g id="edge22" class="edge">
<title>[root] module.load_balancer.output.dns_load_balancer (expand)&#45;&gt;[root] module.load_balancer.aws_lb.alb (expand)</title>
<path fill="none" stroke="black" d="M372.84,-503.7C379.49,-495.39 387.58,-485.28 394.89,-476.14"/>
<polygon fill="black" stroke="black" points="397.8,-478.1 401.32,-468.1 392.34,-473.73 397.8,-478.1"/>
</g>
<!-- [root] module.load_balancer.var.subnet_ids (expand)&#45;&gt;[root] data.aws_subnet.public_subnet (expand) -->
<g id="edge29" class="edge">
<title>[root] module.load_balancer.var.subnet_ids (expand)&#45;&gt;[root] data.aws_subnet.public_subnet (expand)</title>
<path fill="none" stroke="black" d="M1567.86,-293.28C1454.56,-284.19 1325.82,-270.1 1306,-252 1289.19,-236.65 1285.28,-210.38 1285.08,-190.35"/>
<polygon fill="black" stroke="black" points="1288.58,-190.32 1285.28,-180.25 1281.58,-190.18 1288.58,-190.32"/>
</g>
<!-- [root] module.load_balancer.var.subnet_ids (expand)&#45;&gt;[root] module.load_balancer (expand) -->
<g id="edge30" class="edge">
<title>[root] module.load_balancer.var.subnet_ids (expand)&#45;&gt;[root] module.load_balancer (expand)</title>
<path fill="none" stroke="black" d="M1605.45,-291.04C1479.24,-278.6 1295.78,-260.51 1171.7,-248.28"/>
<polygon fill="black" stroke="black" points="1171.67,-244.76 1161.38,-247.26 1170.99,-251.73 1171.67,-244.76"/>
</g>
<!-- [root] module.load_balancer.var.puerto_lb (expand)&#45;&gt;[root] module.load_balancer (expand) -->
<g id="edge26" class="edge">
<title>[root] module.load_balancer.var.puerto_lb (expand)&#45;&gt;[root] module.load_balancer (expand)</title>
<path fill="none" stroke="black" d="M425.6,-291.46C562.02,-278.86 763.88,-260.22 897.85,-247.85"/>
<polygon fill="black" stroke="black" points="898.55,-251.3 908.18,-246.9 897.9,-244.33 898.55,-251.3"/>
</g>
<!-- [root] local.puerto_lb (expand) -->
<g id="node24" class="node">
<title>[root] local.puerto_lb (expand)</title>
<ellipse fill="none" stroke="black" cx="279" cy="-234" rx="151.37" ry="18"/>
<text text-anchor="middle" x="279" y="-230.3" font-family="Times,serif" font-size="14.00">[root] local.puerto_lb (expand)</text>
</g>
<!-- [root] module.load_balancer.var.puerto_lb (expand)&#45;&gt;[root] local.puerto_lb (expand) -->
<g id="edge25" class="edge">
<title>[root] module.load_balancer.var.puerto_lb (expand)&#45;&gt;[root] local.puerto_lb (expand)</title>
<path fill="none" stroke="black" d="M279,-287.7C279,-279.98 279,-270.71 279,-262.11"/>
<polygon fill="black" stroke="black" points="282.5,-262.1 279,-252.1 275.5,-262.1 282.5,-262.1"/>
</g>
<!-- [root] module.load_balancer.var.puerto_servidor (expand)&#45;&gt;[root] module.load_balancer (expand) -->
<g id="edge28" class="edge">
<title>[root] module.load_balancer.var.puerto_servidor (expand)&#45;&gt;[root] module.load_balancer (expand)</title>
<path fill="none" stroke="black" d="M871.98,-288.23C903.34,-278.12 943.44,-265.18 976.26,-254.59"/>
<polygon fill="black" stroke="black" points="977.75,-257.79 986.2,-251.39 975.6,-251.13 977.75,-257.79"/>
</g>
<!-- [root] local.puerto_servidor (expand) -->
<g id="node25" class="node">
<title>[root] local.puerto_servidor (expand)</title>
<ellipse fill="none" stroke="black" cx="1606" cy="-90" rx="180.87" ry="18"/>
<text text-anchor="middle" x="1606" y="-86.3" font-family="Times,serif" font-size="14.00">[root] local.puerto_servidor (expand)</text>
</g>
<!-- [root] module.load_balancer.var.puerto_servidor (expand)&#45;&gt;[root] local.puerto_servidor (expand) -->
<g id="edge27" class="edge">
<title>[root] module.load_balancer.var.puerto_servidor (expand)&#45;&gt;[root] local.puerto_servidor (expand)</title>
<path fill="none" stroke="black" d="M819.68,-287.65C820.3,-267.54 824.52,-234.76 844,-216 888.78,-172.89 1268.61,-126.64 1474.53,-104.42"/>
<polygon fill="black" stroke="black" points="1474.93,-107.9 1484.5,-103.35 1474.18,-100.94 1474.93,-107.9"/>
</g>
<!-- [root] module.load_balancer.var.instancia_ids (expand)&#45;&gt;[root] module.load_balancer (expand) -->
<g id="edge23" class="edge">
<title>[root] module.load_balancer.var.instancia_ids (expand)&#45;&gt;[root] module.load_balancer (expand)</title>
<path fill="none" stroke="black" d="M1236.97,-431.66C1211.94,-401.15 1157.27,-336.51 1105,-288 1093.79,-277.59 1080.69,-267.05 1069,-258.14"/>
<polygon fill="black" stroke="black" points="1070.88,-255.17 1060.78,-251.96 1066.67,-260.77 1070.88,-255.17"/>
</g>
<!-- [root] module.servidores_ec2.output.instancia_ids (expand) -->
<g id="node23" class="node">
<title>[root] module.servidores_ec2.output.instancia_ids (expand)</title>
<ellipse fill="none" stroke="black" cx="2138" cy="-378" rx="285.95" ry="18"/>
<text text-anchor="middle" x="2138" y="-374.3" font-family="Times,serif" font-size="14.00">[root] module.servidores_ec2.output.instancia_ids (expand)</text>
</g>
<!-- [root] module.load_balancer.var.instancia_ids (expand)&#45;&gt;[root] module.servidores_ec2.output.instancia_ids (expand) -->
<g id="edge24" class="edge">
<title>[root] module.load_balancer.var.instancia_ids (expand)&#45;&gt;[root] module.servidores_ec2.output.instancia_ids (expand)</title>
<path fill="none" stroke="black" d="M1416.02,-435.98C1569.74,-423.85 1798.44,-405.8 1957.08,-393.28"/>
<polygon fill="black" stroke="black" points="1957.73,-396.74 1967.43,-392.46 1957.18,-389.76 1957.73,-396.74"/>
</g>
<!-- [root] module.servidores_ec2.output.instancia_ids (expand)&#45;&gt;[root] module.servidores_ec2.aws_instance.servidor (expand) -->
<g id="edge41" class="edge">
<title>[root] module.servidores_ec2.output.instancia_ids (expand)&#45;&gt;[root] module.servidores_ec2.aws_instance.servidor (expand)</title>
<path fill="none" stroke="black" d="M2150.61,-359.7C2156.6,-351.47 2163.88,-341.48 2170.48,-332.42"/>
<polygon fill="black" stroke="black" points="2173.48,-334.25 2176.54,-324.1 2167.82,-330.13 2173.48,-334.25"/>
</g>
<!-- [root] module.servidores_ec2 (close) -->
<g id="node26" class="node">
<title>[root] module.servidores_ec2 (close)</title>
<ellipse fill="none" stroke="black" cx="2138" cy="-594" rx="178.97" ry="18"/>
<text text-anchor="middle" x="2138" y="-590.3" font-family="Times,serif" font-size="14.00">[root] module.servidores_ec2 (close)</text>
</g>
<!-- [root] module.servidores_ec2 (close)&#45;&gt;[root] module.servidores_ec2.output.instancia_ids (expand) -->
<g id="edge32" class="edge">
<title>[root] module.servidores_ec2 (close)&#45;&gt;[root] module.servidores_ec2.output.instancia_ids (expand)</title>
<path fill="none" stroke="black" d="M2138,-575.85C2138,-538.83 2138,-451.18 2138,-406.39"/>
<polygon fill="black" stroke="black" points="2141.5,-406.23 2138,-396.23 2134.5,-406.23 2141.5,-406.23"/>
</g>
<!-- [root] module.servidores_ec2.output.dns_publica_servidores (expand) -->
<g id="node27" class="node">
<title>[root] module.servidores_ec2.output.dns_publica_servidores (expand)</title>
<ellipse fill="none" stroke="black" cx="2499" cy="-522" rx="333.34" ry="18"/>
<text text-anchor="middle" x="2499" y="-518.3" font-family="Times,serif" font-size="14.00">[root] module.servidores_ec2.output.dns_publica_servidores (expand)</text>
</g>
<!-- [root] module.servidores_ec2 (close)&#45;&gt;[root] module.servidores_ec2.output.dns_publica_servidores (expand) -->
<g id="edge31" class="edge">
<title>[root] module.servidores_ec2 (close)&#45;&gt;[root] module.servidores_ec2.output.dns_publica_servidores (expand)</title>
<path fill="none" stroke="black" d="M2216.33,-577.81C2271.51,-567.11 2345.69,-552.73 2404.21,-541.38"/>
<polygon fill="black" stroke="black" points="2405.06,-544.78 2414.21,-539.44 2403.72,-537.91 2405.06,-544.78"/>
</g>
<!-- [root] module.servidores_ec2.output.ipv4_servidores (expand) -->
<g id="node28" class="node">
<title>[root] module.servidores_ec2.output.ipv4_servidores (expand)</title>
<ellipse fill="none" stroke="black" cx="1811" cy="-522" rx="298.95" ry="18"/>
<text text-anchor="middle" x="1811" y="-518.3" font-family="Times,serif" font-size="14.00">[root] module.servidores_ec2.output.ipv4_servidores (expand)</text>
</g>
<!-- [root] module.servidores_ec2 (close)&#45;&gt;[root] module.servidores_ec2.output.ipv4_servidores (expand) -->
<g id="edge33" class="edge">
<title>[root] module.servidores_ec2 (close)&#45;&gt;[root] module.servidores_ec2.output.ipv4_servidores (expand)</title>
<path fill="none" stroke="black" d="M2065.43,-577.46C2015.85,-566.85 1949.9,-552.73 1897.58,-541.53"/>
<polygon fill="black" stroke="black" points="1898.15,-538.08 1887.64,-539.41 1896.68,-544.92 1898.15,-538.08"/>
</g>
<!-- [root] module.servidores_ec2.output.dns_publica_servidores (expand)&#45;&gt;[root] module.servidores_ec2.aws_instance.servidor (expand) -->
<g id="edge40" class="edge">
<title>[root] module.servidores_ec2.output.dns_publica_servidores (expand)&#45;&gt;[root] module.servidores_ec2.aws_instance.servidor (expand)</title>
<path fill="none" stroke="black" d="M2497.16,-503.87C2492.65,-470.7 2477.91,-397.66 2433,-360 2415.94,-345.7 2373.29,-334.34 2328.33,-325.86"/>
<polygon fill="black" stroke="black" points="2328.88,-322.41 2318.41,-324.05 2327.61,-329.29 2328.88,-322.41"/>
</g>
<!-- [root] module.servidores_ec2.output.ipv4_servidores (expand)&#45;&gt;[root] module.servidores_ec2.aws_instance.servidor (expand) -->
<g id="edge42" class="edge">
<title>[root] module.servidores_ec2.output.ipv4_servidores (expand)&#45;&gt;[root] module.servidores_ec2.aws_instance.servidor (expand)</title>
<path fill="none" stroke="black" d="M1808.69,-503.97C1805.27,-470.97 1803.05,-398.22 1843,-360 1856.21,-347.36 1933.47,-334.89 2011.64,-325.23"/>
<polygon fill="black" stroke="black" points="2012.17,-328.69 2021.67,-324 2011.32,-321.74 2012.17,-328.69"/>
</g>
<!-- [root] module.servidores_ec2.var.ami_id (expand)&#45;&gt;[root] var.ubuntu_ami -->
<g id="edge45" class="edge">
<title>[root] module.servidores_ec2.var.ami_id (expand)&#45;&gt;[root] var.ubuntu_ami</title>
<path fill="none" stroke="black" d="M2896.51,-144.23C2923.03,-134.46 2956.68,-122.07 2984.83,-111.69"/>
<polygon fill="black" stroke="black" points="2986.37,-114.86 2994.54,-108.12 2983.95,-108.29 2986.37,-114.86"/>
</g>
<!-- [root] module.servidores_ec2.var.ami_id (expand)&#45;&gt;[root] local.region (expand) -->
<g id="edge43" class="edge">
<title>[root] module.servidores_ec2.var.ami_id (expand)&#45;&gt;[root] local.region (expand)</title>
<path fill="none" stroke="black" d="M2851,-143.87C2851,-119.67 2851,-75.21 2851,-46.39"/>
<polygon fill="black" stroke="black" points="2854.5,-46.19 2851,-36.19 2847.5,-46.19 2854.5,-46.19"/>
</g>
<!-- [root] module.servidores_ec2 (expand) -->
<g id="node33" class="node">
<title>[root] module.servidores_ec2 (expand)</title>
<ellipse fill="none" stroke="black" cx="2225" cy="-90" rx="189.27" ry="18"/>
<text text-anchor="middle" x="2225" y="-86.3" font-family="Times,serif" font-size="14.00">[root] module.servidores_ec2 (expand)</text>
</g>
<!-- [root] module.servidores_ec2.var.ami_id (expand)&#45;&gt;[root] module.servidores_ec2 (expand) -->
<g id="edge44" class="edge">
<title>[root] module.servidores_ec2.var.ami_id (expand)&#45;&gt;[root] module.servidores_ec2 (expand)</title>
<path fill="none" stroke="black" d="M2723.57,-146.75C2615.32,-134.65 2460.73,-117.36 2352.47,-105.25"/>
<polygon fill="black" stroke="black" points="2352.8,-101.77 2342.47,-104.14 2352.02,-108.73 2352.8,-101.77"/>
</g>
<!-- [root] module.servidores_ec2.var.servidores (expand)&#45;&gt;[root] data.aws_subnet.public_subnet (expand) -->
<g id="edge48" class="edge">
<title>[root] module.servidores_ec2.var.servidores (expand)&#45;&gt;[root] data.aws_subnet.public_subnet (expand)</title>
<path fill="none" stroke="black" d="M1907.85,-221.32C1774.31,-212.16 1588.76,-198.12 1416.56,-180.14"/>
<polygon fill="black" stroke="black" points="1416.86,-176.65 1406.55,-179.08 1416.13,-183.61 1416.86,-176.65"/>
</g>
<!-- [root] module.servidores_ec2.var.servidores (expand)&#45;&gt;[root] module.servidores_ec2 (expand) -->
<g id="edge49" class="edge">
<title>[root] module.servidores_ec2.var.servidores (expand)&#45;&gt;[root] module.servidores_ec2 (expand)</title>
<path fill="none" stroke="black" d="M2068.16,-215.93C2046.3,-197.51 2019.11,-167.63 2037,-144 2048.49,-128.83 2086.04,-116.77 2124.59,-108.02"/>
<polygon fill="black" stroke="black" points="2125.38,-111.42 2134.4,-105.86 2123.88,-104.59 2125.38,-111.42"/>
</g>
<!-- [root] module.servidores_ec2.var.tipo_instancia (expand)&#45;&gt;[root] module.servidores_ec2 (expand) -->
<g id="edge50" class="edge">
<title>[root] module.servidores_ec2.var.tipo_instancia (expand)&#45;&gt;[root] module.servidores_ec2 (expand)</title>
<path fill="none" stroke="black" d="M2297,-144.05C2284.84,-135.09 2269.73,-123.96 2256.49,-114.2"/>
<polygon fill="black" stroke="black" points="2258.24,-111.15 2248.11,-108.03 2254.09,-116.78 2258.24,-111.15"/>
</g>
<!-- [root] module.servidores_ec2.var.puerto_servidor (expand)&#45;&gt;[root] local.puerto_servidor (expand) -->
<g id="edge46" class="edge">
<title>[root] module.servidores_ec2.var.puerto_servidor (expand)&#45;&gt;[root] local.puerto_servidor (expand)</title>
<path fill="none" stroke="black" d="M1682.55,-144.05C1669.5,-135.01 1653.25,-123.74 1639.08,-113.93"/>
<polygon fill="black" stroke="black" points="1640.79,-110.85 1630.57,-108.03 1636.8,-116.6 1640.79,-110.85"/>
</g>
<!-- [root] module.servidores_ec2.var.puerto_servidor (expand)&#45;&gt;[root] module.servidores_ec2 (expand) -->
<g id="edge47" class="edge">
<title>[root] module.servidores_ec2.var.puerto_servidor (expand)&#45;&gt;[root] module.servidores_ec2 (expand)</title>
<path fill="none" stroke="black" d="M1821.64,-145.51C1907.64,-133.89 2024.83,-118.05 2110.73,-106.44"/>
<polygon fill="black" stroke="black" points="2111.34,-109.89 2120.79,-105.08 2110.41,-102.95 2111.34,-109.89"/>
</g>
<!-- [root] output.dns_load_balancer (expand) -->
<g id="node34" class="node">
<title>[root] output.dns_load_balancer (expand)</title>
<ellipse fill="none" stroke="black" cx="375" cy="-594" rx="201.46" ry="18"/>
<text text-anchor="middle" x="375" y="-590.3" font-family="Times,serif" font-size="14.00">[root] output.dns_load_balancer (expand)</text>
</g>
<!-- [root] output.dns_load_balancer (expand)&#45;&gt;[root] module.load_balancer.output.dns_load_balancer (expand) -->
<g id="edge51" class="edge">
<title>[root] output.dns_load_balancer (expand)&#45;&gt;[root] module.load_balancer.output.dns_load_balancer (expand)</title>
<path fill="none" stroke="black" d="M371.04,-575.7C369.28,-567.98 367.16,-558.71 365.2,-550.11"/>
<polygon fill="black" stroke="black" points="368.55,-549.07 362.91,-540.1 361.73,-550.63 368.55,-549.07"/>
</g>
<!-- [root] output.dns_publica_servidores (expand) -->
<g id="node35" class="node">
<title>[root] output.dns_publica_servidores (expand)</title>
<ellipse fill="none" stroke="black" cx="2559" cy="-594" rx="224.46" ry="18"/>
<text text-anchor="middle" x="2559" y="-590.3" font-family="Times,serif" font-size="14.00">[root] output.dns_publica_servidores (expand)</text>
</g>
<!-- [root] output.dns_publica_servidores (expand)&#45;&gt;[root] module.servidores_ec2.output.dns_publica_servidores (expand) -->
<g id="edge52" class="edge">
<title>[root] output.dns_publica_servidores (expand)&#45;&gt;[root] module.servidores_ec2.output.dns_publica_servidores (expand)</title>
<path fill="none" stroke="black" d="M2544.17,-575.7C2536.98,-567.3 2528.2,-557.07 2520.31,-547.86"/>
<polygon fill="black" stroke="black" points="2522.83,-545.42 2513.66,-540.1 2517.51,-549.97 2522.83,-545.42"/>
</g>
<!-- [root] output.ipv4_servidores (expand) -->
<g id="node36" class="node">
<title>[root] output.ipv4_servidores (expand)</title>
<ellipse fill="none" stroke="black" cx="1751" cy="-594" rx="189.57" ry="18"/>
<text text-anchor="middle" x="1751" y="-590.3" font-family="Times,serif" font-size="14.00">[root] output.ipv4_servidores (expand)</text>
</g>
<!-- [root] output.ipv4_servidores (expand)&#45;&gt;[root] module.servidores_ec2.output.ipv4_servidores (expand) -->
<g id="edge53" class="edge">
<title>[root] output.ipv4_servidores (expand)&#45;&gt;[root] module.servidores_ec2.output.ipv4_servidores (expand)</title>
<path fill="none" stroke="black" d="M1765.83,-575.7C1773.02,-567.3 1781.8,-557.07 1789.69,-547.86"/>
<polygon fill="black" stroke="black" points="1792.49,-549.97 1796.34,-540.1 1787.17,-545.42 1792.49,-549.97"/>
</g>
<!-- [root] provider[&quot;registry.terraform.io/hashicorp/aws&quot;] (close) -->
<g id="node37" class="node">
<title>[root] provider[&quot;registry.terraform.io/hashicorp/aws&quot;] (close)</title>
<ellipse fill="none" stroke="black" cx="1251" cy="-594" rx="291.65" ry="18"/>
<text text-anchor="middle" x="1251" y="-590.3" font-family="Times,serif" font-size="14.00">[root] provider[&quot;registry.terraform.io/hashicorp/aws&quot;] (close)</text>
</g>
<!-- [root] provider[&quot;registry.terraform.io/hashicorp/aws&quot;] (close)&#45;&gt;[root] module.load_balancer.aws_lb_listener.this (expand) -->
<g id="edge54" class="edge">
<title>[root] provider[&quot;registry.terraform.io/hashicorp/aws&quot;] (close)&#45;&gt;[root] module.load_balancer.aws_lb_listener.this (expand)</title>
<path fill="none" stroke="black" d="M1156.25,-576.94C1094.42,-566.46 1013.47,-552.74 948.69,-541.76"/>
<polygon fill="black" stroke="black" points="948.88,-538.24 938.43,-540.02 947.71,-545.14 948.88,-538.24"/>
</g>
<!-- [root] provider[&quot;registry.terraform.io/hashicorp/aws&quot;] (close)&#45;&gt;[root] module.load_balancer.aws_lb_target_group_attachment.servidor (expand) -->
<g id="edge55" class="edge">
<title>[root] provider[&quot;registry.terraform.io/hashicorp/aws&quot;] (close)&#45;&gt;[root] module.load_balancer.aws_lb_target_group_attachment.servidor (expand)</title>
<path fill="none" stroke="black" d="M1251,-575.7C1251,-567.98 1251,-558.71 1251,-550.11"/>
<polygon fill="black" stroke="black" points="1254.5,-550.1 1251,-540.1 1247.5,-550.1 1254.5,-550.1"/>
</g>
<!-- [root] root -->
<g id="node38" class="node">
<title>[root] root</title>
<ellipse fill="none" stroke="black" cx="1501" cy="-666" rx="58.49" ry="18"/>
<text text-anchor="middle" x="1501" y="-662.3" font-family="Times,serif" font-size="14.00">[root] root</text>
</g>
<!-- [root] root&#45;&gt;[root] var.puerto_servidor -->
<g id="edge64" class="edge">
<title>[root] root&#45;&gt;[root] var.puerto_servidor</title>
<path fill="none" stroke="black" d="M1442.7,-663.88C1222.18,-659.45 438.29,-642.01 166.4,-612.02"/>
<polygon fill="black" stroke="black" points="166.5,-608.51 156.17,-610.86 165.71,-615.47 166.5,-608.51"/>
</g>
<!-- [root] root&#45;&gt;[root] local.ami (expand) -->
<g id="edge57" class="edge">
<title>[root] root&#45;&gt;[root] local.ami (expand)</title>
<path fill="none" stroke="black" d="M1559.62,-665.09C1796.85,-665.11 2678.37,-661.82 2792,-612 2843.23,-589.54 2881,-578.94 2881,-523 2881,-523 2881,-523 2881,-305 2881,-247.13 3047.03,-201.69 3150.72,-178.96"/>
<polygon fill="black" stroke="black" points="3151.51,-182.37 3160.55,-176.83 3150.03,-175.53 3151.51,-182.37"/>
</g>
<!-- [root] root&#45;&gt;[root] module.load_balancer (close) -->
<g id="edge58" class="edge">
<title>[root] root&#45;&gt;[root] module.load_balancer (close)</title>
<path fill="none" stroke="black" d="M1445.91,-659.74C1331.11,-648.78 1063.51,-623.22 900.96,-607.7"/>
<polygon fill="black" stroke="black" points="901.18,-604.2 890.89,-606.74 900.52,-611.17 901.18,-604.2"/>
</g>
<!-- [root] root&#45;&gt;[root] module.servidores_ec2 (close) -->
<g id="edge59" class="edge">
<title>[root] root&#45;&gt;[root] module.servidores_ec2 (close)</title>
<path fill="none" stroke="black" d="M1555.04,-659.06C1655.34,-648.04 1872.74,-624.15 2011.86,-608.86"/>
<polygon fill="black" stroke="black" points="2012.6,-612.3 2022.16,-607.73 2011.83,-605.34 2012.6,-612.3"/>
</g>
<!-- [root] root&#45;&gt;[root] output.dns_load_balancer (expand) -->
<g id="edge60" class="edge">
<title>[root] root&#45;&gt;[root] output.dns_load_balancer (expand)</title>
<path fill="none" stroke="black" d="M1443.63,-662.14C1299.32,-654.84 909.58,-634.52 585,-612 565.96,-610.68 545.95,-609.19 526.17,-607.66"/>
<polygon fill="black" stroke="black" points="526.41,-604.16 516.17,-606.88 525.86,-611.14 526.41,-604.16"/>
</g>
<!-- [root] root&#45;&gt;[root] output.dns_publica_servidores (expand) -->
<g id="edge61" class="edge">
<title>[root] root&#45;&gt;[root] output.dns_publica_servidores (expand)</title>
<path fill="none" stroke="black" d="M1558.02,-661.51C1692.03,-653.26 2037.48,-631.79 2326,-612 2346.78,-610.57 2368.61,-609.04 2390.22,-607.49"/>
<polygon fill="black" stroke="black" points="2390.74,-610.96 2400.46,-606.75 2390.24,-603.98 2390.74,-610.96"/>
</g>
<!-- [root] root&#45;&gt;[root] output.ipv4_servidores (expand) -->
<g id="edge62" class="edge">
<title>[root] root&#45;&gt;[root] output.ipv4_servidores (expand)</title>
<path fill="none" stroke="black" d="M1542.84,-653.28C1581.18,-642.55 1638.6,-626.47 1683.43,-613.92"/>
<polygon fill="black" stroke="black" points="1684.4,-617.28 1693.09,-611.22 1682.51,-610.54 1684.4,-617.28"/>
</g>
<!-- [root] root&#45;&gt;[root] provider[&quot;registry.terraform.io/hashicorp/aws&quot;] (close) -->
<g id="edge63" class="edge">
<title>[root] root&#45;&gt;[root] provider[&quot;registry.terraform.io/hashicorp/aws&quot;] (close)</title>
<path fill="none" stroke="black" d="M1459.16,-653.28C1421.42,-642.72 1365.18,-626.97 1320.67,-614.51"/>
<polygon fill="black" stroke="black" points="1321.36,-611.07 1310.79,-611.74 1319.47,-617.81 1321.36,-611.07"/>
</g>
</g>
</svg>
