<?xml version="1.0" encoding="UTF-8" standalone="no"?>
<!DOCTYPE svg PUBLIC "-//W3C//DTD SVG 1.1//EN"
 "http://www.w3.org/Graphics/SVG/1.1/DTD/svg11.dtd">
<!-- Generated by graphviz version 2.43.0 (0)
 -->
<!-- Title: %3 Pages: 1 -->
<svg width="2410pt" height="620pt"
 viewBox="0.00 0.00 2409.78 620.00" xmlns="http://www.w3.org/2000/svg" xmlns:xlink="http://www.w3.org/1999/xlink">
<g id="graph0" class="graph" transform="scale(1 1) rotate(0) translate(4 616)">
<title>%3</title>
<polygon fill="white" stroke="transparent" points="-4,4 -4,-616 2405.78,-616 2405.78,4 -4,4"/>
<!-- [root] aws_instance.servidor_smavo_I (expand) -->
<g id="node1" class="node">
<title>[root] aws_instance.servidor_smavo_I (expand)</title>
<polygon fill="none" stroke="black" points="1184.28,-396 945.28,-396 945.28,-360 1184.28,-360 1184.28,-396"/>
<text text-anchor="middle" x="1064.78" y="-374.3" font-family="Times,serif" font-size="14.00">aws_instance.servidor_smavo_I</text>
</g>
<!-- [root] aws_security_group.mi_sg (expand) -->
<g id="node9" class="node">
<title>[root] aws_security_group.mi_sg (expand)</title>
<polygon fill="none" stroke="black" points="1440.28,-324 1237.28,-324 1237.28,-288 1440.28,-288 1440.28,-324"/>
<text text-anchor="middle" x="1338.78" y="-302.3" font-family="Times,serif" font-size="14.00">aws_security_group.mi_sg</text>
</g>
<!-- [root] aws_instance.servidor_smavo_I (expand)&#45;&gt;[root] aws_security_group.mi_sg (expand) -->
<g id="edge1" class="edge">
<title>[root] aws_instance.servidor_smavo_I (expand)&#45;&gt;[root] aws_security_group.mi_sg (expand)</title>
<path fill="none" stroke="black" d="M1131.46,-359.97C1170.91,-349.89 1221.03,-337.08 1262.11,-326.59"/>
<polygon fill="black" stroke="black" points="1262.98,-329.98 1271.81,-324.11 1261.25,-323.2 1262.98,-329.98"/>
</g>
<!-- [root] data.aws_subnet.az_b (expand) -->
<g id="node10" class="node">
<title>[root] data.aws_subnet.az_b (expand)</title>
<polygon fill="none" stroke="black" points="1630.78,-324 1458.78,-324 1458.78,-288 1630.78,-288 1630.78,-324"/>
<text text-anchor="middle" x="1544.78" y="-302.3" font-family="Times,serif" font-size="14.00">data.aws_subnet.az_b</text>
</g>
<!-- [root] aws_instance.servidor_smavo_I (expand)&#45;&gt;[root] data.aws_subnet.az_b (expand) -->
<g id="edge2" class="edge">
<title>[root] aws_instance.servidor_smavo_I (expand)&#45;&gt;[root] data.aws_subnet.az_b (expand)</title>
<path fill="none" stroke="black" d="M1184.63,-361.77C1258.1,-352.12 1354.31,-338.96 1448.59,-324.16"/>
<polygon fill="black" stroke="black" points="1449.26,-327.59 1458.6,-322.58 1448.17,-320.68 1449.26,-327.59"/>
</g>
<!-- [root] var.instanceType -->
<g id="node14" class="node">
<title>[root] var.instanceType</title>
<polygon fill="none" stroke="black" points="758.28,-324 627.28,-324 627.28,-288 764.28,-288 764.28,-318 758.28,-324"/>
<polyline fill="none" stroke="black" points="758.28,-324 758.28,-318 "/>
<polyline fill="none" stroke="black" points="764.28,-318 758.28,-318 "/>
<text text-anchor="middle" x="695.78" y="-302.3" font-family="Times,serif" font-size="14.00">var.instanceType</text>
</g>
<!-- [root] aws_instance.servidor_smavo_I (expand)&#45;&gt;[root] var.instanceType -->
<g id="edge4" class="edge">
<title>[root] aws_instance.servidor_smavo_I (expand)&#45;&gt;[root] var.instanceType</title>
<path fill="none" stroke="black" d="M966.63,-359.99C912.67,-350.43 844.32,-337.99 774.52,-324.11"/>
<polygon fill="black" stroke="black" points="775.15,-320.67 764.66,-322.15 773.78,-327.54 775.15,-320.67"/>
</g>
<!-- [root] local.ami (expand) -->
<g id="node19" class="node">
<title>[root] local.ami (expand)</title>
<ellipse fill="none" stroke="black" cx="906.78" cy="-306" rx="124.28" ry="18"/>
<text text-anchor="middle" x="906.78" y="-302.3" font-family="Times,serif" font-size="14.00">[root] local.ami (expand)</text>
</g>
<!-- [root] aws_instance.servidor_smavo_I (expand)&#45;&gt;[root] local.ami (expand) -->
<g id="edge3" class="edge">
<title>[root] aws_instance.servidor_smavo_I (expand)&#45;&gt;[root] local.ami (expand)</title>
<path fill="none" stroke="black" d="M1026.13,-359.88C1003.97,-350.06 976.02,-337.67 952.74,-327.36"/>
<polygon fill="black" stroke="black" points="953.97,-324.08 943.41,-323.23 951.13,-330.48 953.97,-324.08"/>
</g>
<!-- [root] aws_instance.servidor_smavo_II (expand) -->
<g id="node2" class="node">
<title>[root] aws_instance.servidor_smavo_II (expand)</title>
<polygon fill="none" stroke="black" points="818.28,-396 573.28,-396 573.28,-360 818.28,-360 818.28,-396"/>
<text text-anchor="middle" x="695.78" y="-374.3" font-family="Times,serif" font-size="14.00">aws_instance.servidor_smavo_II</text>
</g>
<!-- [root] aws_instance.servidor_smavo_II (expand)&#45;&gt;[root] aws_security_group.mi_sg (expand) -->
<g id="edge5" class="edge">
<title>[root] aws_instance.servidor_smavo_II (expand)&#45;&gt;[root] aws_security_group.mi_sg (expand)</title>
<path fill="none" stroke="black" d="M818.54,-366.62C924.08,-357.26 1080.59,-342.37 1227.11,-324.05"/>
<polygon fill="black" stroke="black" points="1227.7,-327.5 1237.19,-322.78 1226.83,-320.55 1227.7,-327.5"/>
</g>
<!-- [root] data.aws_subnet.az_c (expand) -->
<g id="node11" class="node">
<title>[root] data.aws_subnet.az_c (expand)</title>
<polygon fill="none" stroke="black" points="1218.78,-324 1048.78,-324 1048.78,-288 1218.78,-288 1218.78,-324"/>
<text text-anchor="middle" x="1133.78" y="-302.3" font-family="Times,serif" font-size="14.00">data.aws_subnet.az_c</text>
</g>
<!-- [root] aws_instance.servidor_smavo_II (expand)&#45;&gt;[root] data.aws_subnet.az_c (expand) -->
<g id="edge6" class="edge">
<title>[root] aws_instance.servidor_smavo_II (expand)&#45;&gt;[root] data.aws_subnet.az_c (expand)</title>
<path fill="none" stroke="black" d="M811.35,-359.96C875.56,-350.31 957.14,-337.75 1038.79,-324.15"/>
<polygon fill="black" stroke="black" points="1039.46,-327.58 1048.75,-322.48 1038.31,-320.68 1039.46,-327.58"/>
</g>
<!-- [root] aws_instance.servidor_smavo_II (expand)&#45;&gt;[root] var.instanceType -->
<g id="edge7" class="edge">
<title>[root] aws_instance.servidor_smavo_II (expand)&#45;&gt;[root] var.instanceType</title>
<path fill="none" stroke="black" d="M695.78,-359.7C695.78,-351.98 695.78,-342.71 695.78,-334.11"/>
<polygon fill="black" stroke="black" points="699.28,-334.1 695.78,-324.1 692.28,-334.1 699.28,-334.1"/>
</g>
<!-- [root] var.ubuntu_ami -->
<g id="node18" class="node">
<title>[root] var.ubuntu_ami</title>
<polygon fill="none" stroke="black" points="780.28,-252 659.28,-252 659.28,-216 786.28,-216 786.28,-246 780.28,-252"/>
<polyline fill="none" stroke="black" points="780.28,-252 780.28,-246 "/>
<polyline fill="none" stroke="black" points="786.28,-246 780.28,-246 "/>
<text text-anchor="middle" x="722.78" y="-230.3" font-family="Times,serif" font-size="14.00">var.ubuntu_ami</text>
</g>
<!-- [root] aws_instance.servidor_smavo_II (expand)&#45;&gt;[root] var.ubuntu_ami -->
<g id="edge8" class="edge">
<title>[root] aws_instance.servidor_smavo_II (expand)&#45;&gt;[root] var.ubuntu_ami</title>
<path fill="none" stroke="black" d="M655.6,-359.77C640.95,-351.28 625.98,-339.48 617.78,-324 610.3,-309.86 609.4,-301.63 617.78,-288 626.08,-274.52 638.98,-264.34 652.93,-256.71"/>
<polygon fill="black" stroke="black" points="654.85,-259.66 662.22,-252.04 651.71,-253.4 654.85,-259.66"/>
</g>
<!-- [root] aws_lb.albApplicacion (expand) -->
<g id="node3" class="node">
<title>[root] aws_lb.albApplicacion (expand)</title>
<polygon fill="none" stroke="black" points="1631.28,-396 1458.28,-396 1458.28,-360 1631.28,-360 1631.28,-396"/>
<text text-anchor="middle" x="1544.78" y="-374.3" font-family="Times,serif" font-size="14.00">aws_lb.albApplicacion</text>
</g>
<!-- [root] aws_security_group.alb_sg (expand) -->
<g id="node8" class="node">
<title>[root] aws_security_group.alb_sg (expand)</title>
<polygon fill="none" stroke="black" points="1714.28,-252 1507.28,-252 1507.28,-216 1714.28,-216 1714.28,-252"/>
<text text-anchor="middle" x="1610.78" y="-230.3" font-family="Times,serif" font-size="14.00">aws_security_group.alb_sg</text>
</g>
<!-- [root] aws_lb.albApplicacion (expand)&#45;&gt;[root] aws_security_group.alb_sg (expand) -->
<g id="edge9" class="edge">
<title>[root] aws_lb.albApplicacion (expand)&#45;&gt;[root] aws_security_group.alb_sg (expand)</title>
<path fill="none" stroke="black" d="M1597.47,-359.84C1613.96,-351.7 1630.32,-340.12 1639.78,-324 1651.38,-304.25 1641.42,-279.27 1630.12,-260.81"/>
<polygon fill="black" stroke="black" points="1632.97,-258.76 1624.56,-252.32 1627.11,-262.6 1632.97,-258.76"/>
</g>
<!-- [root] aws_lb.albApplicacion (expand)&#45;&gt;[root] data.aws_subnet.az_b (expand) -->
<g id="edge10" class="edge">
<title>[root] aws_lb.albApplicacion (expand)&#45;&gt;[root] data.aws_subnet.az_b (expand)</title>
<path fill="none" stroke="black" d="M1544.78,-359.7C1544.78,-351.98 1544.78,-342.71 1544.78,-334.11"/>
<polygon fill="black" stroke="black" points="1548.28,-334.1 1544.78,-324.1 1541.28,-334.1 1548.28,-334.1"/>
</g>
<!-- [root] aws_lb.albApplicacion (expand)&#45;&gt;[root] data.aws_subnet.az_c (expand) -->
<g id="edge11" class="edge">
<title>[root] aws_lb.albApplicacion (expand)&#45;&gt;[root] data.aws_subnet.az_c (expand)</title>
<path fill="none" stroke="black" d="M1458.23,-362.74C1397.12,-352.62 1313.03,-338.56 1228.96,-324.02"/>
<polygon fill="black" stroke="black" points="1229.42,-320.55 1218.97,-322.29 1228.23,-327.45 1229.42,-320.55"/>
</g>
<!-- [root] aws_lb_listener.listenerThis (expand) -->
<g id="node4" class="node">
<title>[root] aws_lb_listener.listenerThis (expand)</title>
<polygon fill="none" stroke="black" points="2401.78,-468 2187.78,-468 2187.78,-432 2401.78,-432 2401.78,-468"/>
<text text-anchor="middle" x="2294.78" y="-446.3" font-family="Times,serif" font-size="14.00">aws_lb_listener.listenerThis</text>
</g>
<!-- [root] aws_lb_listener.listenerThis (expand)&#45;&gt;[root] aws_lb.albApplicacion (expand) -->
<g id="edge12" class="edge">
<title>[root] aws_lb_listener.listenerThis (expand)&#45;&gt;[root] aws_lb.albApplicacion (expand)</title>
<path fill="none" stroke="black" d="M2187.69,-433C2184.69,-432.65 2181.72,-432.31 2178.78,-432 1944.91,-406.93 1884.48,-422.65 1650.78,-396 1647.73,-395.65 1644.64,-395.28 1641.51,-394.88"/>
<polygon fill="black" stroke="black" points="1641.84,-391.4 1631.47,-393.56 1640.92,-398.34 1641.84,-391.4"/>
</g>
<!-- [root] aws_lb_target_group.targetThis (expand) -->
<g id="node5" class="node">
<title>[root] aws_lb_target_group.targetThis (expand)</title>
<polygon fill="none" stroke="black" points="1902.28,-396 1659.28,-396 1659.28,-360 1902.28,-360 1902.28,-396"/>
<text text-anchor="middle" x="1780.78" y="-374.3" font-family="Times,serif" font-size="14.00">aws_lb_target_group.targetThis</text>
</g>
<!-- [root] aws_lb_listener.listenerThis (expand)&#45;&gt;[root] aws_lb_target_group.targetThis (expand) -->
<g id="edge13" class="edge">
<title>[root] aws_lb_listener.listenerThis (expand)&#45;&gt;[root] aws_lb_target_group.targetThis (expand)</title>
<path fill="none" stroke="black" d="M2187.66,-433.25C2184.67,-432.83 2181.71,-432.41 2178.78,-432 2090.09,-419.6 1990.17,-406.29 1912.64,-396.12"/>
<polygon fill="black" stroke="black" points="1912.7,-392.6 1902.33,-394.77 1911.79,-399.54 1912.7,-392.6"/>
</g>
<!-- [root] data.aws_vpc.default (expand) -->
<g id="node12" class="node">
<title>[root] data.aws_vpc.default (expand)</title>
<polygon fill="none" stroke="black" points="1697.28,-180 1530.28,-180 1530.28,-144 1697.28,-144 1697.28,-180"/>
<text text-anchor="middle" x="1613.78" y="-158.3" font-family="Times,serif" font-size="14.00">data.aws_vpc.default</text>
</g>
<!-- [root] aws_lb_target_group.targetThis (expand)&#45;&gt;[root] data.aws_vpc.default (expand) -->
<g id="edge14" class="edge">
<title>[root] aws_lb_target_group.targetThis (expand)&#45;&gt;[root] data.aws_vpc.default (expand)</title>
<path fill="none" stroke="black" d="M1779,-359.79C1774.85,-327.75 1761.79,-258.38 1723.78,-216 1711.77,-202.61 1695.64,-192.27 1679.44,-184.44"/>
<polygon fill="black" stroke="black" points="1680.47,-181.06 1669.92,-180.11 1677.58,-187.43 1680.47,-181.06"/>
</g>
<!-- [root] var.puerto_lb -->
<g id="node15" class="node">
<title>[root] var.puerto_lb</title>
<polygon fill="none" stroke="black" points="1825.78,-180 1721.78,-180 1721.78,-144 1831.78,-144 1831.78,-174 1825.78,-180"/>
<polyline fill="none" stroke="black" points="1825.78,-180 1825.78,-174 "/>
<polyline fill="none" stroke="black" points="1831.78,-174 1825.78,-174 "/>
<text text-anchor="middle" x="1776.78" y="-158.3" font-family="Times,serif" font-size="14.00">var.puerto_lb</text>
</g>
<!-- [root] aws_lb_target_group.targetThis (expand)&#45;&gt;[root] var.puerto_lb -->
<g id="edge15" class="edge">
<title>[root] aws_lb_target_group.targetThis (expand)&#45;&gt;[root] var.puerto_lb</title>
<path fill="none" stroke="black" d="M1780.46,-359.85C1779.77,-322.83 1778.13,-235.18 1777.3,-190.39"/>
<polygon fill="black" stroke="black" points="1780.79,-190.17 1777.11,-180.23 1773.79,-190.3 1780.79,-190.17"/>
</g>
<!-- [root] aws_lb_target_group_attachment.server_1 (expand) -->
<g id="node6" class="node">
<title>[root] aws_lb_target_group_attachment.server_1 (expand)</title>
<polygon fill="none" stroke="black" points="2169.28,-468 1850.28,-468 1850.28,-432 2169.28,-432 2169.28,-468"/>
<text text-anchor="middle" x="2009.78" y="-446.3" font-family="Times,serif" font-size="14.00">aws_lb_target_group_attachment.server_1</text>
</g>
<!-- [root] aws_lb_target_group_attachment.server_1 (expand)&#45;&gt;[root] aws_instance.servidor_smavo_I (expand) -->
<g id="edge16" class="edge">
<title>[root] aws_lb_target_group_attachment.server_1 (expand)&#45;&gt;[root] aws_instance.servidor_smavo_I (expand)</title>
<path fill="none" stroke="black" d="M1850.18,-432.72C1847.36,-432.48 1844.56,-432.23 1841.78,-432 1614.21,-412.73 1348.67,-395.81 1194.34,-386.54"/>
<polygon fill="black" stroke="black" points="1194.53,-383.04 1184.34,-385.94 1194.11,-390.03 1194.53,-383.04"/>
</g>
<!-- [root] aws_lb_target_group_attachment.server_1 (expand)&#45;&gt;[root] aws_lb_target_group.targetThis (expand) -->
<g id="edge17" class="edge">
<title>[root] aws_lb_target_group_attachment.server_1 (expand)&#45;&gt;[root] aws_lb_target_group.targetThis (expand)</title>
<path fill="none" stroke="black" d="M1954.06,-431.97C1921.64,-422.06 1880.61,-409.51 1846.61,-399.12"/>
<polygon fill="black" stroke="black" points="1847.35,-395.69 1836.76,-396.11 1845.3,-402.38 1847.35,-395.69"/>
</g>
<!-- [root] aws_lb_target_group_attachment.server_2 (expand) -->
<g id="node7" class="node">
<title>[root] aws_lb_target_group_attachment.server_2 (expand)</title>
<polygon fill="none" stroke="black" points="1832.28,-468 1513.28,-468 1513.28,-432 1832.28,-432 1832.28,-468"/>
<text text-anchor="middle" x="1672.78" y="-446.3" font-family="Times,serif" font-size="14.00">aws_lb_target_group_attachment.server_2</text>
</g>
<!-- [root] aws_lb_target_group_attachment.server_2 (expand)&#45;&gt;[root] aws_instance.servidor_smavo_II (expand) -->
<g id="edge18" class="edge">
<title>[root] aws_lb_target_group_attachment.server_2 (expand)&#45;&gt;[root] aws_instance.servidor_smavo_II (expand)</title>
<path fill="none" stroke="black" d="M1513.13,-432.78C1509.99,-432.51 1506.87,-432.25 1503.78,-432 1252.12,-411.36 1188.73,-412.88 936.78,-396 901.74,-393.65 863.84,-391.02 828.7,-388.54"/>
<polygon fill="black" stroke="black" points="828.6,-385.03 818.37,-387.81 828.1,-392.01 828.6,-385.03"/>
</g>
<!-- [root] aws_lb_target_group_attachment.server_2 (expand)&#45;&gt;[root] aws_lb_target_group.targetThis (expand) -->
<g id="edge19" class="edge">
<title>[root] aws_lb_target_group_attachment.server_2 (expand)&#45;&gt;[root] aws_lb_target_group.targetThis (expand)</title>
<path fill="none" stroke="black" d="M1699.2,-431.88C1713.19,-422.81 1730.56,-411.55 1745.67,-401.76"/>
<polygon fill="black" stroke="black" points="1747.77,-404.57 1754.26,-396.19 1743.97,-398.69 1747.77,-404.57"/>
</g>
<!-- [root] aws_security_group.alb_sg (expand)&#45;&gt;[root] data.aws_vpc.default (expand) -->
<g id="edge20" class="edge">
<title>[root] aws_security_group.alb_sg (expand)&#45;&gt;[root] data.aws_vpc.default (expand)</title>
<path fill="none" stroke="black" d="M1611.52,-215.7C1611.86,-207.98 1612.25,-198.71 1612.62,-190.11"/>
<polygon fill="black" stroke="black" points="1616.12,-190.25 1613.05,-180.1 1609.13,-189.95 1616.12,-190.25"/>
</g>
<!-- [root] aws_security_group.alb_sg (expand)&#45;&gt;[root] var.puerto_lb -->
<g id="edge21" class="edge">
<title>[root] aws_security_group.alb_sg (expand)&#45;&gt;[root] var.puerto_lb</title>
<path fill="none" stroke="black" d="M1651.39,-215.88C1674.19,-206.26 1702.81,-194.19 1726.95,-184.01"/>
<polygon fill="black" stroke="black" points="1728.45,-187.18 1736.31,-180.07 1725.73,-180.73 1728.45,-187.18"/>
</g>
<!-- [root] var.puerto_servidor -->
<g id="node16" class="node">
<title>[root] var.puerto_servidor</title>
<polygon fill="none" stroke="black" points="1505.78,-180 1355.78,-180 1355.78,-144 1511.78,-144 1511.78,-174 1505.78,-180"/>
<polyline fill="none" stroke="black" points="1505.78,-180 1505.78,-174 "/>
<polyline fill="none" stroke="black" points="1511.78,-174 1505.78,-174 "/>
<text text-anchor="middle" x="1433.78" y="-158.3" font-family="Times,serif" font-size="14.00">var.puerto_servidor</text>
</g>
<!-- [root] aws_security_group.alb_sg (expand)&#45;&gt;[root] var.puerto_servidor -->
<g id="edge22" class="edge">
<title>[root] aws_security_group.alb_sg (expand)&#45;&gt;[root] var.puerto_servidor</title>
<path fill="none" stroke="black" d="M1567.48,-215.88C1543.07,-206.22 1512.39,-194.09 1486.57,-183.88"/>
<polygon fill="black" stroke="black" points="1487.53,-180.49 1476.94,-180.07 1484.95,-187 1487.53,-180.49"/>
</g>
<!-- [root] aws_security_group.mi_sg (expand)&#45;&gt;[root] aws_security_group.alb_sg (expand) -->
<g id="edge23" class="edge">
<title>[root] aws_security_group.mi_sg (expand)&#45;&gt;[root] aws_security_group.alb_sg (expand)</title>
<path fill="none" stroke="black" d="M1404.97,-287.97C1444.05,-277.91 1493.68,-265.14 1534.41,-254.65"/>
<polygon fill="black" stroke="black" points="1535.48,-257.99 1544.3,-252.11 1533.74,-251.21 1535.48,-257.99"/>
</g>
<!-- [root] provider[&quot;registry.terraform.io/hashicorp/aws&quot;] -->
<g id="node13" class="node">
<title>[root] provider[&quot;registry.terraform.io/hashicorp/aws&quot;]</title>
<polygon fill="none" stroke="black" points="1287.78,-108 962.52,-90 1287.78,-72 1613.05,-90 1287.78,-108"/>
<text text-anchor="middle" x="1287.78" y="-86.3" font-family="Times,serif" font-size="14.00">provider[&quot;registry.terraform.io/hashicorp/aws&quot;]</text>
</g>
<!-- [root] data.aws_subnet.az_b (expand)&#45;&gt;[root] provider[&quot;registry.terraform.io/hashicorp/aws&quot;] -->
<g id="edge24" class="edge">
<title>[root] data.aws_subnet.az_b (expand)&#45;&gt;[root] provider[&quot;registry.terraform.io/hashicorp/aws&quot;]</title>
<path fill="none" stroke="black" d="M1508.37,-287.96C1466.04,-266.89 1395.76,-227.89 1346.78,-180 1327.74,-161.37 1311.48,-135.61 1300.88,-116.59"/>
<polygon fill="black" stroke="black" points="1303.85,-114.73 1296.01,-107.6 1297.7,-118.06 1303.85,-114.73"/>
</g>
<!-- [root] data.aws_subnet.az_c (expand)&#45;&gt;[root] provider[&quot;registry.terraform.io/hashicorp/aws&quot;] -->
<g id="edge25" class="edge">
<title>[root] data.aws_subnet.az_c (expand)&#45;&gt;[root] provider[&quot;registry.terraform.io/hashicorp/aws&quot;]</title>
<path fill="none" stroke="black" d="M1146.13,-287.85C1173.29,-250.1 1238.35,-159.69 1269.96,-115.77"/>
<polygon fill="black" stroke="black" points="1272.81,-117.8 1275.81,-107.64 1267.13,-113.71 1272.81,-117.8"/>
</g>
<!-- [root] data.aws_vpc.default (expand)&#45;&gt;[root] provider[&quot;registry.terraform.io/hashicorp/aws&quot;] -->
<g id="edge26" class="edge">
<title>[root] data.aws_vpc.default (expand)&#45;&gt;[root] provider[&quot;registry.terraform.io/hashicorp/aws&quot;]</title>
<path fill="none" stroke="black" d="M1534.45,-143.97C1481.53,-132.6 1412.47,-117.77 1360.89,-106.7"/>
<polygon fill="black" stroke="black" points="1361.33,-103.21 1350.81,-104.53 1359.86,-110.06 1361.33,-103.21"/>
</g>
<!-- [root] local.region (expand) -->
<g id="node20" class="node">
<title>[root] local.region (expand)</title>
<ellipse fill="none" stroke="black" cx="1131.78" cy="-18" rx="137.28" ry="18"/>
<text text-anchor="middle" x="1131.78" y="-14.3" font-family="Times,serif" font-size="14.00">[root] local.region (expand)</text>
</g>
<!-- [root] provider[&quot;registry.terraform.io/hashicorp/aws&quot;]&#45;&gt;[root] local.region (expand) -->
<g id="edge37" class="edge">
<title>[root] provider[&quot;registry.terraform.io/hashicorp/aws&quot;]&#45;&gt;[root] local.region (expand)</title>
<path fill="none" stroke="black" d="M1253.93,-73.81C1231.62,-63.8 1202.13,-50.57 1177.71,-39.61"/>
<polygon fill="black" stroke="black" points="1178.84,-36.28 1168.29,-35.38 1175.98,-42.67 1178.84,-36.28"/>
</g>
<!-- [root] var.region -->
<g id="node17" class="node">
<title>[root] var.region</title>
<polygon fill="none" stroke="black" points="2065.28,-540 1982.28,-540 1982.28,-504 2071.28,-504 2071.28,-534 2065.28,-540"/>
<polyline fill="none" stroke="black" points="2065.28,-540 2065.28,-534 "/>
<polyline fill="none" stroke="black" points="2071.28,-534 2065.28,-534 "/>
<text text-anchor="middle" x="2026.78" y="-518.3" font-family="Times,serif" font-size="14.00">var.region</text>
</g>
<!-- [root] local.ami (expand)&#45;&gt;[root] var.ubuntu_ami -->
<g id="edge28" class="edge">
<title>[root] local.ami (expand)&#45;&gt;[root] var.ubuntu_ami</title>
<path fill="none" stroke="black" d="M864.57,-288.94C838.66,-279.08 805.21,-266.36 777.31,-255.74"/>
<polygon fill="black" stroke="black" points="778.28,-252.37 767.69,-252.08 775.79,-258.91 778.28,-252.37"/>
</g>
<!-- [root] local.ami (expand)&#45;&gt;[root] local.region (expand) -->
<g id="edge27" class="edge">
<title>[root] local.ami (expand)&#45;&gt;[root] local.region (expand)</title>
<path fill="none" stroke="black" d="M904.79,-287.76C900.87,-245.21 897.01,-134.15 953.78,-72 971.06,-53.09 994.76,-40.81 1019.23,-32.87"/>
<polygon fill="black" stroke="black" points="1020.43,-36.16 1029,-29.93 1018.42,-29.46 1020.43,-36.16"/>
</g>
<!-- [root] output.dns_load_balancer (expand) -->
<g id="node21" class="node">
<title>[root] output.dns_load_balancer (expand)</title>
<ellipse fill="none" stroke="black" cx="1293.78" cy="-450" rx="201.46" ry="18"/>
<text text-anchor="middle" x="1293.78" y="-446.3" font-family="Times,serif" font-size="14.00">[root] output.dns_load_balancer (expand)</text>
</g>
<!-- [root] output.dns_load_balancer (expand)&#45;&gt;[root] aws_lb.albApplicacion (expand) -->
<g id="edge29" class="edge">
<title>[root] output.dns_load_balancer (expand)&#45;&gt;[root] aws_lb.albApplicacion (expand)</title>
<path fill="none" stroke="black" d="M1352,-432.76C1388.29,-422.64 1435.24,-409.55 1473.72,-398.82"/>
<polygon fill="black" stroke="black" points="1475.13,-402.06 1483.82,-396 1473.25,-395.32 1475.13,-402.06"/>
</g>
<!-- [root] output.dns_publica_server_1 (expand) -->
<g id="node22" class="node">
<title>[root] output.dns_publica_server_1 (expand)</title>
<ellipse fill="none" stroke="black" cx="820.78" cy="-450" rx="215.56" ry="18"/>
<text text-anchor="middle" x="820.78" y="-446.3" font-family="Times,serif" font-size="14.00">[root] output.dns_publica_server_1 (expand)</text>
</g>
<!-- [root] output.dns_publica_server_1 (expand)&#45;&gt;[root] aws_instance.servidor_smavo_I (expand) -->
<g id="edge30" class="edge">
<title>[root] output.dns_publica_server_1 (expand)&#45;&gt;[root] aws_instance.servidor_smavo_I (expand)</title>
<path fill="none" stroke="black" d="M877.99,-432.59C913.16,-422.5 958.45,-409.5 995.63,-398.84"/>
<polygon fill="black" stroke="black" points="996.74,-402.16 1005.39,-396.04 994.81,-395.43 996.74,-402.16"/>
</g>
<!-- [root] output.dns_publica_server_2 (expand) -->
<g id="node23" class="node">
<title>[root] output.dns_publica_server_2 (expand)</title>
<ellipse fill="none" stroke="black" cx="613.78" cy="-522" rx="215.56" ry="18"/>
<text text-anchor="middle" x="613.78" y="-518.3" font-family="Times,serif" font-size="14.00">[root] output.dns_publica_server_2 (expand)</text>
</g>
<!-- [root] output.dns_publica_server_2 (expand)&#45;&gt;[root] aws_instance.servidor_smavo_II (expand) -->
<g id="edge31" class="edge">
<title>[root] output.dns_publica_server_2 (expand)&#45;&gt;[root] aws_instance.servidor_smavo_II (expand)</title>
<path fill="none" stroke="black" d="M603.49,-503.71C593.73,-484.82 582.37,-454.29 595.78,-432 603.84,-418.6 616.56,-408.42 630.25,-400.73"/>
<polygon fill="black" stroke="black" points="632.06,-403.73 639.35,-396.04 628.86,-397.51 632.06,-403.73"/>
</g>
<!-- [root] output.ipv4_servidor_1 (expand) -->
<g id="node24" class="node">
<title>[root] output.ipv4_servidor_1 (expand)</title>
<ellipse fill="none" stroke="black" cx="1075.78" cy="-522" rx="189.57" ry="18"/>
<text text-anchor="middle" x="1075.78" y="-518.3" font-family="Times,serif" font-size="14.00">[root] output.ipv4_servidor_1 (expand)</text>
</g>
<!-- [root] output.ipv4_servidor_1 (expand)&#45;&gt;[root] aws_instance.servidor_smavo_I (expand) -->
<g id="edge32" class="edge">
<title>[root] output.ipv4_servidor_1 (expand)&#45;&gt;[root] aws_instance.servidor_smavo_I (expand)</title>
<path fill="none" stroke="black" d="M1074.46,-503.87C1072.58,-479.67 1069.14,-435.21 1066.91,-406.39"/>
<polygon fill="black" stroke="black" points="1070.38,-405.89 1066.11,-396.19 1063.4,-406.43 1070.38,-405.89"/>
</g>
<!-- [root] output.ipv4_servidor_2 (expand) -->
<g id="node25" class="node">
<title>[root] output.ipv4_servidor_2 (expand)</title>
<ellipse fill="none" stroke="black" cx="189.78" cy="-522" rx="189.57" ry="18"/>
<text text-anchor="middle" x="189.78" y="-518.3" font-family="Times,serif" font-size="14.00">[root] output.ipv4_servidor_2 (expand)</text>
</g>
<!-- [root] output.ipv4_servidor_2 (expand)&#45;&gt;[root] aws_instance.servidor_smavo_II (expand) -->
<g id="edge33" class="edge">
<title>[root] output.ipv4_servidor_2 (expand)&#45;&gt;[root] aws_instance.servidor_smavo_II (expand)</title>
<path fill="none" stroke="black" d="M247.83,-504.71C341.16,-478.52 524.3,-427.12 625.1,-398.84"/>
<polygon fill="black" stroke="black" points="626.2,-402.16 634.89,-396.09 624.31,-395.42 626.2,-402.16"/>
</g>
<!-- [root] provider[&quot;registry.terraform.io/hashicorp/aws&quot;] (close) -->
<g id="node26" class="node">
<title>[root] provider[&quot;registry.terraform.io/hashicorp/aws&quot;] (close)</title>
<ellipse fill="none" stroke="black" cx="1672.78" cy="-522" rx="291.65" ry="18"/>
<text text-anchor="middle" x="1672.78" y="-518.3" font-family="Times,serif" font-size="14.00">[root] provider[&quot;registry.terraform.io/hashicorp/aws&quot;] (close)</text>
</g>
<!-- [root] provider[&quot;registry.terraform.io/hashicorp/aws&quot;] (close)&#45;&gt;[root] aws_lb_listener.listenerThis (expand) -->
<g id="edge34" class="edge">
<title>[root] provider[&quot;registry.terraform.io/hashicorp/aws&quot;] (close)&#45;&gt;[root] aws_lb_listener.listenerThis (expand)</title>
<path fill="none" stroke="black" d="M1825.48,-506.66C1923.33,-497.07 2053.3,-483.61 2177.59,-468.12"/>
<polygon fill="black" stroke="black" points="2178.19,-471.58 2187.68,-466.86 2177.32,-464.63 2178.19,-471.58"/>
</g>
<!-- [root] provider[&quot;registry.terraform.io/hashicorp/aws&quot;] (close)&#45;&gt;[root] aws_lb_target_group_attachment.server_1 (expand) -->
<g id="edge35" class="edge">
<title>[root] provider[&quot;registry.terraform.io/hashicorp/aws&quot;] (close)&#45;&gt;[root] aws_lb_target_group_attachment.server_1 (expand)</title>
<path fill="none" stroke="black" d="M1751.79,-504.59C1801.51,-494.26 1865.86,-480.9 1917.86,-470.09"/>
<polygon fill="black" stroke="black" points="1918.67,-473.5 1927.75,-468.04 1917.24,-466.65 1918.67,-473.5"/>
</g>
<!-- [root] provider[&quot;registry.terraform.io/hashicorp/aws&quot;] (close)&#45;&gt;[root] aws_lb_target_group_attachment.server_2 (expand) -->
<g id="edge36" class="edge">
<title>[root] provider[&quot;registry.terraform.io/hashicorp/aws&quot;] (close)&#45;&gt;[root] aws_lb_target_group_attachment.server_2 (expand)</title>
<path fill="none" stroke="black" d="M1672.78,-503.7C1672.78,-495.98 1672.78,-486.71 1672.78,-478.11"/>
<polygon fill="black" stroke="black" points="1676.28,-478.1 1672.78,-468.1 1669.28,-478.1 1676.28,-478.1"/>
</g>
<!-- [root] root -->
<g id="node27" class="node">
<title>[root] root</title>
<ellipse fill="none" stroke="black" cx="1075.78" cy="-594" rx="58.49" ry="18"/>
<text text-anchor="middle" x="1075.78" y="-590.3" font-family="Times,serif" font-size="14.00">[root] root</text>
</g>
<!-- [root] root&#45;&gt;[root] var.region -->
<g id="edge44" class="edge">
<title>[root] root&#45;&gt;[root] var.region</title>
<path fill="none" stroke="black" d="M1133.95,-591.48C1302.92,-586.75 1792.59,-570.89 1972.07,-540"/>
<polygon fill="black" stroke="black" points="1972.94,-543.4 1982.17,-538.18 1971.71,-536.51 1972.94,-543.4"/>
</g>
<!-- [root] root&#45;&gt;[root] output.dns_load_balancer (expand) -->
<g id="edge38" class="edge">
<title>[root] root&#45;&gt;[root] output.dns_load_balancer (expand)</title>
<path fill="none" stroke="black" d="M1127.54,-585.46C1179.51,-576.83 1254.7,-561.11 1274.78,-540 1290.31,-523.68 1294.44,-497.92 1295.04,-478.31"/>
<polygon fill="black" stroke="black" points="1298.54,-478.16 1295.07,-468.15 1291.54,-478.14 1298.54,-478.16"/>
</g>
<!-- [root] root&#45;&gt;[root] output.dns_publica_server_1 (expand) -->
<g id="edge39" class="edge">
<title>[root] root&#45;&gt;[root] output.dns_publica_server_1 (expand)</title>
<path fill="none" stroke="black" d="M1019.09,-589.03C976.42,-583.57 918.38,-570.63 876.78,-540 855.31,-524.19 840.11,-497.44 831.01,-477.38"/>
<polygon fill="black" stroke="black" points="834.21,-475.95 827.04,-468.15 827.78,-478.72 834.21,-475.95"/>
</g>
<!-- [root] root&#45;&gt;[root] output.dns_publica_server_2 (expand) -->
<g id="edge40" class="edge">
<title>[root] root&#45;&gt;[root] output.dns_publica_server_2 (expand)</title>
<path fill="none" stroke="black" d="M1024.58,-585.24C952.19,-574.27 818.17,-553.97 722.91,-539.53"/>
<polygon fill="black" stroke="black" points="723.35,-536.06 712.94,-538.02 722.31,-542.98 723.35,-536.06"/>
</g>
<!-- [root] root&#45;&gt;[root] output.ipv4_servidor_1 (expand) -->
<g id="edge41" class="edge">
<title>[root] root&#45;&gt;[root] output.ipv4_servidor_1 (expand)</title>
<path fill="none" stroke="black" d="M1075.78,-575.7C1075.78,-567.98 1075.78,-558.71 1075.78,-550.11"/>
<polygon fill="black" stroke="black" points="1079.28,-550.1 1075.78,-540.1 1072.28,-550.1 1079.28,-550.1"/>
</g>
<!-- [root] root&#45;&gt;[root] output.ipv4_servidor_2 (expand) -->
<g id="edge42" class="edge">
<title>[root] root&#45;&gt;[root] output.ipv4_servidor_2 (expand)</title>
<path fill="none" stroke="black" d="M1019.67,-588.83C902.46,-580.08 623.07,-559.04 388.78,-540 371.29,-538.58 352.93,-537.05 334.73,-535.52"/>
<polygon fill="black" stroke="black" points="334.91,-532.02 324.65,-534.67 334.32,-539 334.91,-532.02"/>
</g>
<!-- [root] root&#45;&gt;[root] provider[&quot;registry.terraform.io/hashicorp/aws&quot;] (close) -->
<g id="edge43" class="edge">
<title>[root] root&#45;&gt;[root] provider[&quot;registry.terraform.io/hashicorp/aws&quot;] (close)</title>
<path fill="none" stroke="black" d="M1129.55,-586.7C1219.85,-576.11 1404.7,-554.43 1533.55,-539.33"/>
<polygon fill="black" stroke="black" points="1533.98,-542.8 1543.51,-538.16 1533.17,-535.85 1533.98,-542.8"/>
</g>
</g>
</svg>
