<?xml version="1.0" encoding="UTF-8" standalone="no"?>
<!DOCTYPE svg PUBLIC "-//W3C//DTD SVG 1.1//EN"
 "http://www.w3.org/Graphics/SVG/1.1/DTD/svg11.dtd">
<!-- Generated by graphviz version 2.43.0 (0)
 -->
<!-- Title: %3 Pages: 1 -->
<svg width="2288pt" height="476pt"
 viewBox="0.00 0.00 2287.57 476.00" xmlns="http://www.w3.org/2000/svg" xmlns:xlink="http://www.w3.org/1999/xlink">
<g id="graph0" class="graph" transform="scale(1 1) rotate(0) translate(4 472)">
<title>%3</title>
<polygon fill="white" stroke="transparent" points="-4,4 -4,-472 2283.57,-472 2283.57,4 -4,4"/>
<!-- [root] aws_instance.servidor_smavo_I (expand) -->
<g id="node1" class="node">
<title>[root] aws_instance.servidor_smavo_I (expand)</title>
<polygon fill="none" stroke="black" points="938.28,-324 699.28,-324 699.28,-288 938.28,-288 938.28,-324"/>
<text text-anchor="middle" x="818.78" y="-302.3" font-family="Times,serif" font-size="14.00">aws_instance.servidor_smavo_I</text>
</g>
<!-- [root] aws_security_group.mi_sg (expand) -->
<g id="node5" class="node">
<title>[root] aws_security_group.mi_sg (expand)</title>
<polygon fill="none" stroke="black" points="920.28,-252 717.28,-252 717.28,-216 920.28,-216 920.28,-252"/>
<text text-anchor="middle" x="818.78" y="-230.3" font-family="Times,serif" font-size="14.00">aws_security_group.mi_sg</text>
</g>
<!-- [root] aws_instance.servidor_smavo_I (expand)&#45;&gt;[root] aws_security_group.mi_sg (expand) -->
<g id="edge1" class="edge">
<title>[root] aws_instance.servidor_smavo_I (expand)&#45;&gt;[root] aws_security_group.mi_sg (expand)</title>
<path fill="none" stroke="black" d="M818.78,-287.7C818.78,-279.98 818.78,-270.71 818.78,-262.11"/>
<polygon fill="black" stroke="black" points="822.28,-262.1 818.78,-252.1 815.28,-262.1 822.28,-262.1"/>
</g>
<!-- [root] data.aws_subnet.az_b (expand) -->
<g id="node6" class="node">
<title>[root] data.aws_subnet.az_b (expand)</title>
<polygon fill="none" stroke="black" points="1265.78,-252 1093.78,-252 1093.78,-216 1265.78,-216 1265.78,-252"/>
<text text-anchor="middle" x="1179.78" y="-230.3" font-family="Times,serif" font-size="14.00">data.aws_subnet.az_b</text>
</g>
<!-- [root] aws_instance.servidor_smavo_I (expand)&#45;&gt;[root] data.aws_subnet.az_b (expand) -->
<g id="edge2" class="edge">
<title>[root] aws_instance.servidor_smavo_I (expand)&#45;&gt;[root] data.aws_subnet.az_b (expand)</title>
<path fill="none" stroke="black" d="M906.63,-287.97C960.17,-277.58 1028.63,-264.31 1083.62,-253.65"/>
<polygon fill="black" stroke="black" points="1084.58,-257.03 1093.73,-251.69 1083.24,-250.15 1084.58,-257.03"/>
</g>
<!-- [root] var.ami -->
<g id="node10" class="node">
<title>[root] var.ami</title>
<polygon fill="none" stroke="black" points="693.28,-252 630.28,-252 630.28,-216 699.28,-216 699.28,-246 693.28,-252"/>
<polyline fill="none" stroke="black" points="693.28,-252 693.28,-246 "/>
<polyline fill="none" stroke="black" points="699.28,-246 693.28,-246 "/>
<text text-anchor="middle" x="664.78" y="-230.3" font-family="Times,serif" font-size="14.00">var.ami</text>
</g>
<!-- [root] aws_instance.servidor_smavo_I (expand)&#45;&gt;[root] var.ami -->
<g id="edge3" class="edge">
<title>[root] aws_instance.servidor_smavo_I (expand)&#45;&gt;[root] var.ami</title>
<path fill="none" stroke="black" d="M781.11,-287.88C759.2,-277.92 731.47,-265.31 708.59,-254.91"/>
<polygon fill="black" stroke="black" points="709.99,-251.7 699.43,-250.75 707.09,-258.07 709.99,-251.7"/>
</g>
<!-- [root] var.instanceType -->
<g id="node11" class="node">
<title>[root] var.instanceType</title>
<polygon fill="none" stroke="black" points="1069.28,-252 938.28,-252 938.28,-216 1075.28,-216 1075.28,-246 1069.28,-252"/>
<polyline fill="none" stroke="black" points="1069.28,-252 1069.28,-246 "/>
<polyline fill="none" stroke="black" points="1075.28,-246 1069.28,-246 "/>
<text text-anchor="middle" x="1006.78" y="-230.3" font-family="Times,serif" font-size="14.00">var.instanceType</text>
</g>
<!-- [root] aws_instance.servidor_smavo_I (expand)&#45;&gt;[root] var.instanceType -->
<g id="edge4" class="edge">
<title>[root] aws_instance.servidor_smavo_I (expand)&#45;&gt;[root] var.instanceType</title>
<path fill="none" stroke="black" d="M864.77,-287.88C890.93,-278.14 923.87,-265.87 951.44,-255.61"/>
<polygon fill="black" stroke="black" points="952.79,-258.84 960.94,-252.07 950.35,-252.28 952.79,-258.84"/>
</g>
<!-- [root] aws_instance.servidor_smavo_II (expand) -->
<g id="node2" class="node">
<title>[root] aws_instance.servidor_smavo_II (expand)</title>
<polygon fill="none" stroke="black" points="1262.28,-324 1017.28,-324 1017.28,-288 1262.28,-288 1262.28,-324"/>
<text text-anchor="middle" x="1139.78" y="-302.3" font-family="Times,serif" font-size="14.00">aws_instance.servidor_smavo_II</text>
</g>
<!-- [root] aws_instance.servidor_smavo_II (expand)&#45;&gt;[root] aws_security_group.mi_sg (expand) -->
<g id="edge5" class="edge">
<title>[root] aws_instance.servidor_smavo_II (expand)&#45;&gt;[root] aws_security_group.mi_sg (expand)</title>
<path fill="none" stroke="black" d="M1061.67,-287.97C1014.88,-277.76 955.27,-264.76 906.82,-254.2"/>
<polygon fill="black" stroke="black" points="907.49,-250.76 896.97,-252.05 905.99,-257.6 907.49,-250.76"/>
</g>
<!-- [root] data.aws_subnet.az_c (expand) -->
<g id="node7" class="node">
<title>[root] data.aws_subnet.az_c (expand)</title>
<polygon fill="none" stroke="black" points="1679.78,-252 1509.78,-252 1509.78,-216 1679.78,-216 1679.78,-252"/>
<text text-anchor="middle" x="1594.78" y="-230.3" font-family="Times,serif" font-size="14.00">data.aws_subnet.az_c</text>
</g>
<!-- [root] aws_instance.servidor_smavo_II (expand)&#45;&gt;[root] data.aws_subnet.az_c (expand) -->
<g id="edge6" class="edge">
<title>[root] aws_instance.servidor_smavo_II (expand)&#45;&gt;[root] data.aws_subnet.az_c (expand)</title>
<path fill="none" stroke="black" d="M1262.33,-288.04C1329.61,-278.48 1414.78,-265.97 1499.67,-252.16"/>
<polygon fill="black" stroke="black" points="1500.45,-255.58 1509.75,-250.51 1499.32,-248.67 1500.45,-255.58"/>
</g>
<!-- [root] aws_instance.servidor_smavo_II (expand)&#45;&gt;[root] var.ami -->
<g id="edge7" class="edge">
<title>[root] aws_instance.servidor_smavo_II (expand)&#45;&gt;[root] var.ami</title>
<path fill="none" stroke="black" d="M1017.1,-293.46C915.67,-283.3 778.61,-268.01 709.79,-252.11"/>
<polygon fill="black" stroke="black" points="710.29,-248.63 699.74,-249.66 708.63,-255.43 710.29,-248.63"/>
</g>
<!-- [root] aws_instance.servidor_smavo_II (expand)&#45;&gt;[root] var.instanceType -->
<g id="edge8" class="edge">
<title>[root] aws_instance.servidor_smavo_II (expand)&#45;&gt;[root] var.instanceType</title>
<path fill="none" stroke="black" d="M1107.25,-287.88C1089.54,-278.55 1067.43,-266.92 1048.47,-256.94"/>
<polygon fill="black" stroke="black" points="1049.92,-253.75 1039.44,-252.19 1046.66,-259.94 1049.92,-253.75"/>
</g>
<!-- [root] aws_lb.alb (expand) -->
<g id="node3" class="node">
<title>[root] aws_lb.alb (expand)</title>
<polygon fill="none" stroke="black" points="1402.28,-324 1311.28,-324 1311.28,-288 1402.28,-288 1402.28,-324"/>
<text text-anchor="middle" x="1356.78" y="-302.3" font-family="Times,serif" font-size="14.00">aws_lb.alb</text>
</g>
<!-- [root] aws_security_group.alb_sg (expand) -->
<g id="node4" class="node">
<title>[root] aws_security_group.alb_sg (expand)</title>
<polygon fill="none" stroke="black" points="1491.28,-252 1284.28,-252 1284.28,-216 1491.28,-216 1491.28,-252"/>
<text text-anchor="middle" x="1387.78" y="-230.3" font-family="Times,serif" font-size="14.00">aws_security_group.alb_sg</text>
</g>
<!-- [root] aws_lb.alb (expand)&#45;&gt;[root] aws_security_group.alb_sg (expand) -->
<g id="edge9" class="edge">
<title>[root] aws_lb.alb (expand)&#45;&gt;[root] aws_security_group.alb_sg (expand)</title>
<path fill="none" stroke="black" d="M1364.45,-287.7C1367.97,-279.73 1372.24,-270.1 1376.15,-261.26"/>
<polygon fill="black" stroke="black" points="1379.36,-262.67 1380.21,-252.1 1372.96,-259.83 1379.36,-262.67"/>
</g>
<!-- [root] aws_lb.alb (expand)&#45;&gt;[root] data.aws_subnet.az_b (expand) -->
<g id="edge10" class="edge">
<title>[root] aws_lb.alb (expand)&#45;&gt;[root] data.aws_subnet.az_b (expand)</title>
<path fill="none" stroke="black" d="M1313.48,-287.88C1289.07,-278.22 1258.39,-266.09 1232.57,-255.88"/>
<polygon fill="black" stroke="black" points="1233.53,-252.49 1222.94,-252.07 1230.95,-259 1233.53,-252.49"/>
</g>
<!-- [root] aws_lb.alb (expand)&#45;&gt;[root] data.aws_subnet.az_c (expand) -->
<g id="edge11" class="edge">
<title>[root] aws_lb.alb (expand)&#45;&gt;[root] data.aws_subnet.az_c (expand)</title>
<path fill="none" stroke="black" d="M1402.39,-291.59C1437.68,-281.21 1487.09,-266.67 1527.01,-254.93"/>
<polygon fill="black" stroke="black" points="1528.07,-258.27 1536.67,-252.09 1526.09,-251.56 1528.07,-258.27"/>
</g>
<!-- [root] data.aws_vpc.default (expand) -->
<g id="node8" class="node">
<title>[root] data.aws_vpc.default (expand)</title>
<polygon fill="none" stroke="black" points="1246.28,-180 1079.28,-180 1079.28,-144 1246.28,-144 1246.28,-180"/>
<text text-anchor="middle" x="1162.78" y="-158.3" font-family="Times,serif" font-size="14.00">data.aws_vpc.default</text>
</g>
<!-- [root] aws_security_group.alb_sg (expand)&#45;&gt;[root] data.aws_vpc.default (expand) -->
<g id="edge12" class="edge">
<title>[root] aws_security_group.alb_sg (expand)&#45;&gt;[root] data.aws_vpc.default (expand)</title>
<path fill="none" stroke="black" d="M1333.03,-215.97C1301.18,-206.06 1260.86,-193.51 1227.46,-183.12"/>
<polygon fill="black" stroke="black" points="1228.37,-179.74 1217.78,-180.11 1226.29,-186.42 1228.37,-179.74"/>
</g>
<!-- [root] aws_security_group.mi_sg (expand)&#45;&gt;[root] data.aws_vpc.default (expand) -->
<g id="edge13" class="edge">
<title>[root] aws_security_group.mi_sg (expand)&#45;&gt;[root] data.aws_vpc.default (expand)</title>
<path fill="none" stroke="black" d="M902.5,-215.97C952.85,-205.72 1017.05,-192.66 1069.09,-182.07"/>
<polygon fill="black" stroke="black" points="1069.89,-185.47 1078.99,-180.05 1068.5,-178.61 1069.89,-185.47"/>
</g>
<!-- [root] provider[&quot;registry.terraform.io/hashicorp/aws&quot;] -->
<g id="node9" class="node">
<title>[root] provider[&quot;registry.terraform.io/hashicorp/aws&quot;]</title>
<polygon fill="none" stroke="black" points="1273.78,-108 948.52,-90 1273.78,-72 1599.05,-90 1273.78,-108"/>
<text text-anchor="middle" x="1273.78" y="-86.3" font-family="Times,serif" font-size="14.00">provider[&quot;registry.terraform.io/hashicorp/aws&quot;]</text>
</g>
<!-- [root] data.aws_subnet.az_b (expand)&#45;&gt;[root] provider[&quot;registry.terraform.io/hashicorp/aws&quot;] -->
<g id="edge14" class="edge">
<title>[root] data.aws_subnet.az_b (expand)&#45;&gt;[root] provider[&quot;registry.terraform.io/hashicorp/aws&quot;]</title>
<path fill="none" stroke="black" d="M1215.49,-215.86C1230.12,-207.09 1245.9,-195.06 1255.78,-180 1267.78,-161.71 1272.06,-137.1 1273.47,-118.39"/>
<polygon fill="black" stroke="black" points="1276.97,-118.32 1274,-108.15 1269.98,-117.96 1276.97,-118.32"/>
</g>
<!-- [root] data.aws_subnet.az_c (expand)&#45;&gt;[root] provider[&quot;registry.terraform.io/hashicorp/aws&quot;] -->
<g id="edge15" class="edge">
<title>[root] data.aws_subnet.az_c (expand)&#45;&gt;[root] provider[&quot;registry.terraform.io/hashicorp/aws&quot;]</title>
<path fill="none" stroke="black" d="M1556.06,-215.87C1495.95,-189.28 1380.55,-138.23 1317.52,-110.35"/>
<polygon fill="black" stroke="black" points="1318.8,-107.09 1308.24,-106.24 1315.97,-113.49 1318.8,-107.09"/>
</g>
<!-- [root] data.aws_vpc.default (expand)&#45;&gt;[root] provider[&quot;registry.terraform.io/hashicorp/aws&quot;] -->
<g id="edge16" class="edge">
<title>[root] data.aws_vpc.default (expand)&#45;&gt;[root] provider[&quot;registry.terraform.io/hashicorp/aws&quot;]</title>
<path fill="none" stroke="black" d="M1189.94,-143.88C1205.1,-134.31 1224.12,-122.32 1240.21,-112.17"/>
<polygon fill="black" stroke="black" points="1242.22,-115.04 1248.81,-106.75 1238.48,-109.12 1242.22,-115.04"/>
</g>
<!-- [root] var.region -->
<g id="node12" class="node">
<title>[root] var.region</title>
<polygon fill="none" stroke="black" points="1312.28,-36 1229.28,-36 1229.28,0 1318.28,0 1318.28,-30 1312.28,-36"/>
<polyline fill="none" stroke="black" points="1312.28,-36 1312.28,-30 "/>
<polyline fill="none" stroke="black" points="1318.28,-30 1312.28,-30 "/>
<text text-anchor="middle" x="1273.78" y="-14.3" font-family="Times,serif" font-size="14.00">var.region</text>
</g>
<!-- [root] provider[&quot;registry.terraform.io/hashicorp/aws&quot;]&#45;&gt;[root] var.region -->
<g id="edge24" class="edge">
<title>[root] provider[&quot;registry.terraform.io/hashicorp/aws&quot;]&#45;&gt;[root] var.region</title>
<path fill="none" stroke="black" d="M1273.78,-71.7C1273.78,-63.98 1273.78,-54.71 1273.78,-46.11"/>
<polygon fill="black" stroke="black" points="1277.28,-46.1 1273.78,-36.1 1270.28,-46.1 1277.28,-46.1"/>
</g>
<!-- [root] output.dns_publica_server_1 (expand) -->
<g id="node13" class="node">
<title>[root] output.dns_publica_server_1 (expand)</title>
<ellipse fill="none" stroke="black" cx="613.78" cy="-378" rx="215.56" ry="18"/>
<text text-anchor="middle" x="613.78" y="-374.3" font-family="Times,serif" font-size="14.00">[root] output.dns_publica_server_1 (expand)</text>
</g>
<!-- [root] output.dns_publica_server_1 (expand)&#45;&gt;[root] aws_instance.servidor_smavo_I (expand) -->
<g id="edge17" class="edge">
<title>[root] output.dns_publica_server_1 (expand)&#45;&gt;[root] aws_instance.servidor_smavo_I (expand)</title>
<path fill="none" stroke="black" d="M662.37,-360.41C691.32,-350.52 728.3,-337.9 759.03,-327.4"/>
<polygon fill="black" stroke="black" points="760.44,-330.62 768.77,-324.08 758.17,-324 760.44,-330.62"/>
</g>
<!-- [root] output.dns_publica_server_2 (expand) -->
<g id="node14" class="node">
<title>[root] output.dns_publica_server_2 (expand)</title>
<ellipse fill="none" stroke="black" cx="1665.78" cy="-378" rx="215.56" ry="18"/>
<text text-anchor="middle" x="1665.78" y="-374.3" font-family="Times,serif" font-size="14.00">[root] output.dns_publica_server_2 (expand)</text>
</g>
<!-- [root] output.dns_publica_server_2 (expand)&#45;&gt;[root] aws_instance.servidor_smavo_II (expand) -->
<g id="edge18" class="edge">
<title>[root] output.dns_publica_server_2 (expand)&#45;&gt;[root] aws_instance.servidor_smavo_II (expand)</title>
<path fill="none" stroke="black" d="M1556.48,-362.45C1473.87,-351.46 1360.11,-336.32 1272.32,-324.64"/>
<polygon fill="black" stroke="black" points="1272.67,-321.15 1262.29,-323.3 1271.74,-328.09 1272.67,-321.15"/>
</g>
<!-- [root] output.ipv4_servidor_1 (expand) -->
<g id="node15" class="node">
<title>[root] output.ipv4_servidor_1 (expand)</title>
<ellipse fill="none" stroke="black" cx="189.78" cy="-378" rx="189.57" ry="18"/>
<text text-anchor="middle" x="189.78" y="-374.3" font-family="Times,serif" font-size="14.00">[root] output.ipv4_servidor_1 (expand)</text>
</g>
<!-- [root] output.ipv4_servidor_1 (expand)&#45;&gt;[root] aws_instance.servidor_smavo_I (expand) -->
<g id="edge19" class="edge">
<title>[root] output.ipv4_servidor_1 (expand)&#45;&gt;[root] aws_instance.servidor_smavo_I (expand)</title>
<path fill="none" stroke="black" d="M307.72,-363.87C416.32,-351.79 577.11,-333.9 689.24,-321.42"/>
<polygon fill="black" stroke="black" points="689.71,-324.89 699.26,-320.3 688.93,-317.93 689.71,-324.89"/>
</g>
<!-- [root] output.ipv4_servidor_2 (expand) -->
<g id="node16" class="node">
<title>[root] output.ipv4_servidor_2 (expand)</title>
<ellipse fill="none" stroke="black" cx="2089.78" cy="-378" rx="189.57" ry="18"/>
<text text-anchor="middle" x="2089.78" y="-374.3" font-family="Times,serif" font-size="14.00">[root] output.ipv4_servidor_2 (expand)</text>
</g>
<!-- [root] output.ipv4_servidor_2 (expand)&#45;&gt;[root] aws_instance.servidor_smavo_II (expand) -->
<g id="edge20" class="edge">
<title>[root] output.ipv4_servidor_2 (expand)&#45;&gt;[root] aws_instance.servidor_smavo_II (expand)</title>
<path fill="none" stroke="black" d="M1956.55,-365.17C1934.58,-363.35 1912.05,-361.56 1890.78,-360 1629.66,-340.86 1563.71,-345.58 1302.78,-324 1293,-323.19 1282.89,-322.29 1272.73,-321.34"/>
<polygon fill="black" stroke="black" points="1272.84,-317.83 1262.55,-320.37 1272.18,-324.8 1272.84,-317.83"/>
</g>
<!-- [root] provider[&quot;registry.terraform.io/hashicorp/aws&quot;] (close) -->
<g id="node17" class="node">
<title>[root] provider[&quot;registry.terraform.io/hashicorp/aws&quot;] (close)</title>
<ellipse fill="none" stroke="black" cx="1139.78" cy="-378" rx="291.65" ry="18"/>
<text text-anchor="middle" x="1139.78" y="-374.3" font-family="Times,serif" font-size="14.00">[root] provider[&quot;registry.terraform.io/hashicorp/aws&quot;] (close)</text>
</g>
<!-- [root] provider[&quot;registry.terraform.io/hashicorp/aws&quot;] (close)&#45;&gt;[root] aws_instance.servidor_smavo_I (expand) -->
<g id="edge21" class="edge">
<title>[root] provider[&quot;registry.terraform.io/hashicorp/aws&quot;] (close)&#45;&gt;[root] aws_instance.servidor_smavo_I (expand)</title>
<path fill="none" stroke="black" d="M1064.52,-360.59C1017.37,-350.31 956.38,-337.01 906.96,-326.23"/>
<polygon fill="black" stroke="black" points="907.44,-322.75 896.92,-324.04 905.95,-329.59 907.44,-322.75"/>
</g>
<!-- [root] provider[&quot;registry.terraform.io/hashicorp/aws&quot;] (close)&#45;&gt;[root] aws_instance.servidor_smavo_II (expand) -->
<g id="edge22" class="edge">
<title>[root] provider[&quot;registry.terraform.io/hashicorp/aws&quot;] (close)&#45;&gt;[root] aws_instance.servidor_smavo_II (expand)</title>
<path fill="none" stroke="black" d="M1139.78,-359.7C1139.78,-351.98 1139.78,-342.71 1139.78,-334.11"/>
<polygon fill="black" stroke="black" points="1143.28,-334.1 1139.78,-324.1 1136.28,-334.1 1143.28,-334.1"/>
</g>
<!-- [root] provider[&quot;registry.terraform.io/hashicorp/aws&quot;] (close)&#45;&gt;[root] aws_lb.alb (expand) -->
<g id="edge23" class="edge">
<title>[root] provider[&quot;registry.terraform.io/hashicorp/aws&quot;] (close)&#45;&gt;[root] aws_lb.alb (expand)</title>
<path fill="none" stroke="black" d="M1191.76,-360.23C1224.86,-349.56 1267.68,-335.74 1301.42,-324.86"/>
<polygon fill="black" stroke="black" points="1302.68,-328.13 1311.12,-321.73 1300.53,-321.47 1302.68,-328.13"/>
</g>
<!-- [root] root -->
<g id="node18" class="node">
<title>[root] root</title>
<ellipse fill="none" stroke="black" cx="1139.78" cy="-450" rx="58.49" ry="18"/>
<text text-anchor="middle" x="1139.78" y="-446.3" font-family="Times,serif" font-size="14.00">[root] root</text>
</g>
<!-- [root] root&#45;&gt;[root] output.dns_publica_server_1 (expand) -->
<g id="edge25" class="edge">
<title>[root] root&#45;&gt;[root] output.dns_publica_server_1 (expand)</title>
<path fill="none" stroke="black" d="M1086.94,-441.97C1004.75,-431.03 844.21,-409.66 733.07,-394.87"/>
<polygon fill="black" stroke="black" points="733.52,-391.4 723.15,-393.55 732.6,-398.34 733.52,-391.4"/>
</g>
<!-- [root] root&#45;&gt;[root] output.dns_publica_server_2 (expand) -->
<g id="edge26" class="edge">
<title>[root] root&#45;&gt;[root] output.dns_publica_server_2 (expand)</title>
<path fill="none" stroke="black" d="M1192.63,-441.97C1274.81,-431.03 1435.36,-409.66 1546.5,-394.87"/>
<polygon fill="black" stroke="black" points="1546.97,-398.34 1556.42,-393.55 1546.05,-391.4 1546.97,-398.34"/>
</g>
<!-- [root] root&#45;&gt;[root] output.ipv4_servidor_1 (expand) -->
<g id="edge27" class="edge">
<title>[root] root&#45;&gt;[root] output.ipv4_servidor_1 (expand)</title>
<path fill="none" stroke="black" d="M1083.24,-445.3C958.06,-437.03 648.1,-416.23 388.78,-396 371.14,-394.62 352.61,-393.12 334.27,-391.6"/>
<polygon fill="black" stroke="black" points="334.36,-388.09 324.1,-390.75 333.78,-395.07 334.36,-388.09"/>
</g>
<!-- [root] root&#45;&gt;[root] output.ipv4_servidor_2 (expand) -->
<g id="edge28" class="edge">
<title>[root] root&#45;&gt;[root] output.ipv4_servidor_2 (expand)</title>
<path fill="none" stroke="black" d="M1196.33,-445.3C1321.5,-437.03 1631.47,-416.23 1890.78,-396 1908.43,-394.62 1926.95,-393.12 1945.3,-391.6"/>
<polygon fill="black" stroke="black" points="1945.79,-395.07 1955.46,-390.75 1945.21,-388.09 1945.79,-395.07"/>
</g>
<!-- [root] root&#45;&gt;[root] provider[&quot;registry.terraform.io/hashicorp/aws&quot;] (close) -->
<g id="edge29" class="edge">
<title>[root] root&#45;&gt;[root] provider[&quot;registry.terraform.io/hashicorp/aws&quot;] (close)</title>
<path fill="none" stroke="black" d="M1139.78,-431.7C1139.78,-423.98 1139.78,-414.71 1139.78,-406.11"/>
<polygon fill="black" stroke="black" points="1143.28,-406.1 1139.78,-396.1 1136.28,-406.1 1143.28,-406.1"/>
</g>
</g>
</svg>
