<?xml version="1.0" encoding="UTF-8" standalone="no"?>
<!DOCTYPE svg PUBLIC "-//W3C//DTD SVG 1.1//EN"
 "http://www.w3.org/Graphics/SVG/1.1/DTD/svg11.dtd">
<!-- Generated by graphviz version 2.43.0 (0)
 -->
<!-- Title: %3 Pages: 1 -->
<svg width="814pt" height="332pt"
 viewBox="0.00 0.00 814.21 332.00" xmlns="http://www.w3.org/2000/svg" xmlns:xlink="http://www.w3.org/1999/xlink">
<g id="graph0" class="graph" transform="scale(1 1) rotate(0) translate(4 328)">
<title>%3</title>
<polygon fill="white" stroke="transparent" points="-4,4 -4,-328 810.21,-328 810.21,4 -4,4"/>
<!-- [root] aws_instance.servidor_smavo (expand) -->
<g id="node1" class="node">
<title>[root] aws_instance.servidor_smavo (expand)</title>
<polygon fill="none" stroke="black" points="627.88,-180 400.88,-180 400.88,-144 627.88,-144 627.88,-180"/>
<text text-anchor="middle" x="514.38" y="-158.3" font-family="Times,serif" font-size="14.00">aws_instance.servidor_smavo</text>
</g>
<!-- [root] provider[&quot;registry.terraform.io/hashicorp/aws&quot;] -->
<g id="node2" class="node">
<title>[root] provider[&quot;registry.terraform.io/hashicorp/aws&quot;]</title>
<polygon fill="none" stroke="black" points="325.38,-108 0.12,-90 325.38,-72 650.65,-90 325.38,-108"/>
<text text-anchor="middle" x="325.38" y="-86.3" font-family="Times,serif" font-size="14.00">provider[&quot;registry.terraform.io/hashicorp/aws&quot;]</text>
</g>
<!-- [root] aws_instance.servidor_smavo (expand)&#45;&gt;[root] provider[&quot;registry.terraform.io/hashicorp/aws&quot;] -->
<g id="edge1" class="edge">
<title>[root] aws_instance.servidor_smavo (expand)&#45;&gt;[root] provider[&quot;registry.terraform.io/hashicorp/aws&quot;]</title>
<path fill="none" stroke="black" d="M468.15,-143.88C439.87,-133.4 403.71,-120.01 374.86,-109.33"/>
<polygon fill="black" stroke="black" points="375.97,-106 365.38,-105.81 373.54,-112.57 375.97,-106"/>
</g>
<!-- [root] var.ami -->
<g id="node3" class="node">
<title>[root] var.ami</title>
<polygon fill="none" stroke="black" points="731.88,-108 668.88,-108 668.88,-72 737.88,-72 737.88,-102 731.88,-108"/>
<polyline fill="none" stroke="black" points="731.88,-108 731.88,-102 "/>
<polyline fill="none" stroke="black" points="737.88,-102 731.88,-102 "/>
<text text-anchor="middle" x="703.38" y="-86.3" font-family="Times,serif" font-size="14.00">var.ami</text>
</g>
<!-- [root] aws_instance.servidor_smavo (expand)&#45;&gt;[root] var.ami -->
<g id="edge2" class="edge">
<title>[root] aws_instance.servidor_smavo (expand)&#45;&gt;[root] var.ami</title>
<path fill="none" stroke="black" d="M561.81,-143.91C590.17,-133.63 626.89,-120.21 659.38,-108 659.48,-107.96 659.57,-107.93 659.67,-107.89"/>
<polygon fill="black" stroke="black" points="660.71,-111.24 668.82,-104.42 658.23,-104.7 660.71,-111.24"/>
</g>
<!-- [root] var.region -->
<g id="node4" class="node">
<title>[root] var.region</title>
<polygon fill="none" stroke="black" points="363.88,-36 280.88,-36 280.88,0 369.88,0 369.88,-30 363.88,-36"/>
<polyline fill="none" stroke="black" points="363.88,-36 363.88,-30 "/>
<polyline fill="none" stroke="black" points="369.88,-30 363.88,-30 "/>
<text text-anchor="middle" x="325.38" y="-14.3" font-family="Times,serif" font-size="14.00">var.region</text>
</g>
<!-- [root] provider[&quot;registry.terraform.io/hashicorp/aws&quot;]&#45;&gt;[root] var.region -->
<g id="edge4" class="edge">
<title>[root] provider[&quot;registry.terraform.io/hashicorp/aws&quot;]&#45;&gt;[root] var.region</title>
<path fill="none" stroke="black" d="M325.38,-71.7C325.38,-63.98 325.38,-54.71 325.38,-46.11"/>
<polygon fill="black" stroke="black" points="328.88,-46.1 325.38,-36.1 321.88,-46.1 328.88,-46.1"/>
</g>
<!-- [root] provider[&quot;registry.terraform.io/hashicorp/aws&quot;] (close) -->
<g id="node5" class="node">
<title>[root] provider[&quot;registry.terraform.io/hashicorp/aws&quot;] (close)</title>
<ellipse fill="none" stroke="black" cx="514.38" cy="-234" rx="291.65" ry="18"/>
<text text-anchor="middle" x="514.38" y="-230.3" font-family="Times,serif" font-size="14.00">[root] provider[&quot;registry.terraform.io/hashicorp/aws&quot;] (close)</text>
</g>
<!-- [root] provider[&quot;registry.terraform.io/hashicorp/aws&quot;] (close)&#45;&gt;[root] aws_instance.servidor_smavo (expand) -->
<g id="edge3" class="edge">
<title>[root] provider[&quot;registry.terraform.io/hashicorp/aws&quot;] (close)&#45;&gt;[root] aws_instance.servidor_smavo (expand)</title>
<path fill="none" stroke="black" d="M514.38,-215.7C514.38,-207.98 514.38,-198.71 514.38,-190.11"/>
<polygon fill="black" stroke="black" points="517.88,-190.1 514.38,-180.1 510.88,-190.1 517.88,-190.1"/>
</g>
<!-- [root] root -->
<g id="node6" class="node">
<title>[root] root</title>
<ellipse fill="none" stroke="black" cx="514.38" cy="-306" rx="58.49" ry="18"/>
<text text-anchor="middle" x="514.38" y="-302.3" font-family="Times,serif" font-size="14.00">[root] root</text>
</g>
<!-- [root] root&#45;&gt;[root] provider[&quot;registry.terraform.io/hashicorp/aws&quot;] (close) -->
<g id="edge5" class="edge">
<title>[root] root&#45;&gt;[root] provider[&quot;registry.terraform.io/hashicorp/aws&quot;] (close)</title>
<path fill="none" stroke="black" d="M514.38,-287.7C514.38,-279.98 514.38,-270.71 514.38,-262.11"/>
<polygon fill="black" stroke="black" points="517.88,-262.1 514.38,-252.1 510.88,-262.1 517.88,-262.1"/>
</g>
</g>
</svg>
