<?xml version="1.0" encoding="UTF-8" standalone="no"?>
<!DOCTYPE svg PUBLIC "-//W3C//DTD SVG 1.1//EN"
 "http://www.w3.org/Graphics/SVG/1.1/DTD/svg11.dtd">
<!-- Generated by graphviz version 2.43.0 (0)
 -->
<!-- Title: %3 Pages: 1 -->
<svg width="1496pt" height="620pt"
 viewBox="0.00 0.00 1496.23 620.00" xmlns="http://www.w3.org/2000/svg" xmlns:xlink="http://www.w3.org/1999/xlink">
<g id="graph0" class="graph" transform="scale(1 1) rotate(0) translate(4 616)">
<title>%3</title>
<polygon fill="white" stroke="transparent" points="-4,4 -4,-616 1492.23,-616 1492.23,4 -4,4"/>
<!-- [root] aws_instance.servidores_ec2 (expand) -->
<g id="node1" class="node">
<title>[root] aws_instance.servidores_ec2 (expand)</title>
<polygon fill="none" stroke="black" points="587.23,-396 365.23,-396 365.23,-360 587.23,-360 587.23,-396"/>
<text text-anchor="middle" x="476.23" y="-374.3" font-family="Times,serif" font-size="14.00">aws_instance.servidores_ec2</text>
</g>
<!-- [root] aws_security_group.mi_sg (expand) -->
<g id="node7" class="node">
<title>[root] aws_security_group.mi_sg (expand)</title>
<polygon fill="none" stroke="black" points="1004.73,-324 801.73,-324 801.73,-288 1004.73,-288 1004.73,-324"/>
<text text-anchor="middle" x="903.23" y="-302.3" font-family="Times,serif" font-size="14.00">aws_security_group.mi_sg</text>
</g>
<!-- [root] aws_instance.servidores_ec2 (expand)&#45;&gt;[root] aws_security_group.mi_sg (expand) -->
<g id="edge1" class="edge">
<title>[root] aws_instance.servidores_ec2 (expand)&#45;&gt;[root] aws_security_group.mi_sg (expand)</title>
<path fill="none" stroke="black" d="M580.14,-359.97C644.13,-349.48 726.13,-336.03 791.51,-325.32"/>
<polygon fill="black" stroke="black" points="792.14,-328.76 801.44,-323.69 791.01,-321.85 792.14,-328.76"/>
</g>
<!-- [root] data.aws_subnet.public_subnet (expand) -->
<g id="node8" class="node">
<title>[root] data.aws_subnet.public_subnet (expand)</title>
<polygon fill="none" stroke="black" points="783.73,-324 544.73,-324 544.73,-288 783.73,-288 783.73,-324"/>
<text text-anchor="middle" x="664.23" y="-302.3" font-family="Times,serif" font-size="14.00">data.aws_subnet.public_subnet</text>
</g>
<!-- [root] aws_instance.servidores_ec2 (expand)&#45;&gt;[root] data.aws_subnet.public_subnet (expand) -->
<g id="edge2" class="edge">
<title>[root] aws_instance.servidores_ec2 (expand)&#45;&gt;[root] data.aws_subnet.public_subnet (expand)</title>
<path fill="none" stroke="black" d="M522.22,-359.88C548.38,-350.14 581.32,-337.87 608.88,-327.61"/>
<polygon fill="black" stroke="black" points="610.24,-330.84 618.39,-324.07 607.8,-324.28 610.24,-330.84"/>
</g>
<!-- [root] var.instanceType -->
<g id="node11" class="node">
<title>[root] var.instanceType</title>
<polygon fill="none" stroke="black" points="520.73,-324 389.73,-324 389.73,-288 526.73,-288 526.73,-318 520.73,-324"/>
<polyline fill="none" stroke="black" points="520.73,-324 520.73,-318 "/>
<polyline fill="none" stroke="black" points="526.73,-318 520.73,-318 "/>
<text text-anchor="middle" x="458.23" y="-302.3" font-family="Times,serif" font-size="14.00">var.instanceType</text>
</g>
<!-- [root] aws_instance.servidores_ec2 (expand)&#45;&gt;[root] var.instanceType -->
<g id="edge4" class="edge">
<title>[root] aws_instance.servidores_ec2 (expand)&#45;&gt;[root] var.instanceType</title>
<path fill="none" stroke="black" d="M471.78,-359.7C469.78,-351.9 467.36,-342.51 465.13,-333.83"/>
<polygon fill="black" stroke="black" points="468.51,-332.92 462.63,-324.1 461.73,-334.66 468.51,-332.92"/>
</g>
<!-- [root] local.ami (expand) -->
<g id="node17" class="node">
<title>[root] local.ami (expand)</title>
<ellipse fill="none" stroke="black" cx="247.23" cy="-306" rx="124.28" ry="18"/>
<text text-anchor="middle" x="247.23" y="-302.3" font-family="Times,serif" font-size="14.00">[root] local.ami (expand)</text>
</g>
<!-- [root] aws_instance.servidores_ec2 (expand)&#45;&gt;[root] local.ami (expand) -->
<g id="edge3" class="edge">
<title>[root] aws_instance.servidores_ec2 (expand)&#45;&gt;[root] local.ami (expand)</title>
<path fill="none" stroke="black" d="M420.5,-359.97C386.38,-349.53 342.69,-336.18 307.73,-325.49"/>
<polygon fill="black" stroke="black" points="308.7,-322.13 298.11,-322.55 306.65,-328.82 308.7,-322.13"/>
</g>
<!-- [root] aws_lb.albApplicacion (expand) -->
<g id="node2" class="node">
<title>[root] aws_lb.albApplicacion (expand)</title>
<polygon fill="none" stroke="black" points="875.73,-396 702.73,-396 702.73,-360 875.73,-360 875.73,-396"/>
<text text-anchor="middle" x="789.23" y="-374.3" font-family="Times,serif" font-size="14.00">aws_lb.albApplicacion</text>
</g>
<!-- [root] aws_security_group.alb_sg (expand) -->
<g id="node6" class="node">
<title>[root] aws_security_group.alb_sg (expand)</title>
<polygon fill="none" stroke="black" points="1042.73,-252 835.73,-252 835.73,-216 1042.73,-216 1042.73,-252"/>
<text text-anchor="middle" x="939.23" y="-230.3" font-family="Times,serif" font-size="14.00">aws_security_group.alb_sg</text>
</g>
<!-- [root] aws_lb.albApplicacion (expand)&#45;&gt;[root] aws_security_group.alb_sg (expand) -->
<g id="edge5" class="edge">
<title>[root] aws_lb.albApplicacion (expand)&#45;&gt;[root] aws_security_group.alb_sg (expand)</title>
<path fill="none" stroke="black" d="M875.81,-367.7C931.6,-359.71 996.85,-345.95 1014.23,-324 1024.16,-311.46 1021.59,-302.21 1014.23,-288 1007.86,-275.7 997.18,-265.65 985.85,-257.73"/>
<polygon fill="black" stroke="black" points="987.41,-254.58 977.11,-252.09 983.62,-260.46 987.41,-254.58"/>
</g>
<!-- [root] aws_lb.albApplicacion (expand)&#45;&gt;[root] data.aws_subnet.public_subnet (expand) -->
<g id="edge6" class="edge">
<title>[root] aws_lb.albApplicacion (expand)&#45;&gt;[root] data.aws_subnet.public_subnet (expand)</title>
<path fill="none" stroke="black" d="M758.65,-359.88C742.16,-350.64 721.61,-339.13 703.89,-329.21"/>
<polygon fill="black" stroke="black" points="705.36,-326.02 694.93,-324.19 701.94,-332.13 705.36,-326.02"/>
</g>
<!-- [root] aws_lb_listener.listenerThis (expand) -->
<g id="node3" class="node">
<title>[root] aws_lb_listener.listenerThis (expand)</title>
<polygon fill="none" stroke="black" points="1488.23,-468 1274.23,-468 1274.23,-432 1488.23,-432 1488.23,-468"/>
<text text-anchor="middle" x="1381.23" y="-446.3" font-family="Times,serif" font-size="14.00">aws_lb_listener.listenerThis</text>
</g>
<!-- [root] aws_lb_listener.listenerThis (expand)&#45;&gt;[root] aws_lb.albApplicacion (expand) -->
<g id="edge7" class="edge">
<title>[root] aws_lb_listener.listenerThis (expand)&#45;&gt;[root] aws_lb.albApplicacion (expand)</title>
<path fill="none" stroke="black" d="M1274.12,-433.16C1271.12,-432.77 1268.16,-432.38 1265.23,-432 1134.01,-415.08 982.02,-398.72 885.77,-388.76"/>
<polygon fill="black" stroke="black" points="886.07,-385.27 875.76,-387.73 885.35,-392.23 886.07,-385.27"/>
</g>
<!-- [root] aws_lb_target_group.targetThis (expand) -->
<g id="node4" class="node">
<title>[root] aws_lb_target_group.targetThis (expand)</title>
<polygon fill="none" stroke="black" points="1220.73,-396 977.73,-396 977.73,-360 1220.73,-360 1220.73,-396"/>
<text text-anchor="middle" x="1099.23" y="-374.3" font-family="Times,serif" font-size="14.00">aws_lb_target_group.targetThis</text>
</g>
<!-- [root] aws_lb_listener.listenerThis (expand)&#45;&gt;[root] aws_lb_target_group.targetThis (expand) -->
<g id="edge8" class="edge">
<title>[root] aws_lb_listener.listenerThis (expand)&#45;&gt;[root] aws_lb_target_group.targetThis (expand)</title>
<path fill="none" stroke="black" d="M1312.61,-431.97C1271.92,-421.87 1220.2,-409.03 1177.87,-398.52"/>
<polygon fill="black" stroke="black" points="1178.71,-395.12 1168.16,-396.11 1177.02,-401.92 1178.71,-395.12"/>
</g>
<!-- [root] data.aws_vpc.default (expand) -->
<g id="node9" class="node">
<title>[root] data.aws_vpc.default (expand)</title>
<polygon fill="none" stroke="black" points="1191.73,-180 1024.73,-180 1024.73,-144 1191.73,-144 1191.73,-180"/>
<text text-anchor="middle" x="1108.23" y="-158.3" font-family="Times,serif" font-size="14.00">data.aws_vpc.default</text>
</g>
<!-- [root] aws_lb_target_group.targetThis (expand)&#45;&gt;[root] data.aws_vpc.default (expand) -->
<g id="edge9" class="edge">
<title>[root] aws_lb_target_group.targetThis (expand)&#45;&gt;[root] data.aws_vpc.default (expand)</title>
<path fill="none" stroke="black" d="M1099.95,-359.85C1101.51,-322.83 1105.19,-235.18 1107.08,-190.39"/>
<polygon fill="black" stroke="black" points="1110.58,-190.37 1107.51,-180.23 1103.59,-190.08 1110.58,-190.37"/>
</g>
<!-- [root] var.puerto_lb -->
<g id="node12" class="node">
<title>[root] var.puerto_lb</title>
<polygon fill="none" stroke="black" points="1000.23,-180 896.23,-180 896.23,-144 1006.23,-144 1006.23,-174 1000.23,-180"/>
<polyline fill="none" stroke="black" points="1000.23,-180 1000.23,-174 "/>
<polyline fill="none" stroke="black" points="1006.23,-174 1000.23,-174 "/>
<text text-anchor="middle" x="951.23" y="-158.3" font-family="Times,serif" font-size="14.00">var.puerto_lb</text>
</g>
<!-- [root] aws_lb_target_group.targetThis (expand)&#45;&gt;[root] var.puerto_lb -->
<g id="edge10" class="edge">
<title>[root] aws_lb_target_group.targetThis (expand)&#45;&gt;[root] var.puerto_lb</title>
<path fill="none" stroke="black" d="M1098.52,-359.96C1096.37,-328.2 1087.63,-259.27 1052.23,-216 1041.43,-202.8 1026.46,-192.48 1011.36,-184.6"/>
<polygon fill="black" stroke="black" points="1012.49,-181.26 1001.97,-180.01 1009.42,-187.55 1012.49,-181.26"/>
</g>
<!-- [root] aws_lb_target_group_attachment.servidores (expand) -->
<g id="node5" class="node">
<title>[root] aws_lb_target_group_attachment.servidores (expand)</title>
<polygon fill="none" stroke="black" points="1256.23,-468 924.23,-468 924.23,-432 1256.23,-432 1256.23,-468"/>
<text text-anchor="middle" x="1090.23" y="-446.3" font-family="Times,serif" font-size="14.00">aws_lb_target_group_attachment.servidores</text>
</g>
<!-- [root] aws_lb_target_group_attachment.servidores (expand)&#45;&gt;[root] aws_instance.servidores_ec2 (expand) -->
<g id="edge11" class="edge">
<title>[root] aws_lb_target_group_attachment.servidores (expand)&#45;&gt;[root] aws_instance.servidores_ec2 (expand)</title>
<path fill="none" stroke="black" d="M940.81,-431.97C835.46,-419.95 696.13,-404.07 597.62,-392.84"/>
<polygon fill="black" stroke="black" points="597.95,-389.35 587.61,-391.7 597.15,-396.31 597.95,-389.35"/>
</g>
<!-- [root] aws_lb_target_group_attachment.servidores (expand)&#45;&gt;[root] aws_lb_target_group.targetThis (expand) -->
<g id="edge12" class="edge">
<title>[root] aws_lb_target_group_attachment.servidores (expand)&#45;&gt;[root] aws_lb_target_group.targetThis (expand)</title>
<path fill="none" stroke="black" d="M1092.45,-431.7C1093.45,-423.98 1094.64,-414.71 1095.74,-406.11"/>
<polygon fill="black" stroke="black" points="1099.23,-406.47 1097.03,-396.1 1092.28,-405.58 1099.23,-406.47"/>
</g>
<!-- [root] aws_security_group.alb_sg (expand)&#45;&gt;[root] data.aws_vpc.default (expand) -->
<g id="edge13" class="edge">
<title>[root] aws_security_group.alb_sg (expand)&#45;&gt;[root] data.aws_vpc.default (expand)</title>
<path fill="none" stroke="black" d="M980.57,-215.88C1003.78,-206.26 1032.92,-194.19 1057.5,-184.01"/>
<polygon fill="black" stroke="black" points="1059.12,-187.13 1067.02,-180.07 1056.44,-180.66 1059.12,-187.13"/>
</g>
<!-- [root] aws_security_group.alb_sg (expand)&#45;&gt;[root] var.puerto_lb -->
<g id="edge14" class="edge">
<title>[root] aws_security_group.alb_sg (expand)&#45;&gt;[root] var.puerto_lb</title>
<path fill="none" stroke="black" d="M942.2,-215.7C943.52,-207.98 945.11,-198.71 946.58,-190.11"/>
<polygon fill="black" stroke="black" points="950.06,-190.55 948.3,-180.1 943.16,-189.37 950.06,-190.55"/>
</g>
<!-- [root] var.puerto_servidor -->
<g id="node13" class="node">
<title>[root] var.puerto_servidor</title>
<polygon fill="none" stroke="black" points="872.23,-180 722.23,-180 722.23,-144 878.23,-144 878.23,-174 872.23,-180"/>
<polyline fill="none" stroke="black" points="872.23,-180 872.23,-174 "/>
<polyline fill="none" stroke="black" points="878.23,-174 872.23,-174 "/>
<text text-anchor="middle" x="800.23" y="-158.3" font-family="Times,serif" font-size="14.00">var.puerto_servidor</text>
</g>
<!-- [root] aws_security_group.alb_sg (expand)&#45;&gt;[root] var.puerto_servidor -->
<g id="edge15" class="edge">
<title>[root] aws_security_group.alb_sg (expand)&#45;&gt;[root] var.puerto_servidor</title>
<path fill="none" stroke="black" d="M905.23,-215.88C886.63,-206.51 863.4,-194.81 843.52,-184.8"/>
<polygon fill="black" stroke="black" points="844.87,-181.56 834.36,-180.19 841.72,-187.81 844.87,-181.56"/>
</g>
<!-- [root] aws_security_group.mi_sg (expand)&#45;&gt;[root] aws_security_group.alb_sg (expand) -->
<g id="edge16" class="edge">
<title>[root] aws_security_group.mi_sg (expand)&#45;&gt;[root] aws_security_group.alb_sg (expand)</title>
<path fill="none" stroke="black" d="M912.13,-287.7C916.23,-279.73 921.18,-270.1 925.72,-261.26"/>
<polygon fill="black" stroke="black" points="928.97,-262.6 930.43,-252.1 922.75,-259.4 928.97,-262.6"/>
</g>
<!-- [root] provider[&quot;registry.terraform.io/hashicorp/aws&quot;] -->
<g id="node10" class="node">
<title>[root] provider[&quot;registry.terraform.io/hashicorp/aws&quot;]</title>
<polygon fill="none" stroke="black" points="694.23,-108 368.97,-90 694.23,-72 1019.49,-90 694.23,-108"/>
<text text-anchor="middle" x="694.23" y="-86.3" font-family="Times,serif" font-size="14.00">provider[&quot;registry.terraform.io/hashicorp/aws&quot;]</text>
</g>
<!-- [root] data.aws_subnet.public_subnet (expand)&#45;&gt;[root] provider[&quot;registry.terraform.io/hashicorp/aws&quot;] -->
<g id="edge17" class="edge">
<title>[root] data.aws_subnet.public_subnet (expand)&#45;&gt;[root] provider[&quot;registry.terraform.io/hashicorp/aws&quot;]</title>
<path fill="none" stroke="black" d="M668.18,-287.88C670.47,-277.54 673.27,-264.06 675.23,-252 682.82,-205.28 688.64,-150.46 691.74,-118.35"/>
<polygon fill="black" stroke="black" points="695.26,-118.27 692.72,-107.99 688.29,-117.61 695.26,-118.27"/>
</g>
<!-- [root] var.servidores -->
<g id="node15" class="node">
<title>[root] var.servidores</title>
<polygon fill="none" stroke="black" points="660.23,-252 548.23,-252 548.23,-216 666.23,-216 666.23,-246 660.23,-252"/>
<polyline fill="none" stroke="black" points="660.23,-252 660.23,-246 "/>
<polyline fill="none" stroke="black" points="666.23,-246 660.23,-246 "/>
<text text-anchor="middle" x="607.23" y="-230.3" font-family="Times,serif" font-size="14.00">var.servidores</text>
</g>
<!-- [root] data.aws_subnet.public_subnet (expand)&#45;&gt;[root] var.servidores -->
<g id="edge18" class="edge">
<title>[root] data.aws_subnet.public_subnet (expand)&#45;&gt;[root] var.servidores</title>
<path fill="none" stroke="black" d="M650.14,-287.7C643.31,-279.3 634.97,-269.07 627.47,-259.86"/>
<polygon fill="black" stroke="black" points="630.19,-257.65 621.16,-252.1 624.76,-262.07 630.19,-257.65"/>
</g>
<!-- [root] data.aws_vpc.default (expand)&#45;&gt;[root] provider[&quot;registry.terraform.io/hashicorp/aws&quot;] -->
<g id="edge19" class="edge">
<title>[root] data.aws_vpc.default (expand)&#45;&gt;[root] provider[&quot;registry.terraform.io/hashicorp/aws&quot;]</title>
<path fill="none" stroke="black" d="M1024.59,-145.64C1021.43,-145.08 1018.3,-144.53 1015.23,-144 936.92,-130.38 847.71,-115.72 783.24,-105.28"/>
<polygon fill="black" stroke="black" points="783.55,-101.78 773.12,-103.64 782.43,-108.69 783.55,-101.78"/>
</g>
<!-- [root] local.region (expand) -->
<g id="node18" class="node">
<title>[root] local.region (expand)</title>
<ellipse fill="none" stroke="black" cx="516.23" cy="-18" rx="137.28" ry="18"/>
<text text-anchor="middle" x="516.23" y="-14.3" font-family="Times,serif" font-size="14.00">[root] local.region (expand)</text>
</g>
<!-- [root] provider[&quot;registry.terraform.io/hashicorp/aws&quot;]&#45;&gt;[root] local.region (expand) -->
<g id="edge27" class="edge">
<title>[root] provider[&quot;registry.terraform.io/hashicorp/aws&quot;]&#45;&gt;[root] local.region (expand)</title>
<path fill="none" stroke="black" d="M656.04,-73.98C629.98,-63.73 595.17,-50.04 566.81,-38.89"/>
<polygon fill="black" stroke="black" points="568.04,-35.61 557.45,-35.21 565.48,-42.13 568.04,-35.61"/>
</g>
<!-- [root] var.region -->
<g id="node14" class="node">
<title>[root] var.region</title>
<polygon fill="none" stroke="black" points="226.73,-540 143.73,-540 143.73,-504 232.73,-504 232.73,-534 226.73,-540"/>
<polyline fill="none" stroke="black" points="226.73,-540 226.73,-534 "/>
<polyline fill="none" stroke="black" points="232.73,-534 226.73,-534 "/>
<text text-anchor="middle" x="188.23" y="-518.3" font-family="Times,serif" font-size="14.00">var.region</text>
</g>
<!-- [root] var.ubuntu_ami -->
<g id="node16" class="node">
<title>[root] var.ubuntu_ami</title>
<polygon fill="none" stroke="black" points="304.73,-252 183.73,-252 183.73,-216 310.73,-216 310.73,-246 304.73,-252"/>
<polyline fill="none" stroke="black" points="304.73,-252 304.73,-246 "/>
<polyline fill="none" stroke="black" points="310.73,-246 304.73,-246 "/>
<text text-anchor="middle" x="247.23" y="-230.3" font-family="Times,serif" font-size="14.00">var.ubuntu_ami</text>
</g>
<!-- [root] local.ami (expand)&#45;&gt;[root] var.ubuntu_ami -->
<g id="edge21" class="edge">
<title>[root] local.ami (expand)&#45;&gt;[root] var.ubuntu_ami</title>
<path fill="none" stroke="black" d="M247.23,-287.7C247.23,-279.98 247.23,-270.71 247.23,-262.11"/>
<polygon fill="black" stroke="black" points="250.73,-262.1 247.23,-252.1 243.73,-262.1 250.73,-262.1"/>
</g>
<!-- [root] local.ami (expand)&#45;&gt;[root] local.region (expand) -->
<g id="edge20" class="edge">
<title>[root] local.ami (expand)&#45;&gt;[root] local.region (expand)</title>
<path fill="none" stroke="black" d="M279.06,-288.53C293.38,-279.57 309.28,-267.19 319.23,-252 364.2,-183.37 305.29,-132.94 360.23,-72 375.9,-54.62 397.49,-42.93 419.61,-35.08"/>
<polygon fill="black" stroke="black" points="420.71,-38.4 429.1,-31.94 418.51,-31.76 420.71,-38.4"/>
</g>
<!-- [root] output.dns_load_balancer (expand) -->
<g id="node19" class="node">
<title>[root] output.dns_load_balancer (expand)</title>
<ellipse fill="none" stroke="black" cx="705.23" cy="-450" rx="201.46" ry="18"/>
<text text-anchor="middle" x="705.23" y="-446.3" font-family="Times,serif" font-size="14.00">[root] output.dns_load_balancer (expand)</text>
</g>
<!-- [root] output.dns_load_balancer (expand)&#45;&gt;[root] aws_lb.albApplicacion (expand) -->
<g id="edge22" class="edge">
<title>[root] output.dns_load_balancer (expand)&#45;&gt;[root] aws_lb.albApplicacion (expand)</title>
<path fill="none" stroke="black" d="M725.56,-432.05C736.22,-423.18 749.43,-412.17 761.05,-402.48"/>
<polygon fill="black" stroke="black" points="763.35,-405.12 768.79,-396.03 758.87,-399.74 763.35,-405.12"/>
</g>
<!-- [root] output.dns_publica_servidores (expand) -->
<g id="node20" class="node">
<title>[root] output.dns_publica_servidores (expand)</title>
<ellipse fill="none" stroke="black" cx="224.23" cy="-450" rx="224.46" ry="18"/>
<text text-anchor="middle" x="224.23" y="-446.3" font-family="Times,serif" font-size="14.00">[root] output.dns_publica_servidores (expand)</text>
</g>
<!-- [root] output.dns_publica_servidores (expand)&#45;&gt;[root] aws_instance.servidores_ec2 (expand) -->
<g id="edge23" class="edge">
<title>[root] output.dns_publica_servidores (expand)&#45;&gt;[root] aws_instance.servidores_ec2 (expand)</title>
<path fill="none" stroke="black" d="M283.31,-432.59C319.64,-422.5 366.41,-409.5 404.81,-398.84"/>
<polygon fill="black" stroke="black" points="406.19,-402.09 414.89,-396.04 404.31,-395.34 406.19,-402.09"/>
</g>
<!-- [root] output.ipv4_servidores (expand) -->
<g id="node21" class="node">
<title>[root] output.ipv4_servidores (expand)</title>
<ellipse fill="none" stroke="black" cx="479.23" cy="-522" rx="189.57" ry="18"/>
<text text-anchor="middle" x="479.23" y="-518.3" font-family="Times,serif" font-size="14.00">[root] output.ipv4_servidores (expand)</text>
</g>
<!-- [root] output.ipv4_servidores (expand)&#45;&gt;[root] aws_instance.servidores_ec2 (expand) -->
<g id="edge24" class="edge">
<title>[root] output.ipv4_servidores (expand)&#45;&gt;[root] aws_instance.servidores_ec2 (expand)</title>
<path fill="none" stroke="black" d="M478.87,-503.87C478.36,-479.67 477.42,-435.21 476.81,-406.39"/>
<polygon fill="black" stroke="black" points="480.3,-406.11 476.59,-396.19 473.31,-406.26 480.3,-406.11"/>
</g>
<!-- [root] provider[&quot;registry.terraform.io/hashicorp/aws&quot;] (close) -->
<g id="node22" class="node">
<title>[root] provider[&quot;registry.terraform.io/hashicorp/aws&quot;] (close)</title>
<ellipse fill="none" stroke="black" cx="1090.23" cy="-522" rx="291.65" ry="18"/>
<text text-anchor="middle" x="1090.23" y="-518.3" font-family="Times,serif" font-size="14.00">[root] provider[&quot;registry.terraform.io/hashicorp/aws&quot;] (close)</text>
</g>
<!-- [root] provider[&quot;registry.terraform.io/hashicorp/aws&quot;] (close)&#45;&gt;[root] aws_lb_listener.listenerThis (expand) -->
<g id="edge25" class="edge">
<title>[root] provider[&quot;registry.terraform.io/hashicorp/aws&quot;] (close)&#45;&gt;[root] aws_lb_listener.listenerThis (expand)</title>
<path fill="none" stroke="black" d="M1158.82,-504.5C1201.24,-494.3 1255.89,-481.15 1300.4,-470.44"/>
<polygon fill="black" stroke="black" points="1301.41,-473.8 1310.31,-468.06 1299.77,-467 1301.41,-473.8"/>
</g>
<!-- [root] provider[&quot;registry.terraform.io/hashicorp/aws&quot;] (close)&#45;&gt;[root] aws_lb_target_group_attachment.servidores (expand) -->
<g id="edge26" class="edge">
<title>[root] provider[&quot;registry.terraform.io/hashicorp/aws&quot;] (close)&#45;&gt;[root] aws_lb_target_group_attachment.servidores (expand)</title>
<path fill="none" stroke="black" d="M1090.23,-503.7C1090.23,-495.98 1090.23,-486.71 1090.23,-478.11"/>
<polygon fill="black" stroke="black" points="1093.73,-478.1 1090.23,-468.1 1086.73,-478.1 1093.73,-478.1"/>
</g>
<!-- [root] root -->
<g id="node23" class="node">
<title>[root] root</title>
<ellipse fill="none" stroke="black" cx="479.23" cy="-594" rx="58.49" ry="18"/>
<text text-anchor="middle" x="479.23" y="-590.3" font-family="Times,serif" font-size="14.00">[root] root</text>
</g>
<!-- [root] root&#45;&gt;[root] var.region -->
<g id="edge32" class="edge">
<title>[root] root&#45;&gt;[root] var.region</title>
<path fill="none" stroke="black" d="M432.39,-583.1C385.39,-572.99 311.04,-556.47 247.23,-540 245.78,-539.63 244.31,-539.24 242.83,-538.85"/>
<polygon fill="black" stroke="black" points="243.5,-535.41 232.94,-536.17 241.67,-542.16 243.5,-535.41"/>
</g>
<!-- [root] root&#45;&gt;[root] output.dns_load_balancer (expand) -->
<g id="edge28" class="edge">
<title>[root] root&#45;&gt;[root] output.dns_load_balancer (expand)</title>
<path fill="none" stroke="black" d="M537.54,-592.11C581.65,-588.33 640.82,-576.15 678.23,-540 694.79,-524 701.28,-498.21 703.78,-478.5"/>
<polygon fill="black" stroke="black" points="707.29,-478.58 704.79,-468.28 700.32,-477.88 707.29,-478.58"/>
</g>
<!-- [root] root&#45;&gt;[root] output.dns_publica_servidores (expand) -->
<g id="edge29" class="edge">
<title>[root] root&#45;&gt;[root] output.dns_publica_servidores (expand)</title>
<path fill="none" stroke="black" d="M422.54,-589.03C379.87,-583.57 321.83,-570.63 280.23,-540 258.75,-524.19 243.55,-497.44 234.46,-477.38"/>
<polygon fill="black" stroke="black" points="237.65,-475.95 230.48,-468.15 231.22,-478.72 237.65,-475.95"/>
</g>
<!-- [root] root&#45;&gt;[root] output.ipv4_servidores (expand) -->
<g id="edge30" class="edge">
<title>[root] root&#45;&gt;[root] output.ipv4_servidores (expand)</title>
<path fill="none" stroke="black" d="M479.23,-575.7C479.23,-567.98 479.23,-558.71 479.23,-550.11"/>
<polygon fill="black" stroke="black" points="482.73,-550.1 479.23,-540.1 475.73,-550.1 482.73,-550.1"/>
</g>
<!-- [root] root&#45;&gt;[root] provider[&quot;registry.terraform.io/hashicorp/aws&quot;] (close) -->
<g id="edge31" class="edge">
<title>[root] root&#45;&gt;[root] provider[&quot;registry.terraform.io/hashicorp/aws&quot;] (close)</title>
<path fill="none" stroke="black" d="M532.92,-586.85C624.94,-576.31 815.68,-554.45 948.22,-539.27"/>
<polygon fill="black" stroke="black" points="948.92,-542.71 958.46,-538.1 948.13,-535.76 948.92,-542.71"/>
</g>
</g>
</svg>
