<?xml version="1.0" encoding="UTF-8" standalone="no"?>
<!DOCTYPE svg PUBLIC "-//W3C//DTD SVG 1.1//EN"
 "http://www.w3.org/Graphics/SVG/1.1/DTD/svg11.dtd">
<!-- Generated by graphviz version 2.43.0 (0)
 -->
<!-- Title: %3 Pages: 1 -->
<svg width="2135pt" height="620pt"
 viewBox="0.00 0.00 2135.26 620.00" xmlns="http://www.w3.org/2000/svg" xmlns:xlink="http://www.w3.org/1999/xlink">
<g id="graph0" class="graph" transform="scale(1 1) rotate(0) translate(4 616)">
<title>%3</title>
<polygon fill="white" stroke="transparent" points="-4,4 -4,-616 2131.26,-616 2131.26,4 -4,4"/>
<!-- [root] aws_instance.servidor_smavo_I (expand) -->
<g id="node1" class="node">
<title>[root] aws_instance.servidor_smavo_I (expand)</title>
<polygon fill="none" stroke="black" points="771.28,-396 532.28,-396 532.28,-360 771.28,-360 771.28,-396"/>
<text text-anchor="middle" x="651.78" y="-374.3" font-family="Times,serif" font-size="14.00">aws_instance.servidor_smavo_I</text>
</g>
<!-- [root] aws_security_group.mi_sg (expand) -->
<g id="node9" class="node">
<title>[root] aws_security_group.mi_sg (expand)</title>
<polygon fill="none" stroke="black" points="866.28,-324 663.28,-324 663.28,-288 866.28,-288 866.28,-324"/>
<text text-anchor="middle" x="764.78" y="-302.3" font-family="Times,serif" font-size="14.00">aws_security_group.mi_sg</text>
</g>
<!-- [root] aws_instance.servidor_smavo_I (expand)&#45;&gt;[root] aws_security_group.mi_sg (expand) -->
<g id="edge1" class="edge">
<title>[root] aws_instance.servidor_smavo_I (expand)&#45;&gt;[root] aws_security_group.mi_sg (expand)</title>
<path fill="none" stroke="black" d="M679.42,-359.88C694.2,-350.72 712.57,-339.34 728.48,-329.48"/>
<polygon fill="black" stroke="black" points="730.37,-332.43 737.03,-324.19 726.69,-326.48 730.37,-332.43"/>
</g>
<!-- [root] data.aws_subnet.az_b (expand) -->
<g id="node10" class="node">
<title>[root] data.aws_subnet.az_b (expand)</title>
<polygon fill="none" stroke="black" points="1211.78,-324 1039.78,-324 1039.78,-288 1211.78,-288 1211.78,-324"/>
<text text-anchor="middle" x="1125.78" y="-302.3" font-family="Times,serif" font-size="14.00">data.aws_subnet.az_b</text>
</g>
<!-- [root] aws_instance.servidor_smavo_I (expand)&#45;&gt;[root] data.aws_subnet.az_b (expand) -->
<g id="edge2" class="edge">
<title>[root] aws_instance.servidor_smavo_I (expand)&#45;&gt;[root] data.aws_subnet.az_b (expand)</title>
<path fill="none" stroke="black" d="M771.3,-360.79C858.12,-348.93 969.28,-333.53 1029.64,-324.14"/>
<polygon fill="black" stroke="black" points="1030.26,-327.58 1039.59,-322.57 1029.17,-320.67 1030.26,-327.58"/>
</g>
<!-- [root] var.ami -->
<g id="node14" class="node">
<title>[root] var.ami</title>
<polygon fill="none" stroke="black" points="639.28,-324 576.28,-324 576.28,-288 645.28,-288 645.28,-318 639.28,-324"/>
<polyline fill="none" stroke="black" points="639.28,-324 639.28,-318 "/>
<polyline fill="none" stroke="black" points="645.28,-318 639.28,-318 "/>
<text text-anchor="middle" x="610.78" y="-302.3" font-family="Times,serif" font-size="14.00">var.ami</text>
</g>
<!-- [root] aws_instance.servidor_smavo_I (expand)&#45;&gt;[root] var.ami -->
<g id="edge3" class="edge">
<title>[root] aws_instance.servidor_smavo_I (expand)&#45;&gt;[root] var.ami</title>
<path fill="none" stroke="black" d="M641.65,-359.7C636.93,-351.64 631.22,-341.89 626,-332.98"/>
<polygon fill="black" stroke="black" points="628.87,-330.96 620.8,-324.1 622.83,-334.5 628.87,-330.96"/>
</g>
<!-- [root] var.instanceType -->
<g id="node15" class="node">
<title>[root] var.instanceType</title>
<polygon fill="none" stroke="black" points="1015.28,-324 884.28,-324 884.28,-288 1021.28,-288 1021.28,-318 1015.28,-324"/>
<polyline fill="none" stroke="black" points="1015.28,-324 1015.28,-318 "/>
<polyline fill="none" stroke="black" points="1021.28,-318 1015.28,-318 "/>
<text text-anchor="middle" x="952.78" y="-302.3" font-family="Times,serif" font-size="14.00">var.instanceType</text>
</g>
<!-- [root] aws_instance.servidor_smavo_I (expand)&#45;&gt;[root] var.instanceType -->
<g id="edge4" class="edge">
<title>[root] aws_instance.servidor_smavo_I (expand)&#45;&gt;[root] var.instanceType</title>
<path fill="none" stroke="black" d="M725.03,-359.97C770.18,-349.47 828.06,-336.01 874.17,-325.28"/>
<polygon fill="black" stroke="black" points="875.17,-328.64 884.12,-322.97 873.59,-321.82 875.17,-328.64"/>
</g>
<!-- [root] aws_instance.servidor_smavo_II (expand) -->
<g id="node2" class="node">
<title>[root] aws_instance.servidor_smavo_II (expand)</title>
<polygon fill="none" stroke="black" points="1034.28,-396 789.28,-396 789.28,-360 1034.28,-360 1034.28,-396"/>
<text text-anchor="middle" x="911.78" y="-374.3" font-family="Times,serif" font-size="14.00">aws_instance.servidor_smavo_II</text>
</g>
<!-- [root] aws_instance.servidor_smavo_II (expand)&#45;&gt;[root] aws_security_group.mi_sg (expand) -->
<g id="edge5" class="edge">
<title>[root] aws_instance.servidor_smavo_II (expand)&#45;&gt;[root] aws_security_group.mi_sg (expand)</title>
<path fill="none" stroke="black" d="M875.82,-359.88C855.9,-350.39 830.96,-338.51 809.76,-328.42"/>
<polygon fill="black" stroke="black" points="811.16,-325.21 800.62,-324.07 808.15,-331.53 811.16,-325.21"/>
</g>
<!-- [root] data.aws_subnet.az_c (expand) -->
<g id="node11" class="node">
<title>[root] data.aws_subnet.az_c (expand)</title>
<polygon fill="none" stroke="black" points="1512.78,-324 1342.78,-324 1342.78,-288 1512.78,-288 1512.78,-324"/>
<text text-anchor="middle" x="1427.78" y="-302.3" font-family="Times,serif" font-size="14.00">data.aws_subnet.az_c</text>
</g>
<!-- [root] aws_instance.servidor_smavo_II (expand)&#45;&gt;[root] data.aws_subnet.az_c (expand) -->
<g id="edge6" class="edge">
<title>[root] aws_instance.servidor_smavo_II (expand)&#45;&gt;[root] data.aws_subnet.az_c (expand)</title>
<path fill="none" stroke="black" d="M1034.39,-360.37C1125.76,-347.97 1248.73,-331.29 1332.72,-319.9"/>
<polygon fill="black" stroke="black" points="1333.32,-323.35 1342.76,-318.53 1332.38,-316.41 1333.32,-323.35"/>
</g>
<!-- [root] aws_instance.servidor_smavo_II (expand)&#45;&gt;[root] var.ami -->
<g id="edge7" class="edge">
<title>[root] aws_instance.servidor_smavo_II (expand)&#45;&gt;[root] var.ami</title>
<path fill="none" stroke="black" d="M808.13,-359.97C763.31,-351.58 710.25,-340.28 655.26,-324.21"/>
<polygon fill="black" stroke="black" points="655.92,-320.75 645.33,-321.26 653.92,-327.46 655.92,-320.75"/>
</g>
<!-- [root] aws_instance.servidor_smavo_II (expand)&#45;&gt;[root] var.instanceType -->
<g id="edge8" class="edge">
<title>[root] aws_instance.servidor_smavo_II (expand)&#45;&gt;[root] var.instanceType</title>
<path fill="none" stroke="black" d="M921.92,-359.7C926.63,-351.64 932.34,-341.89 937.56,-332.98"/>
<polygon fill="black" stroke="black" points="940.73,-334.5 942.76,-324.1 934.69,-330.96 940.73,-334.5"/>
</g>
<!-- [root] aws_lb.albApplicacion (expand) -->
<g id="node3" class="node">
<title>[root] aws_lb.albApplicacion (expand)</title>
<polygon fill="none" stroke="black" points="1627.28,-396 1454.28,-396 1454.28,-360 1627.28,-360 1627.28,-396"/>
<text text-anchor="middle" x="1540.78" y="-374.3" font-family="Times,serif" font-size="14.00">aws_lb.albApplicacion</text>
</g>
<!-- [root] aws_security_group.alb_sg (expand) -->
<g id="node8" class="node">
<title>[root] aws_security_group.alb_sg (expand)</title>
<polygon fill="none" stroke="black" points="1286.28,-252 1079.28,-252 1079.28,-216 1286.28,-216 1286.28,-252"/>
<text text-anchor="middle" x="1182.78" y="-230.3" font-family="Times,serif" font-size="14.00">aws_security_group.alb_sg</text>
</g>
<!-- [root] aws_lb.albApplicacion (expand)&#45;&gt;[root] aws_security_group.alb_sg (expand) -->
<g id="edge9" class="edge">
<title>[root] aws_lb.albApplicacion (expand)&#45;&gt;[root] aws_security_group.alb_sg (expand)</title>
<path fill="none" stroke="black" d="M1542.39,-359.87C1543.27,-339.65 1541.29,-306.46 1521.78,-288 1489.84,-257.77 1381.97,-244.78 1296.38,-239.2"/>
<polygon fill="black" stroke="black" points="1296.53,-235.7 1286.33,-238.57 1296.09,-242.69 1296.53,-235.7"/>
</g>
<!-- [root] aws_lb.albApplicacion (expand)&#45;&gt;[root] data.aws_subnet.az_b (expand) -->
<g id="edge10" class="edge">
<title>[root] aws_lb.albApplicacion (expand)&#45;&gt;[root] data.aws_subnet.az_b (expand)</title>
<path fill="none" stroke="black" d="M1454.07,-361.44C1451.27,-360.95 1448.51,-360.47 1445.78,-360 1370.72,-347.07 1285.64,-333.01 1222.09,-322.62"/>
<polygon fill="black" stroke="black" points="1222.51,-319.14 1212.08,-320.98 1221.38,-326.05 1222.51,-319.14"/>
</g>
<!-- [root] aws_lb.albApplicacion (expand)&#45;&gt;[root] data.aws_subnet.az_c (expand) -->
<g id="edge11" class="edge">
<title>[root] aws_lb.albApplicacion (expand)&#45;&gt;[root] data.aws_subnet.az_c (expand)</title>
<path fill="none" stroke="black" d="M1513.14,-359.88C1498.36,-350.72 1479.99,-339.34 1464.08,-329.48"/>
<polygon fill="black" stroke="black" points="1465.87,-326.48 1455.53,-324.19 1462.19,-332.43 1465.87,-326.48"/>
</g>
<!-- [root] aws_lb_listener.listenerThis (expand) -->
<g id="node4" class="node">
<title>[root] aws_lb_listener.listenerThis (expand)</title>
<polygon fill="none" stroke="black" points="1706.78,-468 1492.78,-468 1492.78,-432 1706.78,-432 1706.78,-468"/>
<text text-anchor="middle" x="1599.78" y="-446.3" font-family="Times,serif" font-size="14.00">aws_lb_listener.listenerThis</text>
</g>
<!-- [root] aws_lb_listener.listenerThis (expand)&#45;&gt;[root] aws_lb.albApplicacion (expand) -->
<g id="edge12" class="edge">
<title>[root] aws_lb_listener.listenerThis (expand)&#45;&gt;[root] aws_lb.albApplicacion (expand)</title>
<path fill="none" stroke="black" d="M1585.2,-431.7C1578.12,-423.3 1569.5,-413.07 1561.74,-403.86"/>
<polygon fill="black" stroke="black" points="1564.32,-401.49 1555.2,-396.1 1558.97,-406.01 1564.32,-401.49"/>
</g>
<!-- [root] aws_lb_target_group.targetThis (expand) -->
<g id="node5" class="node">
<title>[root] aws_lb_target_group.targetThis (expand)</title>
<polygon fill="none" stroke="black" points="1436.28,-396 1193.28,-396 1193.28,-360 1436.28,-360 1436.28,-396"/>
<text text-anchor="middle" x="1314.78" y="-374.3" font-family="Times,serif" font-size="14.00">aws_lb_target_group.targetThis</text>
</g>
<!-- [root] aws_lb_listener.listenerThis (expand)&#45;&gt;[root] aws_lb_target_group.targetThis (expand) -->
<g id="edge13" class="edge">
<title>[root] aws_lb_listener.listenerThis (expand)&#45;&gt;[root] aws_lb_target_group.targetThis (expand)</title>
<path fill="none" stroke="black" d="M1530.43,-431.97C1489.31,-421.87 1437.04,-409.03 1394.26,-398.52"/>
<polygon fill="black" stroke="black" points="1394.99,-395.1 1384.45,-396.11 1393.32,-401.9 1394.99,-395.1"/>
</g>
<!-- [root] data.aws_vpc.default (expand) -->
<g id="node12" class="node">
<title>[root] data.aws_vpc.default (expand)</title>
<polygon fill="none" stroke="black" points="1314.28,-180 1147.28,-180 1147.28,-144 1314.28,-144 1314.28,-180"/>
<text text-anchor="middle" x="1230.78" y="-158.3" font-family="Times,serif" font-size="14.00">data.aws_vpc.default</text>
</g>
<!-- [root] aws_lb_target_group.targetThis (expand)&#45;&gt;[root] data.aws_vpc.default (expand) -->
<g id="edge14" class="edge">
<title>[root] aws_lb_target_group.targetThis (expand)&#45;&gt;[root] data.aws_vpc.default (expand)</title>
<path fill="none" stroke="black" d="M1316.78,-359.76C1319.52,-328.86 1321.52,-262.88 1295.78,-216 1289.42,-204.42 1279.4,-194.39 1269.12,-186.26"/>
<polygon fill="black" stroke="black" points="1271,-183.3 1260.88,-180.17 1266.84,-188.93 1271,-183.3"/>
</g>
<!-- [root] aws_lb_target_group_attachment.server_1 (expand) -->
<g id="node6" class="node">
<title>[root] aws_lb_target_group_attachment.server_1 (expand)</title>
<polygon fill="none" stroke="black" points="1137.28,-468 818.28,-468 818.28,-432 1137.28,-432 1137.28,-468"/>
<text text-anchor="middle" x="977.78" y="-446.3" font-family="Times,serif" font-size="14.00">aws_lb_target_group_attachment.server_1</text>
</g>
<!-- [root] aws_lb_target_group_attachment.server_1 (expand)&#45;&gt;[root] aws_instance.servidor_smavo_I (expand) -->
<g id="edge15" class="edge">
<title>[root] aws_lb_target_group_attachment.server_1 (expand)&#45;&gt;[root] aws_instance.servidor_smavo_I (expand)</title>
<path fill="none" stroke="black" d="M898.45,-431.97C850.93,-421.76 790.4,-408.76 741.19,-398.2"/>
<polygon fill="black" stroke="black" points="741.7,-394.73 731.19,-396.05 740.23,-401.57 741.7,-394.73"/>
</g>
<!-- [root] aws_lb_target_group_attachment.server_1 (expand)&#45;&gt;[root] aws_lb_target_group.targetThis (expand) -->
<g id="edge16" class="edge">
<title>[root] aws_lb_target_group_attachment.server_1 (expand)&#45;&gt;[root] aws_lb_target_group.targetThis (expand)</title>
<path fill="none" stroke="black" d="M1059.79,-431.97C1109.01,-421.74 1171.75,-408.71 1222.68,-398.13"/>
<polygon fill="black" stroke="black" points="1223.62,-401.51 1232.7,-396.05 1222.19,-394.66 1223.62,-401.51"/>
</g>
<!-- [root] aws_lb_target_group_attachment.server_2 (expand) -->
<g id="node7" class="node">
<title>[root] aws_lb_target_group_attachment.server_2 (expand)</title>
<polygon fill="none" stroke="black" points="1474.28,-468 1155.28,-468 1155.28,-432 1474.28,-432 1474.28,-468"/>
<text text-anchor="middle" x="1314.78" y="-446.3" font-family="Times,serif" font-size="14.00">aws_lb_target_group_attachment.server_2</text>
</g>
<!-- [root] aws_lb_target_group_attachment.server_2 (expand)&#45;&gt;[root] aws_instance.servidor_smavo_II (expand) -->
<g id="edge17" class="edge">
<title>[root] aws_lb_target_group_attachment.server_2 (expand)&#45;&gt;[root] aws_instance.servidor_smavo_II (expand)</title>
<path fill="none" stroke="black" d="M1216.71,-431.97C1157.23,-421.63 1081.26,-408.44 1020.02,-397.8"/>
<polygon fill="black" stroke="black" points="1020.39,-394.31 1009.94,-396.05 1019.19,-401.21 1020.39,-394.31"/>
</g>
<!-- [root] aws_lb_target_group_attachment.server_2 (expand)&#45;&gt;[root] aws_lb_target_group.targetThis (expand) -->
<g id="edge18" class="edge">
<title>[root] aws_lb_target_group_attachment.server_2 (expand)&#45;&gt;[root] aws_lb_target_group.targetThis (expand)</title>
<path fill="none" stroke="black" d="M1314.78,-431.7C1314.78,-423.98 1314.78,-414.71 1314.78,-406.11"/>
<polygon fill="black" stroke="black" points="1318.28,-406.1 1314.78,-396.1 1311.28,-406.1 1318.28,-406.1"/>
</g>
<!-- [root] aws_security_group.alb_sg (expand)&#45;&gt;[root] data.aws_vpc.default (expand) -->
<g id="edge19" class="edge">
<title>[root] aws_security_group.alb_sg (expand)&#45;&gt;[root] data.aws_vpc.default (expand)</title>
<path fill="none" stroke="black" d="M1194.65,-215.7C1200.28,-207.47 1207.14,-197.48 1213.35,-188.42"/>
<polygon fill="black" stroke="black" points="1216.28,-190.33 1219.05,-180.1 1210.51,-186.37 1216.28,-190.33"/>
</g>
<!-- [root] aws_security_group.mi_sg (expand)&#45;&gt;[root] aws_security_group.alb_sg (expand) -->
<g id="edge20" class="edge">
<title>[root] aws_security_group.mi_sg (expand)&#45;&gt;[root] aws_security_group.alb_sg (expand)</title>
<path fill="none" stroke="black" d="M866.5,-287.97C928.32,-277.61 1007.32,-264.38 1070.9,-253.74"/>
<polygon fill="black" stroke="black" points="1071.68,-257.15 1080.97,-252.05 1070.53,-250.25 1071.68,-257.15"/>
</g>
<!-- [root] provider[&quot;registry.terraform.io/hashicorp/aws&quot;] -->
<g id="node13" class="node">
<title>[root] provider[&quot;registry.terraform.io/hashicorp/aws&quot;]</title>
<polygon fill="none" stroke="black" points="1230.78,-108 905.52,-90 1230.78,-72 1556.04,-90 1230.78,-108"/>
<text text-anchor="middle" x="1230.78" y="-86.3" font-family="Times,serif" font-size="14.00">provider[&quot;registry.terraform.io/hashicorp/aws&quot;]</text>
</g>
<!-- [root] data.aws_subnet.az_b (expand)&#45;&gt;[root] provider[&quot;registry.terraform.io/hashicorp/aws&quot;] -->
<g id="edge21" class="edge">
<title>[root] data.aws_subnet.az_b (expand)&#45;&gt;[root] provider[&quot;registry.terraform.io/hashicorp/aws&quot;]</title>
<path fill="none" stroke="black" d="M1100.4,-287.95C1089.07,-278.79 1076.9,-266.4 1070.78,-252 1064.52,-237.28 1064.87,-230.87 1070.78,-216 1090.96,-165.25 1145.32,-130.14 1185.09,-110.34"/>
<polygon fill="black" stroke="black" points="1186.62,-113.49 1194.1,-105.98 1183.57,-107.18 1186.62,-113.49"/>
</g>
<!-- [root] data.aws_subnet.az_c (expand)&#45;&gt;[root] provider[&quot;registry.terraform.io/hashicorp/aws&quot;] -->
<g id="edge22" class="edge">
<title>[root] data.aws_subnet.az_c (expand)&#45;&gt;[root] provider[&quot;registry.terraform.io/hashicorp/aws&quot;]</title>
<path fill="none" stroke="black" d="M1420.12,-287.83C1405.3,-256.16 1370.07,-187.79 1323.78,-144 1309.66,-130.64 1291.54,-119.35 1275.06,-110.66"/>
<polygon fill="black" stroke="black" points="1276.61,-107.52 1266.11,-106.11 1273.44,-113.76 1276.61,-107.52"/>
</g>
<!-- [root] data.aws_vpc.default (expand)&#45;&gt;[root] provider[&quot;registry.terraform.io/hashicorp/aws&quot;] -->
<g id="edge23" class="edge">
<title>[root] data.aws_vpc.default (expand)&#45;&gt;[root] provider[&quot;registry.terraform.io/hashicorp/aws&quot;]</title>
<path fill="none" stroke="black" d="M1230.78,-143.7C1230.78,-135.98 1230.78,-126.71 1230.78,-118.11"/>
<polygon fill="black" stroke="black" points="1234.28,-118.1 1230.78,-108.1 1227.28,-118.1 1234.28,-118.1"/>
</g>
<!-- [root] var.region -->
<g id="node16" class="node">
<title>[root] var.region</title>
<polygon fill="none" stroke="black" points="1269.28,-36 1186.28,-36 1186.28,0 1275.28,0 1275.28,-30 1269.28,-36"/>
<polyline fill="none" stroke="black" points="1269.28,-36 1269.28,-30 "/>
<polyline fill="none" stroke="black" points="1275.28,-30 1269.28,-30 "/>
<text text-anchor="middle" x="1230.78" y="-14.3" font-family="Times,serif" font-size="14.00">var.region</text>
</g>
<!-- [root] provider[&quot;registry.terraform.io/hashicorp/aws&quot;]&#45;&gt;[root] var.region -->
<g id="edge32" class="edge">
<title>[root] provider[&quot;registry.terraform.io/hashicorp/aws&quot;]&#45;&gt;[root] var.region</title>
<path fill="none" stroke="black" d="M1230.78,-71.7C1230.78,-63.98 1230.78,-54.71 1230.78,-46.11"/>
<polygon fill="black" stroke="black" points="1234.28,-46.1 1230.78,-36.1 1227.28,-46.1 1234.28,-46.1"/>
</g>
<!-- [root] output.dns_load_balancer (expand) -->
<g id="node17" class="node">
<title>[root] output.dns_load_balancer (expand)</title>
<ellipse fill="none" stroke="black" cx="1925.78" cy="-450" rx="201.46" ry="18"/>
<text text-anchor="middle" x="1925.78" y="-446.3" font-family="Times,serif" font-size="14.00">[root] output.dns_load_balancer (expand)</text>
</g>
<!-- [root] output.dns_load_balancer (expand)&#45;&gt;[root] aws_lb.albApplicacion (expand) -->
<g id="edge24" class="edge">
<title>[root] output.dns_load_balancer (expand)&#45;&gt;[root] aws_lb.albApplicacion (expand)</title>
<path fill="none" stroke="black" d="M1841.29,-433.64C1781.09,-422.69 1700.06,-407.96 1637.31,-396.55"/>
<polygon fill="black" stroke="black" points="1637.87,-393.1 1627.41,-394.75 1636.62,-399.98 1637.87,-393.1"/>
</g>
<!-- [root] output.dns_publica_server_1 (expand) -->
<g id="node18" class="node">
<title>[root] output.dns_publica_server_1 (expand)</title>
<ellipse fill="none" stroke="black" cx="215.78" cy="-450" rx="215.56" ry="18"/>
<text text-anchor="middle" x="215.78" y="-446.3" font-family="Times,serif" font-size="14.00">[root] output.dns_publica_server_1 (expand)</text>
</g>
<!-- [root] output.dns_publica_server_1 (expand)&#45;&gt;[root] aws_instance.servidor_smavo_I (expand) -->
<g id="edge25" class="edge">
<title>[root] output.dns_publica_server_1 (expand)&#45;&gt;[root] aws_instance.servidor_smavo_I (expand)</title>
<path fill="none" stroke="black" d="M310.39,-433.81C376.51,-423.19 465.22,-408.95 535.63,-397.65"/>
<polygon fill="black" stroke="black" points="536.57,-401.04 545.89,-396 535.46,-394.13 536.57,-401.04"/>
</g>
<!-- [root] output.dns_publica_server_2 (expand) -->
<g id="node19" class="node">
<title>[root] output.dns_publica_server_2 (expand)</title>
<ellipse fill="none" stroke="black" cx="677.78" cy="-522" rx="215.56" ry="18"/>
<text text-anchor="middle" x="677.78" y="-518.3" font-family="Times,serif" font-size="14.00">[root] output.dns_publica_server_2 (expand)</text>
</g>
<!-- [root] output.dns_publica_server_2 (expand)&#45;&gt;[root] aws_instance.servidor_smavo_II (expand) -->
<g id="edge26" class="edge">
<title>[root] output.dns_publica_server_2 (expand)&#45;&gt;[root] aws_instance.servidor_smavo_II (expand)</title>
<path fill="none" stroke="black" d="M698.33,-503.94C721.74,-484.98 761.57,-454.12 798.78,-432 818.56,-420.24 841.37,-409.12 861.3,-400.13"/>
<polygon fill="black" stroke="black" points="862.81,-403.29 870.52,-396.02 859.96,-396.89 862.81,-403.29"/>
</g>
<!-- [root] output.ipv4_servidor_1 (expand) -->
<g id="node20" class="node">
<title>[root] output.ipv4_servidor_1 (expand)</title>
<ellipse fill="none" stroke="black" cx="253.78" cy="-522" rx="189.57" ry="18"/>
<text text-anchor="middle" x="253.78" y="-518.3" font-family="Times,serif" font-size="14.00">[root] output.ipv4_servidor_1 (expand)</text>
</g>
<!-- [root] output.ipv4_servidor_1 (expand)&#45;&gt;[root] aws_instance.servidor_smavo_I (expand) -->
<g id="edge27" class="edge">
<title>[root] output.ipv4_servidor_1 (expand)&#45;&gt;[root] aws_instance.servidor_smavo_I (expand)</title>
<path fill="none" stroke="black" d="M317.57,-505C354.01,-495.35 400.35,-482.2 440.78,-468 498.67,-447.67 563.45,-419.51 605.77,-400.35"/>
<polygon fill="black" stroke="black" points="607.32,-403.49 614.97,-396.16 604.42,-397.11 607.32,-403.49"/>
</g>
<!-- [root] output.ipv4_servidor_2 (expand) -->
<g id="node21" class="node">
<title>[root] output.ipv4_servidor_2 (expand)</title>
<ellipse fill="none" stroke="black" cx="1101.78" cy="-522" rx="189.57" ry="18"/>
<text text-anchor="middle" x="1101.78" y="-518.3" font-family="Times,serif" font-size="14.00">[root] output.ipv4_servidor_2 (expand)</text>
</g>
<!-- [root] output.ipv4_servidor_2 (expand)&#45;&gt;[root] aws_instance.servidor_smavo_II (expand) -->
<g id="edge28" class="edge">
<title>[root] output.ipv4_servidor_2 (expand)&#45;&gt;[root] aws_instance.servidor_smavo_II (expand)</title>
<path fill="none" stroke="black" d="M988.65,-507.54C911.29,-497.16 820.67,-482.23 808.78,-468 798.52,-455.72 800.45,-445.66 808.78,-432 816.99,-418.55 829.81,-408.37 843.67,-400.72"/>
<polygon fill="black" stroke="black" points="845.55,-403.69 852.88,-396.04 842.38,-397.44 845.55,-403.69"/>
</g>
<!-- [root] provider[&quot;registry.terraform.io/hashicorp/aws&quot;] (close) -->
<g id="node22" class="node">
<title>[root] provider[&quot;registry.terraform.io/hashicorp/aws&quot;] (close)</title>
<ellipse fill="none" stroke="black" cx="1601.78" cy="-522" rx="291.65" ry="18"/>
<text text-anchor="middle" x="1601.78" y="-518.3" font-family="Times,serif" font-size="14.00">[root] provider[&quot;registry.terraform.io/hashicorp/aws&quot;] (close)</text>
</g>
<!-- [root] provider[&quot;registry.terraform.io/hashicorp/aws&quot;] (close)&#45;&gt;[root] aws_lb_listener.listenerThis (expand) -->
<g id="edge29" class="edge">
<title>[root] provider[&quot;registry.terraform.io/hashicorp/aws&quot;] (close)&#45;&gt;[root] aws_lb_listener.listenerThis (expand)</title>
<path fill="none" stroke="black" d="M1601.29,-503.7C1601.07,-495.98 1600.8,-486.71 1600.56,-478.11"/>
<polygon fill="black" stroke="black" points="1604.05,-478 1600.27,-468.1 1597.06,-478.2 1604.05,-478"/>
</g>
<!-- [root] provider[&quot;registry.terraform.io/hashicorp/aws&quot;] (close)&#45;&gt;[root] aws_lb_target_group_attachment.server_1 (expand) -->
<g id="edge30" class="edge">
<title>[root] provider[&quot;registry.terraform.io/hashicorp/aws&quot;] (close)&#45;&gt;[root] aws_lb_target_group_attachment.server_1 (expand)</title>
<path fill="none" stroke="black" d="M1467.92,-505.98C1371.74,-495.19 1241.61,-480.6 1139.61,-469.15"/>
<polygon fill="black" stroke="black" points="1139.84,-465.66 1129.51,-468.02 1139.06,-472.61 1139.84,-465.66"/>
</g>
<!-- [root] provider[&quot;registry.terraform.io/hashicorp/aws&quot;] (close)&#45;&gt;[root] aws_lb_target_group_attachment.server_2 (expand) -->
<g id="edge31" class="edge">
<title>[root] provider[&quot;registry.terraform.io/hashicorp/aws&quot;] (close)&#45;&gt;[root] aws_lb_target_group_attachment.server_2 (expand)</title>
<path fill="none" stroke="black" d="M1533.77,-504.41C1491.93,-494.21 1438.12,-481.08 1394.31,-470.4"/>
<polygon fill="black" stroke="black" points="1395.1,-466.99 1384.55,-468.02 1393.44,-473.79 1395.1,-466.99"/>
</g>
<!-- [root] root -->
<g id="node23" class="node">
<title>[root] root</title>
<ellipse fill="none" stroke="black" cx="889.78" cy="-594" rx="58.49" ry="18"/>
<text text-anchor="middle" x="889.78" y="-590.3" font-family="Times,serif" font-size="14.00">[root] root</text>
</g>
<!-- [root] root&#45;&gt;[root] output.dns_load_balancer (expand) -->
<g id="edge33" class="edge">
<title>[root] root&#45;&gt;[root] output.dns_load_balancer (expand)</title>
<path fill="none" stroke="black" d="M948.02,-591.84C1157.98,-587.43 1865.64,-570.35 1902.78,-540 1920.69,-525.36 1925.7,-498.77 1926.66,-478.45"/>
<polygon fill="black" stroke="black" points="1930.17,-478.27 1926.85,-468.21 1923.17,-478.14 1930.17,-478.27"/>
</g>
<!-- [root] root&#45;&gt;[root] output.dns_publica_server_1 (expand) -->
<g id="edge34" class="edge">
<title>[root] root&#45;&gt;[root] output.dns_publica_server_1 (expand)</title>
<path fill="none" stroke="black" d="M831.55,-591.47C646.34,-586.31 81.36,-568.32 54.78,-540 24.33,-507.55 74.71,-484.06 126.96,-469.39"/>
<polygon fill="black" stroke="black" points="127.98,-472.74 136.72,-466.75 126.16,-465.98 127.98,-472.74"/>
</g>
<!-- [root] root&#45;&gt;[root] output.dns_publica_server_2 (expand) -->
<g id="edge35" class="edge">
<title>[root] root&#45;&gt;[root] output.dns_publica_server_2 (expand)</title>
<path fill="none" stroke="black" d="M851.39,-580.32C819.62,-569.84 773.96,-554.76 737.43,-542.7"/>
<polygon fill="black" stroke="black" points="738.47,-539.35 727.88,-539.54 736.28,-546 738.47,-539.35"/>
</g>
<!-- [root] root&#45;&gt;[root] output.ipv4_servidor_1 (expand) -->
<g id="edge36" class="edge">
<title>[root] root&#45;&gt;[root] output.ipv4_servidor_1 (expand)</title>
<path fill="none" stroke="black" d="M835.56,-587.03C736.06,-576.08 521.83,-552.5 382.95,-537.22"/>
<polygon fill="black" stroke="black" points="382.99,-533.7 372.67,-536.08 382.22,-540.66 382.99,-533.7"/>
</g>
<!-- [root] root&#45;&gt;[root] output.ipv4_servidor_2 (expand) -->
<g id="edge37" class="edge">
<title>[root] root&#45;&gt;[root] output.ipv4_servidor_2 (expand)</title>
<path fill="none" stroke="black" d="M928.17,-580.32C960.05,-569.8 1005.92,-554.65 1042.51,-542.57"/>
<polygon fill="black" stroke="black" points="1043.68,-545.87 1052.08,-539.41 1041.48,-539.22 1043.68,-545.87"/>
</g>
<!-- [root] root&#45;&gt;[root] provider[&quot;registry.terraform.io/hashicorp/aws&quot;] (close) -->
<g id="edge38" class="edge">
<title>[root] root&#45;&gt;[root] provider[&quot;registry.terraform.io/hashicorp/aws&quot;] (close)</title>
<path fill="none" stroke="black" d="M944.76,-587.59C1050.41,-577.21 1285.32,-554.11 1443.67,-538.54"/>
<polygon fill="black" stroke="black" points="1444.38,-541.99 1453.98,-537.53 1443.69,-535.03 1444.38,-541.99"/>
</g>
</g>
</svg>
