<?xml version="1.0" encoding="UTF-8" standalone="no"?>
<!DOCTYPE svg PUBLIC "-//W3C//DTD SVG 1.1//EN"
 "http://www.w3.org/Graphics/SVG/1.1/DTD/svg11.dtd">
<!-- Generated by graphviz version 2.43.0 (0)
 -->
<!-- Title: %3 Pages: 1 -->
<svg width="2288pt" height="476pt"
 viewBox="0.00 0.00 2287.56 476.00" xmlns="http://www.w3.org/2000/svg" xmlns:xlink="http://www.w3.org/1999/xlink">
<g id="graph0" class="graph" transform="scale(1 1) rotate(0) translate(4 472)">
<title>%3</title>
<polygon fill="white" stroke="transparent" points="-4,4 -4,-472 2283.56,-472 2283.56,4 -4,4"/>
<!-- [root] aws_instance.servidor_smavo_I (expand) -->
<g id="node1" class="node">
<title>[root] aws_instance.servidor_smavo_I (expand)</title>
<polygon fill="none" stroke="black" points="1088.28,-324 849.28,-324 849.28,-288 1088.28,-288 1088.28,-324"/>
<text text-anchor="middle" x="968.78" y="-302.3" font-family="Times,serif" font-size="14.00">aws_instance.servidor_smavo_I</text>
</g>
<!-- [root] aws_security_group.mi_sg (expand) -->
<g id="node3" class="node">
<title>[root] aws_security_group.mi_sg (expand)</title>
<polygon fill="none" stroke="black" points="1258.28,-252 1055.28,-252 1055.28,-216 1258.28,-216 1258.28,-252"/>
<text text-anchor="middle" x="1156.78" y="-230.3" font-family="Times,serif" font-size="14.00">aws_security_group.mi_sg</text>
</g>
<!-- [root] aws_instance.servidor_smavo_I (expand)&#45;&gt;[root] aws_security_group.mi_sg (expand) -->
<g id="edge1" class="edge">
<title>[root] aws_instance.servidor_smavo_I (expand)&#45;&gt;[root] aws_security_group.mi_sg (expand)</title>
<path fill="none" stroke="black" d="M1014.77,-287.88C1040.93,-278.14 1073.87,-265.87 1101.44,-255.61"/>
<polygon fill="black" stroke="black" points="1102.79,-258.84 1110.94,-252.07 1100.35,-252.28 1102.79,-258.84"/>
</g>
<!-- [root] data.aws_subnet.az_b (expand) -->
<g id="node4" class="node">
<title>[root] data.aws_subnet.az_b (expand)</title>
<polygon fill="none" stroke="black" points="1006.78,-180 834.78,-180 834.78,-144 1006.78,-144 1006.78,-180"/>
<text text-anchor="middle" x="920.78" y="-158.3" font-family="Times,serif" font-size="14.00">data.aws_subnet.az_b</text>
</g>
<!-- [root] aws_instance.servidor_smavo_I (expand)&#45;&gt;[root] data.aws_subnet.az_b (expand) -->
<g id="edge2" class="edge">
<title>[root] aws_instance.servidor_smavo_I (expand)&#45;&gt;[root] data.aws_subnet.az_b (expand)</title>
<path fill="none" stroke="black" d="M929.51,-287.9C914.92,-279.37 899.94,-267.51 891.78,-252 881.13,-231.73 890.99,-206.8 902.02,-188.49"/>
<polygon fill="black" stroke="black" points="904.96,-190.38 907.43,-180.08 899.08,-186.59 904.96,-190.38"/>
</g>
<!-- [root] var.ami -->
<g id="node8" class="node">
<title>[root] var.ami</title>
<polygon fill="none" stroke="black" points="1339.28,-252 1276.28,-252 1276.28,-216 1345.28,-216 1345.28,-246 1339.28,-252"/>
<polyline fill="none" stroke="black" points="1339.28,-252 1339.28,-246 "/>
<polyline fill="none" stroke="black" points="1345.28,-246 1339.28,-246 "/>
<text text-anchor="middle" x="1310.78" y="-230.3" font-family="Times,serif" font-size="14.00">var.ami</text>
</g>
<!-- [root] aws_instance.servidor_smavo_I (expand)&#45;&gt;[root] var.ami -->
<g id="edge3" class="edge">
<title>[root] aws_instance.servidor_smavo_I (expand)&#45;&gt;[root] var.ami</title>
<path fill="none" stroke="black" d="M1088.61,-289.4C1141.07,-281.21 1203.29,-269.64 1266.51,-252.09"/>
<polygon fill="black" stroke="black" points="1267.58,-255.43 1276.26,-249.34 1265.68,-248.69 1267.58,-255.43"/>
</g>
<!-- [root] var.instanceType -->
<g id="node9" class="node">
<title>[root] var.instanceType</title>
<polygon fill="none" stroke="black" points="1031.28,-252 900.28,-252 900.28,-216 1037.28,-216 1037.28,-246 1031.28,-252"/>
<polyline fill="none" stroke="black" points="1031.28,-252 1031.28,-246 "/>
<polyline fill="none" stroke="black" points="1037.28,-246 1031.28,-246 "/>
<text text-anchor="middle" x="968.78" y="-230.3" font-family="Times,serif" font-size="14.00">var.instanceType</text>
</g>
<!-- [root] aws_instance.servidor_smavo_I (expand)&#45;&gt;[root] var.instanceType -->
<g id="edge4" class="edge">
<title>[root] aws_instance.servidor_smavo_I (expand)&#45;&gt;[root] var.instanceType</title>
<path fill="none" stroke="black" d="M968.78,-287.7C968.78,-279.98 968.78,-270.71 968.78,-262.11"/>
<polygon fill="black" stroke="black" points="972.28,-262.1 968.78,-252.1 965.28,-262.1 972.28,-262.1"/>
</g>
<!-- [root] aws_instance.servidor_smavo_II (expand) -->
<g id="node2" class="node">
<title>[root] aws_instance.servidor_smavo_II (expand)</title>
<polygon fill="none" stroke="black" points="1433.28,-324 1188.28,-324 1188.28,-288 1433.28,-288 1433.28,-324"/>
<text text-anchor="middle" x="1310.78" y="-302.3" font-family="Times,serif" font-size="14.00">aws_instance.servidor_smavo_II</text>
</g>
<!-- [root] aws_instance.servidor_smavo_II (expand)&#45;&gt;[root] aws_security_group.mi_sg (expand) -->
<g id="edge5" class="edge">
<title>[root] aws_instance.servidor_smavo_II (expand)&#45;&gt;[root] aws_security_group.mi_sg (expand)</title>
<path fill="none" stroke="black" d="M1273.11,-287.88C1252.15,-278.35 1225.88,-266.41 1203.61,-256.28"/>
<polygon fill="black" stroke="black" points="1204.89,-253.02 1194.33,-252.07 1201.99,-259.39 1204.89,-253.02"/>
</g>
<!-- [root] data.aws_subnet.az_c (expand) -->
<g id="node5" class="node">
<title>[root] data.aws_subnet.az_c (expand)</title>
<polygon fill="none" stroke="black" points="1443.78,-180 1273.78,-180 1273.78,-144 1443.78,-144 1443.78,-180"/>
<text text-anchor="middle" x="1358.78" y="-158.3" font-family="Times,serif" font-size="14.00">data.aws_subnet.az_c</text>
</g>
<!-- [root] aws_instance.servidor_smavo_II (expand)&#45;&gt;[root] data.aws_subnet.az_c (expand) -->
<g id="edge6" class="edge">
<title>[root] aws_instance.servidor_smavo_II (expand)&#45;&gt;[root] data.aws_subnet.az_c (expand)</title>
<path fill="none" stroke="black" d="M1330,-287.82C1339.28,-278.28 1349.52,-265.61 1354.78,-252 1362.39,-232.31 1363.03,-208.33 1361.96,-190.22"/>
<polygon fill="black" stroke="black" points="1365.43,-189.74 1361.15,-180.05 1358.46,-190.3 1365.43,-189.74"/>
</g>
<!-- [root] aws_instance.servidor_smavo_II (expand)&#45;&gt;[root] var.ami -->
<g id="edge7" class="edge">
<title>[root] aws_instance.servidor_smavo_II (expand)&#45;&gt;[root] var.ami</title>
<path fill="none" stroke="black" d="M1310.78,-287.7C1310.78,-279.98 1310.78,-270.71 1310.78,-262.11"/>
<polygon fill="black" stroke="black" points="1314.28,-262.1 1310.78,-252.1 1307.28,-262.1 1314.28,-262.1"/>
</g>
<!-- [root] aws_instance.servidor_smavo_II (expand)&#45;&gt;[root] var.instanceType -->
<g id="edge8" class="edge">
<title>[root] aws_instance.servidor_smavo_II (expand)&#45;&gt;[root] var.instanceType</title>
<path fill="none" stroke="black" d="M1224.21,-287.99C1175.16,-278.27 1112.4,-265.68 1047.66,-252.17"/>
<polygon fill="black" stroke="black" points="1048.18,-248.7 1037.67,-250.08 1046.75,-255.55 1048.18,-248.7"/>
</g>
<!-- [root] data.aws_vpc.default (expand) -->
<g id="node6" class="node">
<title>[root] data.aws_vpc.default (expand)</title>
<polygon fill="none" stroke="black" points="1240.28,-180 1073.28,-180 1073.28,-144 1240.28,-144 1240.28,-180"/>
<text text-anchor="middle" x="1156.78" y="-158.3" font-family="Times,serif" font-size="14.00">data.aws_vpc.default</text>
</g>
<!-- [root] aws_security_group.mi_sg (expand)&#45;&gt;[root] data.aws_vpc.default (expand) -->
<g id="edge9" class="edge">
<title>[root] aws_security_group.mi_sg (expand)&#45;&gt;[root] data.aws_vpc.default (expand)</title>
<path fill="none" stroke="black" d="M1156.78,-215.7C1156.78,-207.98 1156.78,-198.71 1156.78,-190.11"/>
<polygon fill="black" stroke="black" points="1160.28,-190.1 1156.78,-180.1 1153.28,-190.1 1160.28,-190.1"/>
</g>
<!-- [root] provider[&quot;registry.terraform.io/hashicorp/aws&quot;] -->
<g id="node7" class="node">
<title>[root] provider[&quot;registry.terraform.io/hashicorp/aws&quot;]</title>
<polygon fill="none" stroke="black" points="1156.78,-108 831.52,-90 1156.78,-72 1482.05,-90 1156.78,-108"/>
<text text-anchor="middle" x="1156.78" y="-86.3" font-family="Times,serif" font-size="14.00">provider[&quot;registry.terraform.io/hashicorp/aws&quot;]</text>
</g>
<!-- [root] data.aws_subnet.az_b (expand)&#45;&gt;[root] provider[&quot;registry.terraform.io/hashicorp/aws&quot;] -->
<g id="edge10" class="edge">
<title>[root] data.aws_subnet.az_b (expand)&#45;&gt;[root] provider[&quot;registry.terraform.io/hashicorp/aws&quot;]</title>
<path fill="none" stroke="black" d="M978.21,-143.97C1014.63,-133.16 1061.61,-119.23 1098.24,-108.37"/>
<polygon fill="black" stroke="black" points="1099.68,-111.59 1108.27,-105.39 1097.69,-104.88 1099.68,-111.59"/>
</g>
<!-- [root] data.aws_subnet.az_c (expand)&#45;&gt;[root] provider[&quot;registry.terraform.io/hashicorp/aws&quot;] -->
<g id="edge11" class="edge">
<title>[root] data.aws_subnet.az_c (expand)&#45;&gt;[root] provider[&quot;registry.terraform.io/hashicorp/aws&quot;]</title>
<path fill="none" stroke="black" d="M1309.63,-143.97C1279.17,-133.41 1240.09,-119.87 1209.07,-109.12"/>
<polygon fill="black" stroke="black" points="1209.9,-105.7 1199.3,-105.73 1207.61,-112.32 1209.9,-105.7"/>
</g>
<!-- [root] data.aws_vpc.default (expand)&#45;&gt;[root] provider[&quot;registry.terraform.io/hashicorp/aws&quot;] -->
<g id="edge12" class="edge">
<title>[root] data.aws_vpc.default (expand)&#45;&gt;[root] provider[&quot;registry.terraform.io/hashicorp/aws&quot;]</title>
<path fill="none" stroke="black" d="M1156.78,-143.7C1156.78,-135.98 1156.78,-126.71 1156.78,-118.11"/>
<polygon fill="black" stroke="black" points="1160.28,-118.1 1156.78,-108.1 1153.28,-118.1 1160.28,-118.1"/>
</g>
<!-- [root] var.region -->
<g id="node10" class="node">
<title>[root] var.region</title>
<polygon fill="none" stroke="black" points="1195.28,-36 1112.28,-36 1112.28,0 1201.28,0 1201.28,-30 1195.28,-36"/>
<polyline fill="none" stroke="black" points="1195.28,-36 1195.28,-30 "/>
<polyline fill="none" stroke="black" points="1201.28,-30 1195.28,-30 "/>
<text text-anchor="middle" x="1156.78" y="-14.3" font-family="Times,serif" font-size="14.00">var.region</text>
</g>
<!-- [root] provider[&quot;registry.terraform.io/hashicorp/aws&quot;]&#45;&gt;[root] var.region -->
<g id="edge19" class="edge">
<title>[root] provider[&quot;registry.terraform.io/hashicorp/aws&quot;]&#45;&gt;[root] var.region</title>
<path fill="none" stroke="black" d="M1156.78,-71.7C1156.78,-63.98 1156.78,-54.71 1156.78,-46.11"/>
<polygon fill="black" stroke="black" points="1160.28,-46.1 1156.78,-36.1 1153.28,-46.1 1160.28,-46.1"/>
</g>
<!-- [root] output.dns_publica_server_1 (expand) -->
<g id="node11" class="node">
<title>[root] output.dns_publica_server_1 (expand)</title>
<ellipse fill="none" stroke="black" cx="613.78" cy="-378" rx="215.56" ry="18"/>
<text text-anchor="middle" x="613.78" y="-374.3" font-family="Times,serif" font-size="14.00">[root] output.dns_publica_server_1 (expand)</text>
</g>
<!-- [root] output.dns_publica_server_1 (expand)&#45;&gt;[root] aws_instance.servidor_smavo_I (expand) -->
<g id="edge13" class="edge">
<title>[root] output.dns_publica_server_1 (expand)&#45;&gt;[root] aws_instance.servidor_smavo_I (expand)</title>
<path fill="none" stroke="black" d="M693.89,-361.2C746.85,-350.76 816.56,-337.02 872.52,-325.98"/>
<polygon fill="black" stroke="black" points="873.31,-329.39 882.45,-324.02 871.96,-322.52 873.31,-329.39"/>
</g>
<!-- [root] output.dns_publica_server_2 (expand) -->
<g id="node12" class="node">
<title>[root] output.dns_publica_server_2 (expand)</title>
<ellipse fill="none" stroke="black" cx="2063.78" cy="-378" rx="215.56" ry="18"/>
<text text-anchor="middle" x="2063.78" y="-374.3" font-family="Times,serif" font-size="14.00">[root] output.dns_publica_server_2 (expand)</text>
</g>
<!-- [root] output.dns_publica_server_2 (expand)&#45;&gt;[root] aws_instance.servidor_smavo_II (expand) -->
<g id="edge14" class="edge">
<title>[root] output.dns_publica_server_2 (expand)&#45;&gt;[root] aws_instance.servidor_smavo_II (expand)</title>
<path fill="none" stroke="black" d="M1925.67,-364.16C1788.26,-351.39 1578.87,-331.92 1443.41,-319.33"/>
<polygon fill="black" stroke="black" points="1443.66,-315.84 1433.38,-318.4 1443.01,-322.81 1443.66,-315.84"/>
</g>
<!-- [root] output.ipv4_servidor_1 (expand) -->
<g id="node13" class="node">
<title>[root] output.ipv4_servidor_1 (expand)</title>
<ellipse fill="none" stroke="black" cx="189.78" cy="-378" rx="189.57" ry="18"/>
<text text-anchor="middle" x="189.78" y="-374.3" font-family="Times,serif" font-size="14.00">[root] output.ipv4_servidor_1 (expand)</text>
</g>
<!-- [root] output.ipv4_servidor_1 (expand)&#45;&gt;[root] aws_instance.servidor_smavo_I (expand) -->
<g id="edge15" class="edge">
<title>[root] output.ipv4_servidor_1 (expand)&#45;&gt;[root] aws_instance.servidor_smavo_I (expand)</title>
<path fill="none" stroke="black" d="M322.37,-365.09C466.69,-352.12 695.94,-331.52 839.1,-318.65"/>
<polygon fill="black" stroke="black" points="839.61,-322.12 849.25,-317.74 838.98,-315.15 839.61,-322.12"/>
</g>
<!-- [root] output.ipv4_servidor_2 (expand) -->
<g id="node14" class="node">
<title>[root] output.ipv4_servidor_2 (expand)</title>
<ellipse fill="none" stroke="black" cx="1639.78" cy="-378" rx="189.57" ry="18"/>
<text text-anchor="middle" x="1639.78" y="-374.3" font-family="Times,serif" font-size="14.00">[root] output.ipv4_servidor_2 (expand)</text>
</g>
<!-- [root] output.ipv4_servidor_2 (expand)&#45;&gt;[root] aws_instance.servidor_smavo_II (expand) -->
<g id="edge16" class="edge">
<title>[root] output.ipv4_servidor_2 (expand)&#45;&gt;[root] aws_instance.servidor_smavo_II (expand)</title>
<path fill="none" stroke="black" d="M1566.36,-361.38C1517.43,-350.97 1452.81,-337.22 1400.79,-326.15"/>
<polygon fill="black" stroke="black" points="1401.4,-322.7 1390.89,-324.04 1399.95,-329.55 1401.4,-322.7"/>
</g>
<!-- [root] provider[&quot;registry.terraform.io/hashicorp/aws&quot;] (close) -->
<g id="node15" class="node">
<title>[root] provider[&quot;registry.terraform.io/hashicorp/aws&quot;] (close)</title>
<ellipse fill="none" stroke="black" cx="1139.78" cy="-378" rx="291.65" ry="18"/>
<text text-anchor="middle" x="1139.78" y="-374.3" font-family="Times,serif" font-size="14.00">[root] provider[&quot;registry.terraform.io/hashicorp/aws&quot;] (close)</text>
</g>
<!-- [root] provider[&quot;registry.terraform.io/hashicorp/aws&quot;] (close)&#45;&gt;[root] aws_instance.servidor_smavo_I (expand) -->
<g id="edge17" class="edge">
<title>[root] provider[&quot;registry.terraform.io/hashicorp/aws&quot;] (close)&#45;&gt;[root] aws_instance.servidor_smavo_I (expand)</title>
<path fill="none" stroke="black" d="M1098.39,-360.05C1074.72,-350.37 1044.85,-338.14 1019.75,-327.86"/>
<polygon fill="black" stroke="black" points="1020.97,-324.58 1010.39,-324.03 1018.32,-331.06 1020.97,-324.58"/>
</g>
<!-- [root] provider[&quot;registry.terraform.io/hashicorp/aws&quot;] (close)&#45;&gt;[root] aws_instance.servidor_smavo_II (expand) -->
<g id="edge18" class="edge">
<title>[root] provider[&quot;registry.terraform.io/hashicorp/aws&quot;] (close)&#45;&gt;[root] aws_instance.servidor_smavo_II (expand)</title>
<path fill="none" stroke="black" d="M1181.18,-360.05C1204.84,-350.37 1234.71,-338.14 1259.81,-327.86"/>
<polygon fill="black" stroke="black" points="1261.25,-331.06 1269.18,-324.03 1258.6,-324.58 1261.25,-331.06"/>
</g>
<!-- [root] root -->
<g id="node16" class="node">
<title>[root] root</title>
<ellipse fill="none" stroke="black" cx="1139.78" cy="-450" rx="58.49" ry="18"/>
<text text-anchor="middle" x="1139.78" y="-446.3" font-family="Times,serif" font-size="14.00">[root] root</text>
</g>
<!-- [root] root&#45;&gt;[root] output.dns_publica_server_1 (expand) -->
<g id="edge20" class="edge">
<title>[root] root&#45;&gt;[root] output.dns_publica_server_1 (expand)</title>
<path fill="none" stroke="black" d="M1086.94,-441.97C1004.75,-431.03 844.21,-409.66 733.07,-394.87"/>
<polygon fill="black" stroke="black" points="733.52,-391.4 723.15,-393.55 732.6,-398.34 733.52,-391.4"/>
</g>
<!-- [root] root&#45;&gt;[root] output.dns_publica_server_2 (expand) -->
<g id="edge21" class="edge">
<title>[root] root&#45;&gt;[root] output.dns_publica_server_2 (expand)</title>
<path fill="none" stroke="black" d="M1195.85,-444.75C1332.8,-434.38 1688.57,-407.43 1899.67,-391.43"/>
<polygon fill="black" stroke="black" points="1900.22,-394.9 1909.93,-390.66 1899.69,-387.92 1900.22,-394.9"/>
</g>
<!-- [root] root&#45;&gt;[root] output.ipv4_servidor_1 (expand) -->
<g id="edge22" class="edge">
<title>[root] root&#45;&gt;[root] output.ipv4_servidor_1 (expand)</title>
<path fill="none" stroke="black" d="M1083.24,-445.3C958.06,-437.03 648.1,-416.23 388.78,-396 371.14,-394.62 352.61,-393.12 334.27,-391.6"/>
<polygon fill="black" stroke="black" points="334.36,-388.09 324.1,-390.75 333.78,-395.07 334.36,-388.09"/>
</g>
<!-- [root] root&#45;&gt;[root] output.ipv4_servidor_2 (expand) -->
<g id="edge23" class="edge">
<title>[root] root&#45;&gt;[root] output.ipv4_servidor_2 (expand)</title>
<path fill="none" stroke="black" d="M1191.88,-441.71C1270.99,-430.63 1423.29,-409.31 1528.17,-394.63"/>
<polygon fill="black" stroke="black" points="1528.74,-398.08 1538.16,-393.23 1527.77,-391.15 1528.74,-398.08"/>
</g>
<!-- [root] root&#45;&gt;[root] provider[&quot;registry.terraform.io/hashicorp/aws&quot;] (close) -->
<g id="edge24" class="edge">
<title>[root] root&#45;&gt;[root] provider[&quot;registry.terraform.io/hashicorp/aws&quot;] (close)</title>
<path fill="none" stroke="black" d="M1139.78,-431.7C1139.78,-423.98 1139.78,-414.71 1139.78,-406.11"/>
<polygon fill="black" stroke="black" points="1143.28,-406.1 1139.78,-396.1 1136.28,-406.1 1143.28,-406.1"/>
</g>
</g>
</svg>
