<?xml version="1.0" encoding="UTF-8" standalone="no"?>
<!DOCTYPE svg PUBLIC "-//W3C//DTD SVG 1.1//EN"
 "http://www.w3.org/Graphics/SVG/1.1/DTD/svg11.dtd">
<!-- Generated by graphviz version 2.43.0 (0)
 -->
<!-- Title: %3 Pages: 1 -->
<svg width="1492pt" height="476pt"
 viewBox="0.00 0.00 1491.56 476.00" xmlns="http://www.w3.org/2000/svg" xmlns:xlink="http://www.w3.org/1999/xlink">
<g id="graph0" class="graph" transform="scale(1 1) rotate(0) translate(4 472)">
<title>%3</title>
<polygon fill="white" stroke="transparent" points="-4,4 -4,-472 1487.56,-472 1487.56,4 -4,4"/>
<!-- [root] aws_instance.servidor_smavo_I (expand) -->
<g id="node1" class="node">
<title>[root] aws_instance.servidor_smavo_I (expand)</title>
<polygon fill="none" stroke="black" points="731.28,-324 492.28,-324 492.28,-288 731.28,-288 731.28,-324"/>
<text text-anchor="middle" x="611.78" y="-302.3" font-family="Times,serif" font-size="14.00">aws_instance.servidor_smavo_I</text>
</g>
<!-- [root] aws_security_group.mi_sg (expand) -->
<g id="node3" class="node">
<title>[root] aws_security_group.mi_sg (expand)</title>
<polygon fill="none" stroke="black" points="899.28,-252 696.28,-252 696.28,-216 899.28,-216 899.28,-252"/>
<text text-anchor="middle" x="797.78" y="-230.3" font-family="Times,serif" font-size="14.00">aws_security_group.mi_sg</text>
</g>
<!-- [root] aws_instance.servidor_smavo_I (expand)&#45;&gt;[root] aws_security_group.mi_sg (expand) -->
<g id="edge1" class="edge">
<title>[root] aws_instance.servidor_smavo_I (expand)&#45;&gt;[root] aws_security_group.mi_sg (expand)</title>
<path fill="none" stroke="black" d="M657.28,-287.88C683.16,-278.14 715.75,-265.87 743.02,-255.61"/>
<polygon fill="black" stroke="black" points="744.3,-258.87 752.43,-252.07 741.84,-252.31 744.3,-258.87"/>
</g>
<!-- [root] data.aws_subnet.az_b (expand) -->
<g id="node4" class="node">
<title>[root] data.aws_subnet.az_b (expand)</title>
<polygon fill="none" stroke="black" points="666.78,-180 494.78,-180 494.78,-144 666.78,-144 666.78,-180"/>
<text text-anchor="middle" x="580.78" y="-158.3" font-family="Times,serif" font-size="14.00">data.aws_subnet.az_b</text>
</g>
<!-- [root] aws_instance.servidor_smavo_I (expand)&#45;&gt;[root] data.aws_subnet.az_b (expand) -->
<g id="edge2" class="edge">
<title>[root] aws_instance.servidor_smavo_I (expand)&#45;&gt;[root] data.aws_subnet.az_b (expand)</title>
<path fill="none" stroke="black" d="M608.04,-287.87C602.73,-263.56 592.97,-218.82 586.68,-190.01"/>
<polygon fill="black" stroke="black" points="590.09,-189.21 584.53,-180.19 583.25,-190.71 590.09,-189.21"/>
</g>
<!-- [root] var.ami -->
<g id="node8" class="node">
<title>[root] var.ami</title>
<polygon fill="none" stroke="black" points="672.28,-252 609.28,-252 609.28,-216 678.28,-216 678.28,-246 672.28,-252"/>
<polyline fill="none" stroke="black" points="672.28,-252 672.28,-246 "/>
<polyline fill="none" stroke="black" points="678.28,-246 672.28,-246 "/>
<text text-anchor="middle" x="643.78" y="-230.3" font-family="Times,serif" font-size="14.00">var.ami</text>
</g>
<!-- [root] aws_instance.servidor_smavo_I (expand)&#45;&gt;[root] var.ami -->
<g id="edge3" class="edge">
<title>[root] aws_instance.servidor_smavo_I (expand)&#45;&gt;[root] var.ami</title>
<path fill="none" stroke="black" d="M619.69,-287.7C623.33,-279.73 627.74,-270.1 631.77,-261.26"/>
<polygon fill="black" stroke="black" points="634.99,-262.65 635.96,-252.1 628.62,-259.74 634.99,-262.65"/>
</g>
<!-- [root] aws_instance.servidor_smavo_II (expand) -->
<g id="node2" class="node">
<title>[root] aws_instance.servidor_smavo_II (expand)</title>
<polygon fill="none" stroke="black" points="994.28,-324 749.28,-324 749.28,-288 994.28,-288 994.28,-324"/>
<text text-anchor="middle" x="871.78" y="-302.3" font-family="Times,serif" font-size="14.00">aws_instance.servidor_smavo_II</text>
</g>
<!-- [root] aws_instance.servidor_smavo_II (expand)&#45;&gt;[root] aws_security_group.mi_sg (expand) -->
<g id="edge4" class="edge">
<title>[root] aws_instance.servidor_smavo_II (expand)&#45;&gt;[root] aws_security_group.mi_sg (expand)</title>
<path fill="none" stroke="black" d="M853.49,-287.7C844.35,-279.05 833.14,-268.45 823.18,-259.03"/>
<polygon fill="black" stroke="black" points="825.53,-256.43 815.86,-252.1 820.72,-261.52 825.53,-256.43"/>
</g>
<!-- [root] data.aws_subnet.az_c (expand) -->
<g id="node5" class="node">
<title>[root] data.aws_subnet.az_c (expand)</title>
<polygon fill="none" stroke="black" points="1040.78,-180 870.78,-180 870.78,-144 1040.78,-144 1040.78,-180"/>
<text text-anchor="middle" x="955.78" y="-158.3" font-family="Times,serif" font-size="14.00">data.aws_subnet.az_c</text>
</g>
<!-- [root] aws_instance.servidor_smavo_II (expand)&#45;&gt;[root] data.aws_subnet.az_c (expand) -->
<g id="edge5" class="edge">
<title>[root] aws_instance.servidor_smavo_II (expand)&#45;&gt;[root] data.aws_subnet.az_c (expand)</title>
<path fill="none" stroke="black" d="M884.67,-287.7C892.05,-277.51 901.3,-264.26 908.78,-252 921.29,-231.48 933.93,-207.32 942.94,-189.36"/>
<polygon fill="black" stroke="black" points="946.24,-190.59 947.55,-180.08 939.97,-187.47 946.24,-190.59"/>
</g>
<!-- [root] aws_instance.servidor_smavo_II (expand)&#45;&gt;[root] var.ami -->
<g id="edge6" class="edge">
<title>[root] aws_instance.servidor_smavo_II (expand)&#45;&gt;[root] var.ami</title>
<path fill="none" stroke="black" d="M807.49,-287.98C774.32,-278.85 733.07,-266.96 688.34,-252.05"/>
<polygon fill="black" stroke="black" points="689.34,-248.7 678.74,-248.83 687.11,-255.33 689.34,-248.7"/>
</g>
<!-- [root] data.aws_vpc.default (expand) -->
<g id="node6" class="node">
<title>[root] data.aws_vpc.default (expand)</title>
<polygon fill="none" stroke="black" points="852.28,-180 685.28,-180 685.28,-144 852.28,-144 852.28,-180"/>
<text text-anchor="middle" x="768.78" y="-158.3" font-family="Times,serif" font-size="14.00">data.aws_vpc.default</text>
</g>
<!-- [root] aws_security_group.mi_sg (expand)&#45;&gt;[root] data.aws_vpc.default (expand) -->
<g id="edge7" class="edge">
<title>[root] aws_security_group.mi_sg (expand)&#45;&gt;[root] data.aws_vpc.default (expand)</title>
<path fill="none" stroke="black" d="M790.61,-215.7C787.35,-207.81 783.41,-198.3 779.78,-189.55"/>
<polygon fill="black" stroke="black" points="782.93,-188 775.87,-180.1 776.46,-190.68 782.93,-188"/>
</g>
<!-- [root] provider[&quot;registry.terraform.io/hashicorp/aws&quot;] -->
<g id="node7" class="node">
<title>[root] provider[&quot;registry.terraform.io/hashicorp/aws&quot;]</title>
<polygon fill="none" stroke="black" points="768.78,-108 443.52,-90 768.78,-72 1094.04,-90 768.78,-108"/>
<text text-anchor="middle" x="768.78" y="-86.3" font-family="Times,serif" font-size="14.00">provider[&quot;registry.terraform.io/hashicorp/aws&quot;]</text>
</g>
<!-- [root] data.aws_subnet.az_b (expand)&#45;&gt;[root] provider[&quot;registry.terraform.io/hashicorp/aws&quot;] -->
<g id="edge8" class="edge">
<title>[root] data.aws_subnet.az_b (expand)&#45;&gt;[root] provider[&quot;registry.terraform.io/hashicorp/aws&quot;]</title>
<path fill="none" stroke="black" d="M626.77,-143.88C654.9,-133.4 690.87,-120.01 719.56,-109.33"/>
<polygon fill="black" stroke="black" points="720.85,-112.58 729,-105.81 718.4,-106.02 720.85,-112.58"/>
</g>
<!-- [root] data.aws_subnet.az_c (expand)&#45;&gt;[root] provider[&quot;registry.terraform.io/hashicorp/aws&quot;] -->
<g id="edge9" class="edge">
<title>[root] data.aws_subnet.az_c (expand)&#45;&gt;[root] provider[&quot;registry.terraform.io/hashicorp/aws&quot;]</title>
<path fill="none" stroke="black" d="M910.04,-143.88C882.06,-133.4 846.28,-120.01 817.74,-109.33"/>
<polygon fill="black" stroke="black" points="818.95,-106.04 808.35,-105.81 816.49,-112.6 818.95,-106.04"/>
</g>
<!-- [root] data.aws_vpc.default (expand)&#45;&gt;[root] provider[&quot;registry.terraform.io/hashicorp/aws&quot;] -->
<g id="edge10" class="edge">
<title>[root] data.aws_vpc.default (expand)&#45;&gt;[root] provider[&quot;registry.terraform.io/hashicorp/aws&quot;]</title>
<path fill="none" stroke="black" d="M768.78,-143.7C768.78,-135.98 768.78,-126.71 768.78,-118.11"/>
<polygon fill="black" stroke="black" points="772.28,-118.1 768.78,-108.1 765.28,-118.1 772.28,-118.1"/>
</g>
<!-- [root] var.region -->
<g id="node9" class="node">
<title>[root] var.region</title>
<polygon fill="none" stroke="black" points="807.28,-36 724.28,-36 724.28,0 813.28,0 813.28,-30 807.28,-36"/>
<polyline fill="none" stroke="black" points="807.28,-36 807.28,-30 "/>
<polyline fill="none" stroke="black" points="813.28,-30 807.28,-30 "/>
<text text-anchor="middle" x="768.78" y="-14.3" font-family="Times,serif" font-size="14.00">var.region</text>
</g>
<!-- [root] provider[&quot;registry.terraform.io/hashicorp/aws&quot;]&#45;&gt;[root] var.region -->
<g id="edge15" class="edge">
<title>[root] provider[&quot;registry.terraform.io/hashicorp/aws&quot;]&#45;&gt;[root] var.region</title>
<path fill="none" stroke="black" d="M768.78,-71.7C768.78,-63.98 768.78,-54.71 768.78,-46.11"/>
<polygon fill="black" stroke="black" points="772.28,-46.1 768.78,-36.1 765.28,-46.1 772.28,-46.1"/>
</g>
<!-- [root] output.dns_publica_server_1 (expand) -->
<g id="node10" class="node">
<title>[root] output.dns_publica_server_1 (expand)</title>
<ellipse fill="none" stroke="black" cx="215.78" cy="-378" rx="215.56" ry="18"/>
<text text-anchor="middle" x="215.78" y="-374.3" font-family="Times,serif" font-size="14.00">[root] output.dns_publica_server_1 (expand)</text>
</g>
<!-- [root] output.dns_publica_server_1 (expand)&#45;&gt;[root] aws_instance.servidor_smavo_I (expand) -->
<g id="edge11" class="edge">
<title>[root] output.dns_publica_server_1 (expand)&#45;&gt;[root] aws_instance.servidor_smavo_I (expand)</title>
<path fill="none" stroke="black" d="M303.67,-361.46C363.25,-350.93 442.35,-336.95 505.48,-325.79"/>
<polygon fill="black" stroke="black" points="506.24,-329.21 515.47,-324.02 505.02,-322.32 506.24,-329.21"/>
</g>
<!-- [root] output.dns_publica_server_2 (expand) -->
<g id="node11" class="node">
<title>[root] output.dns_publica_server_2 (expand)</title>
<ellipse fill="none" stroke="black" cx="1267.78" cy="-378" rx="215.56" ry="18"/>
<text text-anchor="middle" x="1267.78" y="-374.3" font-family="Times,serif" font-size="14.00">[root] output.dns_publica_server_2 (expand)</text>
</g>
<!-- [root] output.dns_publica_server_2 (expand)&#45;&gt;[root] aws_instance.servidor_smavo_II (expand) -->
<g id="edge12" class="edge">
<title>[root] output.dns_publica_server_2 (expand)&#45;&gt;[root] aws_instance.servidor_smavo_II (expand)</title>
<path fill="none" stroke="black" d="M1179.9,-361.46C1120.31,-350.93 1041.21,-336.95 978.08,-325.79"/>
<polygon fill="black" stroke="black" points="978.54,-322.32 968.09,-324.02 977.33,-329.21 978.54,-322.32"/>
</g>
<!-- [root] provider[&quot;registry.terraform.io/hashicorp/aws&quot;] (close) -->
<g id="node12" class="node">
<title>[root] provider[&quot;registry.terraform.io/hashicorp/aws&quot;] (close)</title>
<ellipse fill="none" stroke="black" cx="741.78" cy="-378" rx="291.65" ry="18"/>
<text text-anchor="middle" x="741.78" y="-374.3" font-family="Times,serif" font-size="14.00">[root] provider[&quot;registry.terraform.io/hashicorp/aws&quot;] (close)</text>
</g>
<!-- [root] provider[&quot;registry.terraform.io/hashicorp/aws&quot;] (close)&#45;&gt;[root] aws_instance.servidor_smavo_I (expand) -->
<g id="edge13" class="edge">
<title>[root] provider[&quot;registry.terraform.io/hashicorp/aws&quot;] (close)&#45;&gt;[root] aws_instance.servidor_smavo_I (expand)</title>
<path fill="none" stroke="black" d="M710.31,-360.05C692.88,-350.67 671.01,-338.89 652.3,-328.82"/>
<polygon fill="black" stroke="black" points="653.88,-325.69 643.41,-324.03 650.56,-331.85 653.88,-325.69"/>
</g>
<!-- [root] provider[&quot;registry.terraform.io/hashicorp/aws&quot;] (close)&#45;&gt;[root] aws_instance.servidor_smavo_II (expand) -->
<g id="edge14" class="edge">
<title>[root] provider[&quot;registry.terraform.io/hashicorp/aws&quot;] (close)&#45;&gt;[root] aws_instance.servidor_smavo_II (expand)</title>
<path fill="none" stroke="black" d="M773.25,-360.05C790.69,-350.67 812.55,-338.89 831.26,-328.82"/>
<polygon fill="black" stroke="black" points="833.01,-331.85 840.15,-324.03 829.69,-325.69 833.01,-331.85"/>
</g>
<!-- [root] root -->
<g id="node13" class="node">
<title>[root] root</title>
<ellipse fill="none" stroke="black" cx="741.78" cy="-450" rx="58.49" ry="18"/>
<text text-anchor="middle" x="741.78" y="-446.3" font-family="Times,serif" font-size="14.00">[root] root</text>
</g>
<!-- [root] root&#45;&gt;[root] output.dns_publica_server_1 (expand) -->
<g id="edge16" class="edge">
<title>[root] root&#45;&gt;[root] output.dns_publica_server_1 (expand)</title>
<path fill="none" stroke="black" d="M688.94,-441.97C606.75,-431.03 446.2,-409.66 335.07,-394.87"/>
<polygon fill="black" stroke="black" points="335.52,-391.4 325.14,-393.55 334.59,-398.34 335.52,-391.4"/>
</g>
<!-- [root] root&#45;&gt;[root] output.dns_publica_server_2 (expand) -->
<g id="edge17" class="edge">
<title>[root] root&#45;&gt;[root] output.dns_publica_server_2 (expand)</title>
<path fill="none" stroke="black" d="M794.62,-441.97C876.81,-431.03 1037.36,-409.66 1148.49,-394.87"/>
<polygon fill="black" stroke="black" points="1148.97,-398.34 1158.42,-393.55 1148.04,-391.4 1148.97,-398.34"/>
</g>
<!-- [root] root&#45;&gt;[root] provider[&quot;registry.terraform.io/hashicorp/aws&quot;] (close) -->
<g id="edge18" class="edge">
<title>[root] root&#45;&gt;[root] provider[&quot;registry.terraform.io/hashicorp/aws&quot;] (close)</title>
<path fill="none" stroke="black" d="M741.78,-431.7C741.78,-423.98 741.78,-414.71 741.78,-406.11"/>
<polygon fill="black" stroke="black" points="745.28,-406.1 741.78,-396.1 738.28,-406.1 745.28,-406.1"/>
</g>
</g>
</svg>
