<?xml version="1.0" encoding="UTF-8" standalone="no"?>
<!DOCTYPE svg PUBLIC "-//W3C//DTD SVG 1.1//EN"
 "http://www.w3.org/Graphics/SVG/1.1/DTD/svg11.dtd">
<!-- Generated by graphviz version 2.43.0 (0)
 -->
<!-- Title: %3 Pages: 1 -->
<svg width="702pt" height="404pt"
 viewBox="0.00 0.00 702.21 404.00" xmlns="http://www.w3.org/2000/svg" xmlns:xlink="http://www.w3.org/1999/xlink">
<g id="graph0" class="graph" transform="scale(1 1) rotate(0) translate(4 400)">
<title>%3</title>
<polygon fill="white" stroke="transparent" points="-4,4 -4,-400 698.21,-400 698.21,4 -4,4"/>
<!-- [root] aws_instance.servidor_smavo (expand) -->
<g id="node1" class="node">
<title>[root] aws_instance.servidor_smavo (expand)</title>
<polygon fill="none" stroke="black" points="515.88,-252 288.88,-252 288.88,-216 515.88,-216 515.88,-252"/>
<text text-anchor="middle" x="402.38" y="-230.3" font-family="Times,serif" font-size="14.00">aws_instance.servidor_smavo</text>
</g>
<!-- [root] aws_security_group.mi_sg (expand) -->
<g id="node2" class="node">
<title>[root] aws_security_group.mi_sg (expand)</title>
<polygon fill="none" stroke="black" points="426.88,-180 223.88,-180 223.88,-144 426.88,-144 426.88,-180"/>
<text text-anchor="middle" x="325.38" y="-158.3" font-family="Times,serif" font-size="14.00">aws_security_group.mi_sg</text>
</g>
<!-- [root] aws_instance.servidor_smavo (expand)&#45;&gt;[root] aws_security_group.mi_sg (expand) -->
<g id="edge1" class="edge">
<title>[root] aws_instance.servidor_smavo (expand)&#45;&gt;[root] aws_security_group.mi_sg (expand)</title>
<path fill="none" stroke="black" d="M383.35,-215.7C373.84,-207.05 362.18,-196.45 351.81,-187.03"/>
<polygon fill="black" stroke="black" points="353.95,-184.24 344.2,-180.1 349.24,-189.42 353.95,-184.24"/>
</g>
<!-- [root] var.ami -->
<g id="node4" class="node">
<title>[root] var.ami</title>
<polygon fill="none" stroke="black" points="507.88,-180 444.88,-180 444.88,-144 513.88,-144 513.88,-174 507.88,-180"/>
<polyline fill="none" stroke="black" points="507.88,-180 507.88,-174 "/>
<polyline fill="none" stroke="black" points="513.88,-174 507.88,-174 "/>
<text text-anchor="middle" x="479.38" y="-158.3" font-family="Times,serif" font-size="14.00">var.ami</text>
</g>
<!-- [root] aws_instance.servidor_smavo (expand)&#45;&gt;[root] var.ami -->
<g id="edge2" class="edge">
<title>[root] aws_instance.servidor_smavo (expand)&#45;&gt;[root] var.ami</title>
<path fill="none" stroke="black" d="M421.42,-215.7C430.93,-207.05 442.59,-196.45 452.95,-187.03"/>
<polygon fill="black" stroke="black" points="455.52,-189.42 460.57,-180.1 450.81,-184.24 455.52,-189.42"/>
</g>
<!-- [root] provider[&quot;registry.terraform.io/hashicorp/aws&quot;] -->
<g id="node3" class="node">
<title>[root] provider[&quot;registry.terraform.io/hashicorp/aws&quot;]</title>
<polygon fill="none" stroke="black" points="325.38,-108 0.12,-90 325.38,-72 650.65,-90 325.38,-108"/>
<text text-anchor="middle" x="325.38" y="-86.3" font-family="Times,serif" font-size="14.00">provider[&quot;registry.terraform.io/hashicorp/aws&quot;]</text>
</g>
<!-- [root] aws_security_group.mi_sg (expand)&#45;&gt;[root] provider[&quot;registry.terraform.io/hashicorp/aws&quot;] -->
<g id="edge3" class="edge">
<title>[root] aws_security_group.mi_sg (expand)&#45;&gt;[root] provider[&quot;registry.terraform.io/hashicorp/aws&quot;]</title>
<path fill="none" stroke="black" d="M325.38,-143.7C325.38,-135.98 325.38,-126.71 325.38,-118.11"/>
<polygon fill="black" stroke="black" points="328.88,-118.1 325.38,-108.1 321.88,-118.1 328.88,-118.1"/>
</g>
<!-- [root] var.region -->
<g id="node5" class="node">
<title>[root] var.region</title>
<polygon fill="none" stroke="black" points="363.88,-36 280.88,-36 280.88,0 369.88,0 369.88,-30 363.88,-36"/>
<polyline fill="none" stroke="black" points="363.88,-36 363.88,-30 "/>
<polyline fill="none" stroke="black" points="369.88,-30 363.88,-30 "/>
<text text-anchor="middle" x="325.38" y="-14.3" font-family="Times,serif" font-size="14.00">var.region</text>
</g>
<!-- [root] provider[&quot;registry.terraform.io/hashicorp/aws&quot;]&#45;&gt;[root] var.region -->
<g id="edge5" class="edge">
<title>[root] provider[&quot;registry.terraform.io/hashicorp/aws&quot;]&#45;&gt;[root] var.region</title>
<path fill="none" stroke="black" d="M325.38,-71.7C325.38,-63.98 325.38,-54.71 325.38,-46.11"/>
<polygon fill="black" stroke="black" points="328.88,-46.1 325.38,-36.1 321.88,-46.1 328.88,-46.1"/>
</g>
<!-- [root] provider[&quot;registry.terraform.io/hashicorp/aws&quot;] (close) -->
<g id="node6" class="node">
<title>[root] provider[&quot;registry.terraform.io/hashicorp/aws&quot;] (close)</title>
<ellipse fill="none" stroke="black" cx="402.38" cy="-306" rx="291.65" ry="18"/>
<text text-anchor="middle" x="402.38" y="-302.3" font-family="Times,serif" font-size="14.00">[root] provider[&quot;registry.terraform.io/hashicorp/aws&quot;] (close)</text>
</g>
<!-- [root] provider[&quot;registry.terraform.io/hashicorp/aws&quot;] (close)&#45;&gt;[root] aws_instance.servidor_smavo (expand) -->
<g id="edge4" class="edge">
<title>[root] provider[&quot;registry.terraform.io/hashicorp/aws&quot;] (close)&#45;&gt;[root] aws_instance.servidor_smavo (expand)</title>
<path fill="none" stroke="black" d="M402.38,-287.7C402.38,-279.98 402.38,-270.71 402.38,-262.11"/>
<polygon fill="black" stroke="black" points="405.88,-262.1 402.38,-252.1 398.88,-262.1 405.88,-262.1"/>
</g>
<!-- [root] root -->
<g id="node7" class="node">
<title>[root] root</title>
<ellipse fill="none" stroke="black" cx="402.38" cy="-378" rx="58.49" ry="18"/>
<text text-anchor="middle" x="402.38" y="-374.3" font-family="Times,serif" font-size="14.00">[root] root</text>
</g>
<!-- [root] root&#45;&gt;[root] provider[&quot;registry.terraform.io/hashicorp/aws&quot;] (close) -->
<g id="edge6" class="edge">
<title>[root] root&#45;&gt;[root] provider[&quot;registry.terraform.io/hashicorp/aws&quot;] (close)</title>
<path fill="none" stroke="black" d="M402.38,-359.7C402.38,-351.98 402.38,-342.71 402.38,-334.11"/>
<polygon fill="black" stroke="black" points="405.88,-334.1 402.38,-324.1 398.88,-334.1 405.88,-334.1"/>
</g>
</g>
</svg>
